<?xml version="1.0" encoding="UTF-8" standalone="no"?>
<svg
   xmlns:dc="http://purl.org/dc/elements/1.1/"
   xmlns:cc="http://creativecommons.org/ns#"
   xmlns:rdf="http://www.w3.org/1999/02/22-rdf-syntax-ns#"
   xmlns:svg="http://www.w3.org/2000/svg"
   xmlns="http://www.w3.org/2000/svg"
   viewBox="0 0 816 1056"
   height="1056"
   width="816"
   xml:space="preserve"
   id="svg2"
   version="1.1"><metadata
     id="metadata8"><rdf:RDF><cc:Work
         rdf:about=""><dc:format>image/svg+xml</dc:format><dc:type
           rdf:resource="http://purl.org/dc/dcmitype/StillImage" /></cc:Work></rdf:RDF></metadata><defs
     id="defs6"><clipPath
       id="clipPath24"
       clipPathUnits="userSpaceOnUse"><path
         id="path22"
         d="M 72,286.8 H 540 V 720 H 72 Z" /></clipPath></defs><g
     transform="matrix(1.3333333,0,0,-1.3333333,0,1056)"
     id="g10"><g
       id="g12" /><g
       id="g14"><g
         transform="matrix(0.24,0,0,0.24,0,601.92)"
         id="g16" /></g><g
       id="g18"><g
         clip-path="url(#clipPath24)"
         id="g20"><path
           id="path26"
           style="fill:#ffffff;fill-opacity:1;fill-rule:evenodd;stroke:none"
           d="m 147.1808,519.7515 c -4.4249,1.8001 -8.4072,4.3634 -11.813,7.5044 l -4.8513,-3.4148 c -1.5528,-1.0911 -3.7047,-0.7202 -4.7984,0.8326 l -1.4001,1.9956 -2.8748,4.0896 -1.4001,1.9956 c -1.0911,1.5529 -0.719,3.7087 0.8325,4.7986 l 4.8514,3.4059 c -1.8001,4.2675 -2.8647,8.8881 -3.0602,13.6602 l -5.8441,1.0192 c -1.8643,0.3192 -3.1232,2.1104 -2.794,3.9736 l 0.4163,2.4031 0.8615,4.931 0.4175,2.403 c 0.3268,1.8644 2.1179,3.1234 3.9823,2.8042 l 5.834,-1.0205 c 1.8,4.4264 4.3631,8.4088 7.5066,11.8147 l -3.4147,4.8515 c -1.0848,1.5415 -0.7114,3.7074 0.83,4.7898 l 2.0057,1.4014 4.0907,2.8837 1.9943,1.4002 c 1.5439,1.0899 3.6984,0.7089 4.7882,-0.8325 l 3.4159,-4.8516 c 4.2686,1.7988 8.8778,2.8635 13.6585,3.059 l 1.0141,5.838 c 0.3242,1.8619 2.1179,3.1221 3.9797,2.8017 l 2.403,-0.4251 4.9321,-0.8603 2.403,-0.4176 c 1.8618,-0.3191 3.1244,-2.1091 2.794,-3.9735 l -1.0193,-5.8443 c 4.4339,-1.8001 8.4161,-4.3634 11.8131,-7.4943 l 4.8627,3.4059 c 1.5389,1.0899 3.6984,0.7178 4.787,-0.835 l 1.4001,-1.9956 2.8748,-4.0871 1.409,-1.9982 c 1.0835,-1.5516 0.7101,-3.7074 -0.8301,-4.7985 l -4.8627,-3.4072 c 1.8001,-4.2649 2.8647,-8.8781 3.0602,-13.6577 l 5.8441,-1.0205 c 1.8643,-0.3191 3.1232,-2.1104 2.794,-3.9735 l -0.4163,-2.4031 -0.8615,-4.9323 -0.4163,-2.403 c -0.328,-1.8607 -2.1166,-3.1209 -3.9835,-2.7929 l -5.834,1.0117 c -1.8,-4.4251 -4.3632,-8.4088 -7.504,-11.8147 l 3.4108,-4.8503 c 1.0949,-1.5528 0.7114,-3.6998 -0.83,-4.7897 l -1.9968,-1.4027 -4.0983,-2.8837 -1.9955,-1.4027 c -1.5427,-1.0912 -3.6985,-0.7102 -4.7883,0.8338 l -3.4159,4.8515 c -4.266,-1.8013 -8.8777,-2.866 -13.6471,-3.0615 l -1.0217,-5.8342 c -0.328,-1.8644 -2.1204,-3.1233 -3.981,-2.8042 l -2.4042,0.4264 -4.9233,0.8603 -2.4029,0.4163 c -1.8707,0.3191 -3.122,2.1129 -2.8029,3.9735 z m -62.5364,58.3445 -2.5455,4.55 c -0.92209,1.6412 -0.33301,3.7339 1.30428,4.6485 l 2.8924,1.6222 c -0.40996,2.3059 -0.37086,4.6383 0.08703,6.8837 l -2.85581,1.6929 c -1.61585,0.9587 -2.14564,3.0602 -1.18824,4.6749 l 2.6603,4.487 c 0.95866,1.6134 3.07024,2.1545 4.68358,1.1895 l 2.84698,-1.6865 c 0.87162,0.7278 1.8202,1.3838 2.84824,1.9602 1.01921,0.5765 2.08383,1.0382 3.15728,1.4002 l 0.04415,3.3189 c 0.01766,1.8808 1.57801,3.3971 3.44991,3.3693 l 5.2159,-0.0618 c 1.882,-0.0252 3.397,-1.5793 3.3793,-3.4576 l -0.0441,-3.3163 c 2.1544,-0.7809 4.1676,-1.9603 5.9172,-3.5132 l 2.8886,1.6235 c 1.6411,0.9221 3.7363,0.328 4.647,-1.3043 l 2.5556,-4.5463 c 0.9208,-1.6436 0.328,-3.7364 -1.3043,-4.6497 l -2.8911,-1.6222 c 0.4087,-2.3072 0.3645,-4.6396 -0.0871,-6.8837 l 2.847,-1.6929 c 1.6133,-0.9587 2.1545,-3.0615 1.1971,-4.6837 l -2.6691,-4.4794 c -0.96,-1.6134 -3.0615,-2.1559 -4.6748,-1.1971 l -2.8571,1.6928 c -0.8703,-0.7253 -1.8189,-1.3838 -2.8381,-1.9603 -1.0281,-0.5765 -2.0838,-1.047 -3.1548,-1.4002 l -0.0479,-3.3163 c -0.0252,-1.8808 -1.5793,-3.3971 -3.4562,-3.3706 l -5.2159,0.0618 c -1.86943,0.0252 -3.39699,1.5781 -3.3705,3.4601 l 0.04415,3.3164 c -2.15195,0.7808 -4.16767,1.9603 -5.9248,3.5119 l -2.8823,-1.6235 c -1.64234,-0.9234 -3.73753,-0.3393 -4.65835,1.3018 z m 12.81583,9.206 c -2.67039,3.7957 -1.75587,9.037 2.03842,11.7176 3.80565,2.6692 9.04675,1.7585 11.71715,-2.0498 2.678,-3.7957 1.7685,-9.0459 -2.0409,-11.7163 -3.7943,-2.6705 -9.043,-1.7547 -11.71467,2.0485 z m 33.92537,16.7458 -3.537,3.831 c -1.279,1.3749 -1.1983,3.5484 0.1867,4.8263 l 2.4269,2.2517 c -0.9321,2.1381 -1.4367,4.4175 -1.5162,6.7159 l -3.1661,0.9751 c -1.8013,0.5576 -2.8129,2.4838 -2.2541,4.2738 l 1.5427,4.984 c 0.5588,1.795 2.4862,2.8042 4.2774,2.2453 l 3.1636,-0.9776 c 0.6736,0.9146 1.4456,1.7749 2.3058,2.5721 0.8616,0.7998 1.7837,1.4999 2.7411,2.1028 l -0.7266,3.2293 c -0.4163,1.8355 0.7455,3.6721 2.572,4.0884 l 5.0897,1.1542 c 1.8278,0.4163 3.6644,-0.7455 4.0794,-2.5809 l 0.7367,-3.2268 c 2.2818,-0.2598 4.5057,-0.9423 6.5719,-2.0435 l 2.4332,2.2542 c 1.3825,1.2766 3.5546,1.1895 4.8249,-0.1867 l 3.5458,-3.8323 c 1.2778,-1.3737 1.1869,-3.5472 -0.1867,-4.8238 l -2.4383,-2.2529 c 0.941,-2.1382 1.4468,-4.4176 1.5162,-6.7046 l 3.1737,-0.9852 c 1.7937,-0.5588 2.8041,-2.4825 2.2541,-4.2738 l -1.5528,-4.9865 c -0.5462,-1.79 -2.4736,-2.8017 -4.2648,-2.2428 l -3.1674,0.9738 c -0.6824,-0.9032 -1.443,-1.7736 -2.3058,-2.5708 -0.8704,-0.7985 -1.7899,-1.4986 -2.7511,-2.094 l 0.7366,-3.2369 c 0.4163,-1.8354 -0.7454,-3.6721 -2.5808,-4.0896 l -5.0822,-1.1517 c -1.8353,-0.4176 -3.6732,0.7455 -4.0882,2.5809 l -0.7366,3.2369 c -2.2705,0.2485 -4.5045,0.9322 -6.5719,2.0309 l -2.432,-2.2517 c -1.3699,-1.2791 -3.5407,-1.1883 -4.8198,0.1855 z m 9.0013,13.4104 c -2.6779,3.7957 -1.7634,9.0383 2.041,11.7176 3.7955,2.6692 9.0455,1.7572 11.7184,-2.0486 2.6679,-3.797 1.7533,-9.0383 -2.0435,-11.7163 -3.8044,-2.6718 -9.0455,-1.756 -11.7159,2.0473 z m -1.6398,-77.5904 c -4.5234,6.4385 -6.0143,14.103 -4.763,21.287 1.2513,7.1826 5.2411,13.891 11.6805,18.412 6.4307,4.5249 14.0937,6.0159 21.2774,4.7645 7.1836,-1.2513 13.8917,-5.2514 18.4227,-11.681 4.5234,-6.4409 6.0118,-14.1042 4.753,-21.2882 -1.2488,-7.1852 -5.2412,-13.8885 -11.6806,-18.4133 -6.4306,-4.5223 -14.0949,-6.0121 -21.2773,-4.762 -7.1849,1.259 -13.8906,5.2514 -18.4127,11.681 z m 2.9,19.9473 c -0.9057,-5.2249 0.1766,-10.7854 3.4676,-15.4679 3.2897,-4.6736 8.16,-7.5825 13.386,-8.4895 5.2133,-0.912 10.7849,0.169 15.466,3.4601 4.6773,3.2899 7.5734,8.1603 8.488,13.3853 0.9056,5.2236 -0.1766,10.7853 -3.4576,15.4691 -3.2909,4.6736 -8.17,7.5825 -13.3847,8.487 -5.2222,0.9146 -10.795,-0.1678 -15.4685,-3.4576 -4.6836,-3.2937 -7.5836,-8.1616 -8.4968,-13.3865 z" /><g
           transform="matrix(0.12614,0,0,-0.1261447,72.01022,720)"
           id="g28"><path
             id="path30"
             style="fill:none;stroke:#000000;stroke-width:11.89103031;stroke-linecap:butt;stroke-linejoin:miter;stroke-miterlimit:4;stroke-dasharray:none;stroke-opacity:1"
             d="m 595.93,1587.45 c -35.08,-14.27 -66.65,-34.59 -93.65,-59.49 l -38.46,27.07 c -12.31,8.65 -29.37,5.71 -38.04,-6.6 l -11.1,-15.82 -22.79,-32.42 -11.1,-15.82 c -8.65,-12.31 -5.7,-29.4 6.6,-38.04 l 38.46,-27 c -14.27,-33.83 -22.71,-70.46 -24.26,-108.29 l -46.33,-8.08 c -14.78,-2.53 -24.76,-16.73 -22.15,-31.5 l 3.3,-19.05 6.83,-39.09 3.31,-19.05 c 2.59,-14.78 16.79,-24.76 31.57,-22.23 l 46.25,8.09 c 14.27,-35.09 34.59,-66.66 59.51,-93.66 l -27.07,-38.46 c -8.6,-12.22 -5.64,-29.39 6.58,-37.97 l 15.9,-11.11 32.43,-22.86 15.81,-11.1 c 12.24,-8.64 29.32,-5.62 37.96,6.6 l 27.08,38.46 c 33.84,-14.26 70.38,-22.7 108.28,-24.25 l 8.04,-46.28 c 2.57,-14.76 16.79,-24.75 31.55,-22.21 l 19.05,3.37 39.1,6.82 19.05,3.31 c 14.76,2.53 24.77,16.72 22.15,31.5 l -8.08,46.33 c 35.15,14.27 66.72,34.59 93.65,59.41 l 38.55,-27 c 12.2,-8.64 29.32,-5.69 37.95,6.62 l 11.1,15.82 22.79,32.4 11.17,15.84 c 8.59,12.3 5.63,29.39 -6.58,38.04 l -38.55,27.01 c 14.27,33.81 22.71,70.38 24.26,108.27 l 46.33,8.09 c 14.78,2.53 24.76,16.73 22.15,31.5 l -3.3,19.05 -6.83,39.1 -3.3,19.05 c -2.6,14.75 -16.78,24.74 -31.58,22.14 l -46.25,-8.02 c -14.27,35.08 -34.59,66.66 -59.49,93.66 l 27.04,38.45 c 8.68,12.31 5.64,29.33 -6.58,37.97 l -15.83,11.12 -32.49,22.86 -15.82,11.12 c -12.23,8.65 -29.32,5.63 -37.96,-6.61 l -27.08,-38.46 c -33.82,14.28 -70.38,22.72 -108.19,24.27 l -8.1,46.25 c -2.6,14.78 -16.81,24.76 -31.56,22.23 l -19.06,-3.38 -39.03,-6.82 -19.05,-3.3 c -14.83,-2.53 -24.75,-16.75 -22.22,-31.5 z M 100.16,1124.93 79.98,1088.86 c -7.31,-13.01 -2.64,-29.6 10.34,-36.85 l 22.93,-12.86 c -3.25,-18.28 -2.94,-36.77 0.69,-54.57 L 91.3,971.16 C 78.49,963.56 74.29,946.9 81.88,934.1 l 21.09,-35.57 c 7.6,-12.79 24.34,-17.08 37.13,-9.43 l 22.57,13.37 c 6.91,-5.77 14.43,-10.97 22.58,-15.54 8.08,-4.57 16.52,-8.23 25.03,-11.1 l 0.35,-26.31 c 0.14,-14.91 12.51,-26.93 27.35,-26.71 l 41.35,0.49 c 14.92,0.2 26.93,12.52 26.79,27.41 L 305.77,877 c 17.08,6.19 33.04,15.54 46.91,27.85 l 22.9,-12.87 c 13.01,-7.31 29.62,-2.6 36.84,10.34 l 20.26,36.04 c 7.3,13.03 2.6,29.62 -10.34,36.86 l -22.92,12.86 c 3.24,18.29 2.89,36.78 -0.69,54.57 l 22.57,13.42 c 12.79,7.6 17.08,24.27 9.49,37.13 l -21.16,35.51 c -7.61,12.79 -24.27,17.09 -37.06,9.49 l -22.65,-13.42 c -6.9,5.75 -14.42,10.97 -22.5,15.54 -8.15,4.57 -16.52,8.3 -25.01,11.1 l -0.38,26.29 c -0.2,14.91 -12.52,26.93 -27.4,26.72 l -41.35,-0.49 c -14.82,-0.2 -26.93,-12.51 -26.72,-27.43 l 0.35,-26.29 c -17.06,-6.19 -33.04,-15.54 -46.97,-27.84 l -22.85,12.87 c -13.02,7.32 -29.63,2.69 -36.93,-10.32 z m 101.6,-72.98 c -21.17,-30.09 -13.92,-71.64 16.16,-92.89 30.17,-21.16 71.72,-13.94 92.89,16.25 21.23,30.09 14.02,71.71 -16.18,92.88 -30.08,21.17 -71.69,13.91 -92.87,-16.24 z M 470.71,919.2 442.67,888.83 c -10.14,-10.9 -9.5,-28.13 1.48,-38.26 l 19.24,-17.85 C 456,815.77 452,797.7 451.37,779.48 l -25.1,-7.73 c -14.28,-4.42 -22.3,-19.69 -17.87,-33.88 l 12.23,-39.51 c 4.43,-14.23 19.71,-22.23 33.91,-17.8 l 25.08,7.75 c 5.34,-7.25 11.46,-14.07 18.28,-20.39 6.83,-6.34 14.14,-11.89 21.73,-16.67 l -5.76,-25.6 c -3.3,-14.55 5.91,-29.11 20.39,-32.41 l 40.35,-9.15 c 14.49,-3.3 29.05,5.91 32.34,20.46 l 5.84,25.58 c 18.09,2.06 35.72,7.47 52.1,16.2 l 19.29,-17.87 c 10.96,-10.12 28.18,-9.43 38.25,1.48 l 28.11,30.38 c 10.13,10.89 9.41,28.12 -1.48,38.24 l -19.33,17.86 c 7.46,16.95 11.47,35.02 12.02,53.15 l 25.16,7.81 c 14.22,4.43 22.23,19.68 17.87,33.88 l -12.31,39.53 c -4.33,14.19 -19.61,22.21 -33.81,17.78 l -25.11,-7.72 c -5.41,7.16 -11.44,14.06 -18.28,20.38 -6.9,6.33 -14.19,11.88 -21.81,16.6 l 5.84,25.66 c 3.3,14.55 -5.91,29.11 -20.46,32.42 l -40.29,9.13 c -14.55,3.31 -29.12,-5.91 -32.41,-20.46 l -5.84,-25.66 c -18,-1.97 -35.71,-7.39 -52.1,-16.1 l -19.28,17.85 c -10.86,10.14 -28.07,9.42 -38.21,-1.47 z M 542.07,812.89 C 520.84,782.8 528.09,741.24 558.25,720 c 30.09,-21.16 71.71,-13.93 92.9,16.24 21.15,30.1 13.9,71.65 -16.2,92.88 -30.16,21.18 -71.71,13.92 -92.88,-16.23 z m -13,615.09 c -35.86,-51.04 -47.68,-111.8 -37.76,-168.75 9.92,-56.94 41.55,-110.12 92.6,-145.96 50.98,-35.87 111.73,-47.69 168.68,-37.77 56.95,9.92 110.13,41.63 146.05,92.6 35.86,51.06 47.66,111.81 37.68,168.76 -9.9,56.96 -41.55,110.1 -92.6,145.97 -50.98,35.85 -111.74,47.66 -168.68,37.75 -56.96,-9.98 -110.12,-41.63 -145.97,-92.6 z m 22.99,-158.13 c -7.18,41.42 1.4,85.5 27.49,122.62 26.08,37.05 64.69,60.11 106.12,67.3 41.33,7.23 85.5,-1.34 122.61,-27.43 37.08,-26.08 60.04,-64.69 67.29,-106.11 7.18,-41.41 -1.4,-85.5 -27.41,-122.63 -26.09,-37.05 -64.77,-60.11 -106.11,-67.28 -41.4,-7.25 -85.58,1.33 -122.63,27.41 -37.13,26.11 -60.12,64.7 -67.36,106.12 z" /></g><path
           id="path32"
           style="fill:#ffffff;fill-opacity:1;fill-rule:evenodd;stroke:none"
           d="m 363.1225,642.1523 c -50.8231,0 -58.2565,-80.6595 -98.9821,-105.235 C 210.2408,504.372 117.3386,493.0278 108.1746,437.186 92.08793,339.1501 206.613,331.0794 324.7066,331.0794 c 118.0859,0 227.7723,54.3696 208.6595,152.157 -19.114,97.7773 -52.1513,158.9159 -170.2436,158.9159 z" /><g
           transform="matrix(0.12614,0,0,-0.1261447,72.01022,720)"
           id="g34"><path
             id="path36"
             style="fill:none;stroke:#000000;stroke-width:11.89103031;stroke-linecap:butt;stroke-linejoin:miter;stroke-miterlimit:4;stroke-dasharray:none;stroke-opacity:1"
             d="m 2307.85,617.13 c -402.91,0 -461.84,639.42 -784.7,834.24 -427.3,258 -1163.8,347.93 -1236.45,790.61 -127.53,777.17 780.39,841.15 1716.6,841.15 936.15,0 1805.71,-431.01 1654.19,-1206.21 C 3505.96,1101.8 3244.05,617.13 2307.85,617.13 Z" /></g><path
           id="path38"
           style="fill:#ffffff;fill-opacity:1;fill-rule:evenodd;stroke:none"
           d="m 207.1352,464.8231 c 6.1847,0.584 9.2637,-1.4633 -5.6384,-13.3941 -7.1926,-5.7572 -24.967,-18.2456 -34.0402,-21.0737 -14.1819,-4.4151 -34.2722,-4.2322 -44.5691,-2.3766 -8.1953,1.4633 -3.2102,10.5987 5.0116,14.2077 24.4888,10.74 -29.72996,3.8865 -27.5755,23.2119 0.5676,5.0647 10.8127,5.7471 17.642,7.5207 7.6087,1.9692 3.5924,8.535 -0.1602,11.6634 -7.2644,6.0499 -17.2333,10.1925 -13.41,20.2323 4.6912,12.3559 14.7584,-0.8514 21.4274,12.9942 2.5455,5.2779 -0.4339,16.5527 -1.3812,21.9782 -2.0069,11.4691 3.6871,26.1738 13.6736,26.831 10.4557,0.6837 7.2543,-15.8325 12.3011,-21.6679 10.1581,-11.7617 12.5497,11.2559 21.9509,8.5236 16.677,-4.8414 0.3381,-28.4709 -1.1352,-33.5268 -0.9991,-3.4323 -0.3192,-5.9704 5.1705,-4.4705 6.1909,1.6941 14.1112,13.7308 19.0345,10.5368 19.5328,-12.6296 -15.0422,-31.9751 -14.1353,-37.5091 1.1328,-6.8383 14.9085,6.2631 23.6538,6.3249 14.0924,0.0959 -2.0876,-16.3118 -10.7068,-24.081 -14.9248,-13.4647 8.0024,-6.3956 12.8865,-5.925 z" /><g
           transform="matrix(0.12614,0,0,-0.1261447,72.01022,720)"
           id="g40"><path
             id="path42"
             style="fill:none;stroke:#000000;stroke-width:11.89103031;stroke-linecap:butt;stroke-linejoin:miter;stroke-miterlimit:4;stroke-dasharray:none;stroke-opacity:1"
             d="m 1071.23,2022.89 c 49.03,-4.63 73.44,11.6 -44.7,106.18 -57.02,45.64 -197.93,144.64 -269.86,167.06 -112.43,35 -271.7,33.55 -353.33,18.84 -64.97,-11.6 -25.45,-84.02 39.73,-112.63 194.14,-85.14 -235.69,-30.81 -218.61,-184.01 4.5,-40.15 85.72,-45.56 139.86,-59.62 60.32,-15.61 28.48,-67.66 -1.27,-92.46 -57.59,-47.96 -136.62,-80.8 -106.31,-160.39 37.19,-97.95 117,6.75 169.87,-103.01 20.18,-41.84 -3.44,-131.22 -10.95,-174.23 -15.91,-90.92 29.23,-207.49 108.4,-212.7 82.89,-5.42 57.51,125.51 97.52,171.77 80.53,93.24 99.49,-89.23 174.02,-67.57 132.21,38.38 2.68,225.7 -9,265.78 -7.92,27.21 -2.53,47.33 40.99,35.44 49.08,-13.43 111.87,-108.85 150.9,-83.53 154.85,100.12 -119.25,253.48 -112.06,297.35 8.98,54.21 118.19,-49.65 187.52,-50.14 111.72,-0.76 -16.55,129.31 -84.88,190.9 -118.32,106.74 63.44,50.7 102.16,46.97 z" /></g><path
           id="path44"
           style="fill:#ffffff;fill-opacity:1;fill-rule:evenodd;stroke:none"
           d="m 134.3297,557.7678 c -0.0807,0.6824 0.5058,1.3119 1.303,1.4178 0.7998,0.0984 1.5162,-0.3809 1.597,-1.0646 1.9324,-16.2752 4.9951,-33.4372 9.188,-51.4873 7.1307,8.3458 12.7364,15.9561 16.8006,22.8385 4.3884,7.4148 6.9617,13.9428 7.7412,19.584 0.0908,0.6837 0.8161,1.1984 1.6159,1.1454 0.7972,-0.0542 1.3648,-0.6484 1.2677,-1.3397 -0.8162,-5.9515 -3.4954,-12.7721 -8.0364,-20.4543 -4.425,-7.4766 -10.6311,-15.8135 -18.6347,-25.0019 0.3393,-1.4292 0.6837,-2.8572 1.0382,-4.2927 1.4985,-6.1029 3.1307,-12.3117 4.8891,-18.6278 0.0139,-0.0341 0.024,-0.0795 0.024,-0.1249 0.6925,-2.456 1.3939,-4.9222 2.1103,-7.4135 4.5777,12.675 13.251,20.6738 21.2143,28.0092 7.335,6.75 14.0406,12.9235 16.0122,21.6502 0.1488,0.6749 0.912,1.1441 1.7029,1.0394 0.7846,-0.0984 1.3017,-0.7367 1.1441,-1.4204 -2.1394,-9.4634 -9.1288,-15.903 -16.7641,-22.9356 -8.5939,-7.9118 -18.0506,-16.6208 -21.8525,-31.2827 1.5049,-5.0735 3.093,-10.1988 4.7505,-15.3984 4.7365,6.041 10.3788,12.125 16.9154,18.2632 7.359,6.9089 15.8923,13.8898 25.5774,20.9489 0.6244,0.4516 1.5427,0.4074 2.0485,-0.1161 0.5071,-0.5134 0.4049,-1.3031 -0.222,-1.7648 -9.5602,-6.9619 -17.9952,-13.8721 -25.2949,-20.718 -7.0954,-6.6541 -13.1009,-13.2426 -18.0128,-19.753 1.7647,-5.4091 3.6114,-10.8913 5.5338,-16.4429 0.2233,-0.6573 -0.2119,-1.3675 -0.9839,-1.5882 -0.772,-0.222 -1.5793,0.1249 -1.8089,0.7808 -1.9879,5.7308 -3.8863,11.3884 -5.6939,16.9766 -0.0189,0.0366 -0.0353,0.0807 -0.0442,0.116 -0.7543,2.3324 -1.4909,4.6485 -2.2162,6.9632 -11.3716,-0.3027 -21.3127,0.1855 -29.8271,1.4444 -8.8702,1.3131 -16.2216,3.4778 -22.0506,6.4927 -0.6735,0.3557 -0.8703,1.1189 -0.4351,1.713 0.4427,0.5942 1.3408,0.7897 2.0157,0.444 5.5236,-2.8572 12.5471,-4.9221 21.0805,-6.1823 8.1423,-1.2072 17.623,-1.6942 28.4433,-1.4457 -0.9107,2.9443 -1.8,5.8633 -2.6615,8.7633 -0.0164,0.0518 -0.0328,0.106 -0.0429,0.1678 -1.1555,3.8676 -2.2605,7.6986 -3.315,11.5044 -14.3257,5.3662 -28.7296,13.7208 -43.2055,25.0385 -0.584,0.4617 -0.6017,1.2501 -0.0454,1.7748 0.5588,0.5147 1.4822,0.5677 2.0586,0.1047 13.5424,-10.5886 26.9814,-18.5281 40.327,-23.8047 -1.4985,5.4734 -2.9,10.8825 -4.2118,16.2133 -0.3999,1.6059 -0.7783,3.2029 -1.1592,4.7986 -0.0202,0.0353 -0.0202,0.0706 -0.0278,0.1161 -4.5322,19.1311 -7.8131,37.2517 -9.8465,54.3532 h -0.006 v -0.003 z" /><g
           transform="matrix(0.12614,0,0,-0.1261447,72.01022,720)"
           id="g46"><path
             id="path48"
             style="fill:none;stroke:#000000;stroke-width:11.89103031;stroke-linecap:butt;stroke-linejoin:miter;stroke-miterlimit:4;stroke-dasharray:none;stroke-opacity:1"
             d="m 494.05,1286.08 c -0.64,-5.41 4.01,-10.4 10.33,-11.24 6.34,-0.78 12.02,3.02 12.66,8.44 15.32,129.02 39.6,265.07 72.84,408.16 56.53,-66.16 100.97,-126.49 133.19,-181.05 34.79,-58.78 55.19,-110.53 61.37,-155.25 0.72,-5.42 6.47,-9.5 12.81,-9.08 6.32,0.43 10.82,5.14 10.05,10.62 -6.47,47.18 -27.71,101.25 -63.71,162.15 -35.08,59.27 -84.28,125.36 -147.73,198.2 2.69,11.33 5.42,22.65 8.23,34.03 11.88,48.38 24.82,97.6 38.76,147.67 0.11,0.27 0.19,0.63 0.19,0.99 5.49,19.47 11.05,39.02 16.73,58.77 36.29,-100.48 105.05,-163.89 168.18,-222.04 58.15,-53.51 111.31,-102.45 126.94,-171.63 1.18,-5.35 7.23,-9.07 13.5,-8.24 6.22,0.78 10.32,5.84 9.07,11.26 -16.96,75.02 -72.37,126.07 -132.9,181.82 -68.13,62.72 -143.1,131.76 -173.24,247.99 11.93,40.22 24.52,80.85 37.66,122.07 37.55,-47.89 82.28,-96.12 134.1,-144.78 58.34,-54.77 125.99,-110.11 202.77,-166.07 4.95,-3.58 12.23,-3.23 16.24,0.92 4.02,4.07 3.21,10.33 -1.76,13.99 -75.79,55.19 -142.66,109.97 -200.53,164.24 -56.25,52.75 -103.86,104.98 -142.8,156.59 13.99,42.88 28.63,86.34 43.87,130.35 1.77,5.21 -1.68,10.84 -7.8,12.59 -6.12,1.76 -12.52,-0.99 -14.34,-6.19 -15.76,-45.43 -30.81,-90.28 -45.14,-134.58 -0.15,-0.29 -0.28,-0.64 -0.35,-0.92 -5.98,-18.49 -11.82,-36.85 -17.57,-55.2 -90.15,2.4 -168.96,-1.47 -236.46,-11.45 -70.32,-10.41 -128.6,-27.57 -174.81,-51.47 -5.34,-2.82 -6.9,-8.87 -3.45,-13.58 3.51,-4.71 10.63,-6.26 15.98,-3.52 43.79,22.65 99.47,39.02 167.12,49.01 64.55,9.57 139.71,13.43 225.49,11.46 -7.22,-23.34 -14.27,-46.48 -21.1,-69.47 -0.13,-0.41 -0.26,-0.84 -0.34,-1.33 -9.16,-30.66 -17.92,-61.03 -26.28,-91.2 -113.57,-42.54 -227.76,-108.77 -342.52,-198.49 -4.63,-3.66 -4.77,-9.91 -0.36,-14.07 4.43,-4.08 11.75,-4.5 16.32,-0.83 107.36,83.94 213.9,146.88 319.7,188.71 -11.88,-43.39 -22.99,-86.27 -33.39,-128.53 -3.17,-12.73 -6.17,-25.39 -9.19,-38.04 -0.16,-0.28 -0.16,-0.56 -0.22,-0.92 -35.93,-151.66 -61.94,-295.31 -78.06,-430.88 h -0.05 z" /></g><path
           id="path50"
           style="fill:#ffffff;fill-opacity:1;fill-rule:evenodd;stroke:none"
           d="m 120.3811,356.7725 c -5.0405,-3.5383 -5.8377,-7.4148 13.9574,-8.3281 9.5614,-0.4427 31.9046,0.0265 40.7281,3.4513 13.7934,5.3574 28.6199,18.7414 34.9446,27.1855 5.038,6.7147 -5.3307,11.6533 -14.0848,9.4911 -26.0832,-6.4573 19.3184,23.0517 3.619,39.0267 -4.1059,4.1766 -12.2394,-1.9514 -18.6259,-4.8515 -7.113,-3.2382 -8.8928,5.3119 -8.382,10.5987 1.0054,10.2265 5.4114,20.506 -4.7529,27.024 -12.503,8.019 -10.3687,-10.4839 -25.4463,-2.4208 -5.7381,3.078 -11.7335,15.1752 -14.9804,20.6752 -6.8733,11.6355 -21.8272,21.1191 -29.74882,15.1399 -8.29119,-6.2631 6.13802,-19.0176 6.62492,-27.5854 1.0053,-17.2679 -17.56,1.8543 -22.57029,-6.7765 -8.89665,-15.3341 20.50659,-25.8369 25.28599,-29.4106 3.2481,-2.4321 4.5865,-5.1707 -0.5903,-7.4249 -5.8542,-2.5545 -20.5255,3.0502 -21.8752,-3.0515 -5.33824,-24.2223 34.5195,-18.8573 37.8836,-24.4355 4.14,-6.9013 -15.6754,-4.1766 -22.2347,-9.8796 -10.57428,-9.1884 13.4428,-13.2957 25.5346,-14.6177 20.9279,-2.2794 -1.3081,-11.0162 -5.2866,-13.8103 z" /><g
           transform="matrix(0.12614,0,0,-0.1261447,72.01022,720)"
           id="g52"><path
             id="path54"
             style="fill:none;stroke:#000000;stroke-width:11.89103031;stroke-linecap:butt;stroke-linejoin:miter;stroke-miterlimit:4;stroke-dasharray:none;stroke-opacity:1"
             d="m 383.47,2879.45 c -39.96,28.05 -46.28,58.78 110.65,66.02 75.8,3.51 252.93,-0.21 322.88,-27.36 109.35,-42.47 226.89,-148.57 277.03,-215.51 39.94,-53.23 -42.26,-92.38 -111.66,-75.24 -206.78,51.19 153.15,-182.74 28.69,-309.38 -32.55,-33.11 -97.03,15.47 -147.66,38.46 -56.39,25.67 -70.5,-42.11 -66.45,-84.02 7.97,-81.07 42.9,-162.56 -37.68,-214.23 -99.12,-63.57 -82.2,83.11 -201.73,19.19 -45.49,-24.4 -93.02,-120.3 -118.76,-163.9 -54.49,-92.24 -173.04,-167.42 -235.84,-120.02 -65.73,49.65 48.66,150.76 52.52,218.68 7.97,136.89 -139.21,-14.7 -178.93,53.72 -70.53,121.56 162.57,204.82 200.46,233.15 25.75,19.28 36.36,40.99 -4.68,58.86 -46.41,20.25 -162.72,-24.18 -173.42,24.19 -42.32,192.02 273.66,149.49 300.33,193.71 32.82,54.71 -124.27,33.11 -176.27,78.32 -83.83,72.84 106.57,105.4 202.43,115.88 165.91,18.07 -10.37,87.33 -41.91,109.48 z" /></g><path
           id="path56"
           style="fill:#ffffff;fill-opacity:1;fill-rule:evenodd;stroke:none"
           d="m 106.8791,488.291 c -0.4352,0.6648 -1.3308,0.8515 -2.0031,0.4176 -0.6648,-0.4428 -0.8514,-1.3397 -0.4163,-2.0057 10.4205,-15.9119 20.6555,-33.3666 30.6874,-52.3564 -11.3968,2.8105 -21.1184,5.9692 -29.1598,9.481 -8.67718,3.7869 -15.36386,7.9636 -20.04492,12.5249 -0.57646,0.5576 -1.49223,0.5399 -2.0422,-0.0277 -0.5588,-0.5765 -0.54241,-1.4898 0.02522,-2.0385 4.95226,-4.8162 11.92024,-9.1897 20.8964,-13.1102 8.7528,-3.8222 19.4596,-7.2281 32.1165,-10.2342 0.7884,-1.5074 1.5704,-3.0161 2.3525,-4.5412 3.3326,-6.4762 6.6488,-13.1367 9.9411,-19.9662 0.0164,-0.0441 0.034,-0.087 0.0618,-0.1324 1.2854,-2.6604 2.5619,-5.3485 3.8397,-8.0531 -12.6481,8.3899 -24.9492,9.8633 -36.2312,11.2193 -10.3851,1.2514 -19.88346,2.3943 -27.70666,8.9412 -0.61052,0.5134 -1.51621,0.4263 -2.03086,-0.1779 -0.50708,-0.6118 -0.42635,-1.5251 0.18669,-2.0309 8.4867,-7.1146 18.38493,-8.3029 29.21403,-9.6047 12.1687,-1.4645 25.5598,-3.0704 39.087,-13.7498 2.5695,-5.5529 5.1251,-11.2193 7.6731,-16.9841 -7.9317,2.3148 -16.5697,4.0884 -25.9155,5.2956 -10.52,1.3648 -21.9597,2.0385 -34.3264,2.0132 -0.7998,-0.0101 -1.4431,-0.6484 -1.4431,-1.4456 0,-0.7997 0.6433,-1.4456 1.4431,-1.4456 12.2128,0.0265 23.5301,-0.6383 33.9505,-1.9868 10.1379,-1.322 19.4155,-3.2911 27.824,-5.9162 2.6363,-6.031 5.2601,-12.1692 7.8661,-18.4297 0.3103,-0.7367 1.1542,-1.0912 1.8896,-0.7809 0.7366,0.3103 1.0911,1.1543 0.7808,1.8897 -2.6956,6.4573 -5.4013,12.7986 -8.1234,19.0163 -0.0189,0.0442 -0.0366,0.0896 -0.0606,0.1325 -1.1365,2.5998 -2.2705,5.1706 -3.4146,7.7251 8.6898,7.2116 15.7398,14.1912 21.1676,20.9324 5.651,7.0162 9.5538,13.8003 11.6881,20.3459 0.2523,0.7619 -0.1577,1.5781 -0.9208,1.8266 -0.7543,0.2485 -1.5679,-0.1678 -1.8202,-0.9221 -2.0296,-6.2089 -5.7621,-12.6927 -11.1975,-19.4427 -5.1919,-6.4385 -11.9051,-13.1077 -20.142,-20.0091 -1.4658,3.2369 -2.9365,6.4473 -4.4111,9.6311 -0.0252,0.0543 -0.0505,0.1161 -0.0795,0.1779 -1.9678,4.2385 -3.9356,8.4177 -5.9248,12.5237 6.7674,14.2619 11.4144,31.2473 13.9423,50.9637 0.0984,0.7897 -0.4604,1.5163 -1.2501,1.6159 -0.7984,0.0959 -1.5174,-0.4617 -1.6234,-1.2513 -2.3677,-18.4399 -6.5984,-34.4237 -12.6909,-47.9578 -2.8735,5.915 -5.7735,11.6987 -8.6734,17.3588 -0.878,1.703 -1.7572,3.3958 -2.6351,5.0723 -0.0252,0.0454 -0.0442,0.0896 -0.0706,0.1236 -10.5617,20.1945 -21.3215,38.6533 -32.2755,55.3725 z" /><g
           transform="matrix(0.12614,0,0,-0.1261447,72.01022,720)"
           id="g58"><path
             id="path60"
             style="fill:none;stroke:#000000;stroke-width:11.89103031;stroke-linecap:butt;stroke-linejoin:miter;stroke-miterlimit:4;stroke-dasharray:none;stroke-opacity:1"
             d="m 276.43,1836.85 c -3.45,-5.27 -10.55,-6.75 -15.88,-3.31 -5.27,3.51 -6.75,10.62 -3.3,15.9 82.61,126.14 163.75,264.51 243.28,415.05 -90.35,-22.28 -167.42,-47.32 -231.17,-75.16 -68.79,-30.02 -121.8,-63.13 -158.91,-99.29 -4.57,-4.42 -11.83,-4.28 -16.19,0.22 -4.43,4.57 -4.3,11.81 0.2,16.16 39.26,38.18 94.5,72.85 165.66,103.93 69.39,30.3 154.27,57.3 254.61,81.13 6.25,11.95 12.45,23.91 18.65,36 26.42,51.34 52.71,104.14 78.81,158.28 0.13,0.35 0.27,0.69 0.49,1.05 10.19,21.09 20.31,42.4 30.44,63.84 -100.27,-66.51 -197.79,-78.19 -287.23,-88.94 -82.33,-9.92 -157.63,-18.98 -219.65,-70.88 -4.84,-4.07 -12.02,-3.38 -16.1,1.41 -4.02,4.85 -3.38,12.09 1.48,16.1 67.28,56.4 145.75,65.82 231.6,76.14 96.47,11.61 202.63,24.34 309.87,109 20.37,44.02 40.63,88.94 60.83,134.64 -62.88,-18.35 -131.36,-32.41 -205.45,-41.98 -83.4,-10.82 -174.09,-16.16 -272.13,-15.96 -6.34,0.08 -11.44,5.14 -11.44,11.46 0,6.34 5.1,11.46 11.44,11.46 96.82,-0.21 186.54,5.06 269.15,15.75 80.37,10.48 153.92,26.09 220.58,46.9 20.9,47.81 41.7,96.47 62.36,146.1 2.46,5.84 9.15,8.65 14.98,6.19 5.84,-2.46 8.65,-9.15 6.19,-14.98 -21.37,-51.19 -42.82,-101.46 -64.4,-150.75 -0.15,-0.35 -0.29,-0.71 -0.48,-1.05 -9.01,-20.61 -18,-40.99 -27.07,-61.24 68.89,-57.17 124.78,-112.5 167.81,-165.94 44.8,-55.62 75.74,-109.4 92.66,-161.29 2,-6.04 -1.25,-12.51 -7.3,-14.48 -5.98,-1.97 -12.43,1.33 -14.43,7.31 -16.09,49.22 -45.68,100.62 -88.77,154.13 -41.16,51.04 -94.38,103.91 -159.68,158.62 -11.62,-25.66 -23.28,-51.11 -34.97,-76.35 -0.2,-0.43 -0.4,-0.92 -0.63,-1.41 -15.6,-33.6 -31.2,-66.73 -46.97,-99.28 53.65,-113.06 90.49,-247.71 110.53,-404.01 0.78,-6.26 -3.65,-12.02 -9.91,-12.81 -6.33,-0.76 -12.03,3.66 -12.87,9.92 -18.77,146.18 -52.31,272.89 -100.61,380.18 -22.78,-46.89 -45.77,-92.74 -68.76,-137.61 -6.96,-13.5 -13.93,-26.92 -20.89,-40.21 -0.2,-0.36 -0.35,-0.71 -0.56,-0.98 -83.73,-160.09 -169.03,-306.42 -255.87,-438.96 z" /></g><path
           id="path62"
           style="fill:#ffffff;fill-opacity:1;fill-rule:evenodd;stroke:none"
           d="m 190.2968,683.8835 h 209.7305 c 16.3704,0 29.764,-13.394 29.764,-29.7664 V 365.8196 c 0,-16.3736 -13.3936,-29.7752 -29.764,-29.7752 H 190.2968 c -16.3755,0 -29.7665,13.4016 -29.7665,29.7752 v 288.2975 c 0,16.3736 13.391,29.7664 29.7665,29.7664 z" /><g
           transform="matrix(0.12614,0,0,-0.1261447,72.01022,720)"
           id="g64"><path
             id="path66"
             style="fill:none;stroke:#000000;stroke-width:11.89103031;stroke-linecap:butt;stroke-linejoin:miter;stroke-miterlimit:4;stroke-dasharray:none;stroke-opacity:1"
             d="m 937.74,286.31 h 1662.68 c 129.78,0 235.96,106.18 235.96,235.97 v 2285.45 c 0,129.8 -106.18,236.04 -235.96,236.04 H 937.74 c -129.82,0 -235.98,-106.24 -235.98,-236.04 V 522.28 c 0,-129.8 106.16,-235.97 235.98,-235.97 z" /></g><path
           id="path68"
           style="fill:#ffffff;fill-opacity:1;fill-rule:evenodd;stroke:none"
           d="m 190.2968,675.4659 h 209.7305 c 11.7411,0 21.3467,-9.606 21.3467,-21.3488 V 365.8196 c 0,-11.7516 -9.6056,-21.3576 -21.3467,-21.3576 H 190.2968 c -11.7437,0 -21.3593,9.606 -21.3593,21.3576 v 288.2975 c 0,11.7428 9.6156,21.3488 21.3593,21.3488 z" /><g
           transform="matrix(0.12614,0,0,-0.1261447,72.01022,720)"
           id="g70"><path
             id="path72"
             style="fill:none;stroke:#000000;stroke-width:11.89103031;stroke-linecap:butt;stroke-linejoin:miter;stroke-miterlimit:4;stroke-dasharray:none;stroke-opacity:1"
             d="m 937.74,353.04 h 1662.68 c 93.08,0 169.23,76.15 169.23,169.24 v 2285.45 c 0,93.16 -76.15,169.31 -169.23,169.31 H 937.74 c -93.1,0 -169.33,-76.15 -169.33,-169.31 V 522.28 c 0,-93.09 76.23,-169.24 169.33,-169.24 z" /></g><path
           id="path74"
           style="fill:#ffffff;fill-opacity:1;fill-rule:evenodd;stroke:none"
           d="M 173.8355,660.7422 381.906,677.1158 405.2407,380.6239 197.1777,364.2415 Z" /><g
           transform="matrix(0.12614,0,0,-0.1261447,72.01022,720)"
           id="g76"><path
             id="path78"
             style="fill:none;stroke:#000000;stroke-width:11.89103031;stroke-linecap:butt;stroke-linejoin:miter;stroke-miterlimit:4;stroke-dasharray:none;stroke-opacity:1"
             d="M 807.24,469.76 2456.76,339.96 2641.75,2690.37 992.29,2820.24 Z" /></g><path
           id="path80"
           style="fill:#ffffff;fill-opacity:1;fill-rule:evenodd;stroke:none"
           d="m 279.3504,650.1171 93.3133,7.3441 1.901,-24.081 -93.3159,-7.3416 z" /><g
           transform="matrix(0.12614,0,0,-0.1261447,72.01022,720)"
           id="g82"><path
             id="path84"
             style="fill:none;stroke:#000000;stroke-width:11.89103031;stroke-linecap:butt;stroke-linejoin:miter;stroke-miterlimit:4;stroke-dasharray:none;stroke-opacity:1"
             d="m 1643.73,553.99 739.76,-58.22 15.07,190.9 -739.78,58.2 z" /></g><path
           id="path86"
           style="fill:#ffffff;fill-opacity:1;fill-rule:evenodd;stroke:none"
           d="m 283.6354,605.5022 82.7579,6.5368 c 2.1734,0.1779 4.2673,-1.4633 4.2673,-3.6355 0,-2.181 -1.4708,-4.0883 -3.6454,-4.2662 l -82.758,-6.5381 c -2.1746,-0.1677 -4.2698,1.4646 -4.2698,3.6456 -10e-4,2.1735 1.4746,4.0896 3.648,4.2574 z m 1.1075,-14.0752 31.371,2.4926 c 2.1747,0.1779 4.0895,-1.4633 4.2572,-3.638 0.1678,-2.1722 -1.472,-4.0884 -3.6353,-4.2625 L 285.366,583.524 c -2.1721,-0.1678 -4.0907,1.4734 -4.2673,3.6456 -0.169,2.1722 1.472,4.0896 3.6442,4.2574 z" /><g
           transform="matrix(0.12614,0,0,-0.1261447,72.01022,720)"
           id="g88"><path
             id="path90"
             style="fill:none;stroke:#000000;stroke-width:11.89103031;stroke-linecap:butt;stroke-linejoin:miter;stroke-miterlimit:4;stroke-dasharray:none;stroke-opacity:1"
             d="m 1677.7,907.67 656.08,-51.82 c 17.23,-1.41 33.83,11.6 33.83,28.82 0,17.29 -11.66,32.41 -28.9,33.82 l -656.08,51.83 c -17.24,1.33 -33.85,-11.61 -33.85,-28.9 -0.01,-17.23 11.69,-32.42 28.92,-33.75 z m 8.78,111.58 248.7,-19.76 c 17.24,-1.41 32.42,11.6 33.75,28.84 1.33,17.22 -11.67,32.41 -28.82,33.79 l -248.69,19.78 c -17.22,1.33 -32.43,-11.68 -33.83,-28.9 -1.34,-17.22 11.67,-32.42 28.89,-33.75 z" /></g><path
           id="path92"
           style="fill:#ffffff;fill-opacity:1;fill-rule:evenodd;stroke:none"
           d="m 198.3483,560.9592 23.708,1.8644 1.8631,-23.7088 -23.6967,-1.8619 z" /><g
           transform="matrix(0.12614,0,0,-0.1261447,72.01022,720)"
           id="g94"><path
             id="path96"
             style="fill:none;stroke:#000000;stroke-width:11.89103031;stroke-linecap:butt;stroke-linejoin:miter;stroke-miterlimit:4;stroke-dasharray:none;stroke-opacity:1"
             d="m 1001.57,1260.78 187.95,-14.78 14.77,187.95 -187.86,14.76 z" /></g><path
           id="path98"
           style="fill:#ffffff;fill-opacity:1;fill-rule:evenodd;stroke:none"
           d="m 240.7402,563.4254 128.6868,10.1281 c 2.1721,0.1691 4.0882,-1.4708 4.2572,-3.6456 0.1678,-2.1722 -1.4645,-4.0883 -3.6379,-4.2561 L 241.3658,555.5211 c -2.1759,-0.1677 -4.0907,1.4633 -4.2572,3.638 -0.1715,2.1723 1.4607,4.0985 3.6316,4.2663 z m 1.1113,-14.0765 77.2885,6.0865 c 2.1734,0.1665 4.0844,-1.4747 4.2648,-3.6456 0.1703,-2.1735 -1.4721,-4.0871 -3.6455,-4.2574 l -77.286,-6.084 c -2.1721,-0.169 -4.0882,1.4633 -4.2559,3.6355 -0.1703,2.1722 1.4645,4.0972 3.6341,4.265 z" /><g
           transform="matrix(0.12614,0,0,-0.1261447,72.01022,720)"
           id="g100"><path
             id="path102"
             style="fill:none;stroke:#000000;stroke-width:11.89103031;stroke-linecap:butt;stroke-linejoin:miter;stroke-miterlimit:4;stroke-dasharray:none;stroke-opacity:1"
             d="m 1337.64,1241.23 1020.19,-80.29 c 17.22,-1.34 32.41,11.66 33.75,28.9 1.33,17.22 -11.61,32.41 -28.84,33.74 l -1020.14,80.31 c -17.25,1.33 -32.43,-11.6 -33.75,-28.84 -1.36,-17.22 11.58,-32.49 28.79,-33.82 z m 8.81,111.59 612.72,-48.25 c 17.23,-1.32 32.38,11.69 33.81,28.9 1.35,17.23 -11.67,32.4 -28.9,33.75 l -612.7,48.23 c -17.22,1.34 -32.41,-11.6 -33.74,-28.82 -1.35,-17.22 11.61,-32.48 28.81,-33.81 z" /></g><path
           id="path104"
           style="fill:#ffffff;fill-opacity:1;fill-rule:evenodd;stroke:none"
           d="m 201.382,522.4662 23.6979,1.8619 1.8706,-23.6989 -23.708,-1.8719 z" /><g
           transform="matrix(0.12614,0,0,-0.1261447,72.01022,720)"
           id="g106"><path
             id="path108"
             style="fill:none;stroke:#000000;stroke-width:11.89103031;stroke-linecap:butt;stroke-linejoin:miter;stroke-miterlimit:4;stroke-dasharray:none;stroke-opacity:1"
             d="m 1025.62,1565.93 187.87,-14.76 14.83,187.87 -187.95,14.84 z" /></g><path
           id="path110"
           style="fill:#ffffff;fill-opacity:1;fill-rule:evenodd;stroke:none"
           d="m 243.7764,524.931 128.6742,10.1307 c 2.1734,0.1766 4.0894,-1.4645 4.2673,-3.638 0.1677,-2.1722 -1.4696,-4.0896 -3.6429,-4.2675 L 244.3995,517.0293 c -2.1759,-0.169 -4.0907,1.4709 -4.2572,3.6443 -0.1791,2.1735 1.4607,4.0897 3.6341,4.2574 z m 1.1087,-14.0752 77.2898,6.0827 c 2.1721,0.169 4.0832,-1.4633 4.256,-3.6342 0.1665,-2.1748 -1.4658,-4.0896 -3.6379,-4.2675 l -77.2885,-6.084 c -2.1722,-0.1677 -4.0882,1.4721 -4.2648,3.6444 -0.169,2.1747 1.4695,4.0896 3.6454,4.2586 z" /><g
           transform="matrix(0.12614,0,0,-0.1261447,72.01022,720)"
           id="g112"><path
             id="path114"
             style="fill:none;stroke:#000000;stroke-width:11.89103031;stroke-linecap:butt;stroke-linejoin:miter;stroke-miterlimit:4;stroke-dasharray:none;stroke-opacity:1"
             d="m 1361.71,1546.39 1020.09,-80.31 c 17.23,-1.4 32.42,11.61 33.83,28.84 1.33,17.22 -11.65,32.42 -28.88,33.83 l -1020.1,80.28 c -17.25,1.34 -32.43,-11.66 -33.75,-28.89 -1.42,-17.23 11.58,-32.42 28.81,-33.75 z m 8.79,111.58 612.73,-48.22 c 17.22,-1.34 32.37,11.6 33.74,28.81 1.32,17.24 -11.62,32.42 -28.84,33.83 l -612.72,48.23 c -17.22,1.33 -32.41,-11.67 -33.81,-28.89 -1.34,-17.24 11.65,-32.42 28.9,-33.76 z" /></g><path
           id="path116"
           style="fill:#ffffff;fill-opacity:1;fill-rule:evenodd;stroke:none"
           d="m 204.4055,483.9718 23.7093,1.8708 1.8606,-23.7089 -23.6992,-1.8607 z" /><g
           transform="matrix(0.12614,0,0,-0.1261447,72.01022,720)"
           id="g118"><path
             id="path120"
             style="fill:none;stroke:#000000;stroke-width:11.89103031;stroke-linecap:butt;stroke-linejoin:miter;stroke-miterlimit:4;stroke-dasharray:none;stroke-opacity:1"
             d="m 1049.59,1871.09 187.96,-14.83 14.75,187.95 -187.88,14.75 z" /></g><path
           id="path122"
           style="fill:#ffffff;fill-opacity:1;fill-rule:evenodd;stroke:none"
           d="m 246.8012,486.4468 128.6843,10.1281 c 2.1734,0.1678 4.0882,-1.4733 4.2572,-3.6455 0.1766,-2.1735 -1.4657,-4.0884 -3.6379,-4.2574 L 247.4319,478.5438 c -2.1747,-0.1677 -4.0996,1.4646 -4.2661,3.6355 -0.1702,2.1747 1.462,4.0896 3.6354,4.2675 z m 1.1088,-14.0752 77.2885,6.0827 c 2.1721,0.169 4.0882,-1.4709 4.2648,-3.6456 0.1678,-2.1722 -1.4733,-4.0884 -3.6442,-4.2561 l -77.2885,-6.0865 c -2.1721,-0.1665 -4.0882,1.4645 -4.256,3.638 -0.1678,2.1735 1.462,4.0896 3.6354,4.2675 z" /><g
           transform="matrix(0.12614,0,0,-0.1261447,72.01022,720)"
           id="g124"><path
             id="path126"
             style="fill:none;stroke:#000000;stroke-width:11.89103031;stroke-linecap:butt;stroke-linejoin:miter;stroke-miterlimit:4;stroke-dasharray:none;stroke-opacity:1"
             d="m 1385.69,1851.47 1020.17,-80.29 c 17.23,-1.33 32.41,11.68 33.75,28.9 1.4,17.23 -11.62,32.41 -28.84,33.75 l -1020.08,80.29 c -17.24,1.33 -32.5,-11.61 -33.82,-28.82 -1.35,-17.24 11.59,-32.42 28.82,-33.83 z m 8.79,111.58 612.72,-48.22 c 17.22,-1.34 32.41,11.66 33.81,28.9 1.33,17.22 -11.68,32.41 -28.89,33.74 l -612.72,48.25 c -17.22,1.32 -32.41,-11.61 -33.74,-28.84 -1.33,-17.23 11.59,-32.42 28.82,-33.83 z" /></g><path
           id="path128"
           style="fill:#ffffff;fill-opacity:1;fill-rule:evenodd;stroke:none"
           d="m 207.4392,445.4876 23.6979,1.8632 1.8707,-23.7001 -23.7055,-1.8708 z" /><g
           transform="matrix(0.12614,0,0,-0.1261447,72.01022,720)"
           id="g130"><path
             id="path132"
             style="fill:none;stroke:#000000;stroke-width:11.89103031;stroke-linecap:butt;stroke-linejoin:miter;stroke-miterlimit:4;stroke-dasharray:none;stroke-opacity:1"
             d="m 1073.64,2176.17 187.87,-14.77 14.83,187.88 -187.93,14.83 z" /></g><path
           id="path134"
           style="fill:#ffffff;fill-opacity:1;fill-rule:evenodd;stroke:none"
           d="m 249.8336,447.9525 128.6755,10.1281 c 2.1734,0.1691 4.0957,-1.4632 4.266,-3.6355 0.1678,-2.1734 -1.4657,-4.0896 -3.6353,-4.2662 L 250.4567,440.0482 c -2.1734,-0.1678 -4.0907,1.4734 -4.2572,3.6456 -0.1791,2.1748 1.462,4.0909 3.6341,4.2587 z m 1.1088,-14.0765 77.2898,6.0865 c 2.1708,0.1677 4.0869,-1.4646 4.2534,-3.6381 0.1791,-2.1722 -1.462,-4.0971 -3.6341,-4.2662 l -77.2873,-6.084 c -2.1733,-0.169 -4.0894,1.4709 -4.2572,3.6456 -0.1753,2.1723 1.462,4.0871 3.6354,4.2562 z" /><g
           transform="matrix(0.12614,0,0,-0.1261447,72.01022,720)"
           id="g136"><path
             id="path138"
             style="fill:none;stroke:#000000;stroke-width:11.89103031;stroke-linecap:butt;stroke-linejoin:miter;stroke-miterlimit:4;stroke-dasharray:none;stroke-opacity:1"
             d="m 1409.73,2156.63 1020.1,-80.29 c 17.23,-1.34 32.47,11.6 33.82,28.82 1.33,17.23 -11.62,32.42 -28.82,33.82 l -1020.16,80.31 c -17.23,1.33 -32.43,-11.68 -33.75,-28.9 -1.42,-17.24 11.59,-32.43 28.81,-33.76 z m 8.79,111.59 612.73,-48.25 c 17.21,-1.33 32.4,11.61 33.72,28.84 1.42,17.22 -11.59,32.48 -28.81,33.82 l -612.71,48.23 c -17.23,1.34 -32.42,-11.66 -33.75,-28.9 -1.39,-17.22 11.59,-32.4 28.82,-33.74 z" /></g><path
           id="path140"
           style="fill:#ffffff;fill-opacity:1;fill-rule:evenodd;stroke:none"
           d="m 210.4615,406.9933 23.7106,1.872 1.8605,-23.7089 -23.6966,-1.8645 z" /><g
           transform="matrix(0.12614,0,0,-0.1261447,72.01022,720)"
           id="g142"><path
             id="path144"
             style="fill:none;stroke:#000000;stroke-width:11.89103031;stroke-linecap:butt;stroke-linejoin:miter;stroke-miterlimit:4;stroke-dasharray:none;stroke-opacity:1"
             d="m 1097.6,2481.33 187.97,-14.84 14.75,187.95 -187.86,14.78 z" /></g><path
           id="path146"
           style="fill:#ffffff;fill-opacity:1;fill-rule:evenodd;stroke:none"
           d="m 252.8673,409.467 128.6754,10.1307 c 2.1734,0.1677 4.0908,-1.4734 4.2572,-3.6456 0.1767,-2.1735 -1.4644,-4.0896 -3.6391,-4.2574 L 253.4904,401.5665 c -2.1759,-0.1779 -4.0894,1.4633 -4.2698,3.6355 -0.1678,2.1722 1.4733,4.0883 3.6467,4.265 z m 1.0987,-14.0753 77.2885,6.0764 c 2.1746,0.1766 4.0983,-1.4645 4.2648,-3.638 0.1728,-2.1722 -1.462,-4.0883 -3.6341,-4.2574 L 254.5979,387.49 c -2.1734,-0.1779 -4.097,1.4633 -4.266,3.6355 -0.1678,2.1735 1.4708,4.0884 3.6341,4.2662 z" /><g
           transform="matrix(0.12614,0,0,-0.1261447,72.01022,720)"
           id="g148"><path
             id="path150"
             style="fill:none;stroke:#000000;stroke-width:11.89103031;stroke-linecap:butt;stroke-linejoin:miter;stroke-miterlimit:4;stroke-dasharray:none;stroke-opacity:1"
             d="m 1433.78,2461.72 1020.1,-80.31 c 17.23,-1.33 32.43,11.68 33.75,28.9 1.4,17.23 -11.61,32.42 -28.85,33.75 l -1020.06,80.29 c -17.25,1.41 -32.42,-11.6 -33.85,-28.82 -1.33,-17.22 11.68,-32.41 28.91,-33.81 z m 8.71,111.58 612.72,-48.17 c 17.24,-1.4 32.49,11.61 33.81,28.84 1.37,17.22 -11.59,32.41 -28.81,33.75 l -612.71,48.22 c -17.23,1.41 -32.48,-11.6 -33.82,-28.82 -1.33,-17.23 11.66,-32.41 28.81,-33.82 z" /></g><path
           id="path152"
           style="fill:#ffffff;fill-opacity:1;fill-rule:evenodd;stroke:none"
           d="m 243.0687,697.0202 h 36.8758 v 7.7693 c 0,8.3634 6.8469,15.2105 15.21,15.2105 8.3731,0 15.22,-6.8471 15.22,-15.2105 v -7.7693 h 36.8758 c 5.0582,0 9.1994,-4.1426 9.1994,-9.1985 v -17.5063 c 0,-5.0584 -4.1412,-9.201 -9.1994,-9.201 H 243.0687 c -5.0683,0 -9.1994,4.1426 -9.1994,9.201 v 17.5063 c 0,5.0547 4.1324,9.1985 9.1994,9.1985 z m 52.087,13.8974 c 3.7161,0 6.7321,-3.0161 6.7321,-6.7324 0,-3.7162 -3.016,-6.731 -6.7321,-6.731 -3.7148,0 -6.7333,3.0148 -6.7333,6.731 -10e-4,3.7163 3.0185,6.7324 6.7333,6.7324 z" /><g
           transform="matrix(0.12614,0,0,-0.1261447,72.01022,720)"
           id="g154"><path
             id="path156"
             style="fill:none;stroke:#000000;stroke-width:11.89103031;stroke-linecap:butt;stroke-linejoin:miter;stroke-miterlimit:4;stroke-dasharray:none;stroke-opacity:1"
             d="m 1356.1,182.17 h 292.34 V 120.58 C 1648.44,54.28 1702.72,0 1769.02,0 c 66.38,0 120.66,54.28 120.66,120.58 v 61.59 h 292.34 c 40.1,0 72.93,32.84 72.93,72.92 v 138.78 c 0,40.1 -32.83,72.94 -72.93,72.94 H 1356.1 c -40.18,0 -72.93,-32.84 -72.93,-72.94 V 255.09 c 0,-40.07 32.76,-72.92 72.93,-72.92 z M 1769.03,72 c 29.46,0 53.37,23.91 53.37,53.37 0,29.46 -23.91,53.36 -53.37,53.36 -29.45,0 -53.38,-23.9 -53.38,-53.36 C 1715.64,95.91 1739.58,72 1769.03,72 Z" /></g><path
           id="path158"
           style="fill:#ffffff;fill-opacity:1;fill-rule:evenodd;stroke:none"
           d="m 198.0014,559.0557 c -0.8413,1.124 -0.6181,2.7197 0.5058,3.5623 1.1265,0.8427 2.7322,0.6207 3.5748,-0.5058 l 9.0544,-12.0796 21.3845,21.6679 c 0.9952,1.0028 2.6098,1.0129 3.6101,0.0264 1.0016,-0.9839 1.0192,-2.6061 0.0253,-3.609 l -23.4684,-23.7707 c -0.087,-0.0895 -0.1867,-0.169 -0.2838,-0.2485 -1.1265,-0.8426 -2.7297,-0.613 -3.5736,0.5059 z" /><g
           transform="matrix(0.12614,0,0,-0.1261447,72.01022,720)"
           id="g160"><path
             id="path162"
             style="fill:none;stroke:#000000;stroke-width:11.89103031;stroke-linecap:butt;stroke-linejoin:miter;stroke-miterlimit:4;stroke-dasharray:none;stroke-opacity:1"
             d="m 998.82,1275.87 c -6.67,-8.91 -4.9,-21.56 4.01,-28.24 8.93,-6.68 21.66,-4.92 28.34,4.01 l 71.78,95.76 169.53,-171.77 c 7.89,-7.95 20.69,-8.03 28.62,-0.21 7.94,7.8 8.08,20.66 0.2,28.61 l -186.05,188.44 c -0.69,0.71 -1.48,1.34 -2.25,1.97 -8.93,6.68 -21.64,4.86 -28.33,-4.01 z" /></g><path
           id="path164"
           style="fill:#ffffff;fill-opacity:1;fill-rule:evenodd;stroke:none"
           d="m 201.0262,520.5601 c -0.8413,1.1252 -0.6105,2.7222 0.5134,3.5737 1.1302,0.8426 2.7221,0.6118 3.5673,-0.5147 l 9.0543,-12.0708 21.3934,21.6578 c 0.9864,1.0029 2.5997,1.0205 3.6013,0.0366 1.0129,-0.994 1.0204,-2.6074 0.0353,-3.6103 L 215.7241,505.863 c -0.0858,-0.0908 -0.1867,-0.1779 -0.2927,-0.2485 -1.1251,-0.8528 -2.7208,-0.6206 -3.5659,0.5058 z" /><g
           transform="matrix(0.12614,0,0,-0.1261447,72.01022,720)"
           id="g166"><path
             id="path168"
             style="fill:none;stroke:#000000;stroke-width:11.89103031;stroke-linecap:butt;stroke-linejoin:miter;stroke-miterlimit:4;stroke-dasharray:none;stroke-opacity:1"
             d="m 1022.8,1581.04 c -6.67,-8.92 -4.84,-21.58 4.07,-28.33 8.96,-6.68 21.58,-4.85 28.28,4.08 l 71.78,95.69 169.6,-171.69 c 7.82,-7.95 20.61,-8.09 28.55,-0.29 8.03,7.88 8.09,20.67 0.28,28.62 l -186.04,188.43 c -0.68,0.72 -1.48,1.41 -2.32,1.97 -8.92,6.76 -21.57,4.92 -28.27,-4.01 z" /></g><path
           id="path170"
           style="fill:#ffffff;fill-opacity:1;fill-rule:evenodd;stroke:none"
           d="m 204.0599,482.0734 c -0.8413,1.1252 -0.6118,2.7234 0.5084,3.5661 1.1239,0.8426 2.7296,0.6206 3.5722,-0.5059 l 9.0556,-12.0796 21.3833,21.6679 c 0.9952,1.0028 2.6086,1.0117 3.6101,0.0265 1.0003,-0.9839 1.0192,-2.5999 0.0341,-3.6103 l -23.4734,-23.7707 c -0.0896,-0.087 -0.1867,-0.1665 -0.2863,-0.2473 -1.124,-0.8426 -2.7209,-0.6118 -3.5723,0.5147 z" /><g
           transform="matrix(0.12614,0,0,-0.1261447,72.01022,720)"
           id="g172"><path
             id="path174"
             style="fill:none;stroke:#000000;stroke-width:11.89103031;stroke-linecap:butt;stroke-linejoin:miter;stroke-miterlimit:4;stroke-dasharray:none;stroke-opacity:1"
             d="m 1046.85,1886.14 c -6.67,-8.92 -4.85,-21.59 4.03,-28.27 8.91,-6.68 21.64,-4.92 28.32,4.01 l 71.79,95.76 169.52,-171.77 c 7.89,-7.95 20.68,-8.02 28.62,-0.21 7.93,7.8 8.08,20.61 0.27,28.62 l -186.09,188.44 c -0.71,0.69 -1.48,1.32 -2.27,1.96 -8.91,6.68 -21.57,4.85 -28.32,-4.08 z" /></g><path
           id="path176"
           style="fill:#ffffff;fill-opacity:1;fill-rule:evenodd;stroke:none"
           d="m 207.0923,443.579 c -0.8413,1.1265 -0.6231,2.7222 0.5084,3.5674 1.1239,0.8502 2.7208,0.6206 3.5634,-0.5058 l 9.0632,-12.0734 21.3832,21.6616 c 0.9839,1.0016 2.6086,1.0193 3.6102,0.0252 1.0003,-0.9839 1.0192,-2.5985 0.0277,-3.6001 l -23.4671,-23.7796 c -0.0895,-0.0794 -0.1867,-0.169 -0.2951,-0.2485 -1.124,-0.8414 -2.7209,-0.613 -3.566,0.5134 z" /><g
           transform="matrix(0.12614,0,0,-0.1261447,72.01022,720)"
           id="g178"><path
             id="path180"
             style="fill:none;stroke:#000000;stroke-width:11.89103031;stroke-linecap:butt;stroke-linejoin:miter;stroke-miterlimit:4;stroke-dasharray:none;stroke-opacity:1"
             d="m 1070.89,2191.3 c -6.67,-8.93 -4.94,-21.58 4.03,-28.28 8.91,-6.74 21.57,-4.92 28.25,4.01 l 71.85,95.71 169.52,-171.72 c 7.8,-7.94 20.68,-8.08 28.62,-0.2 7.93,7.8 8.08,20.6 0.22,28.54 l -186.04,188.51 c -0.71,0.63 -1.48,1.34 -2.34,1.97 -8.91,6.67 -21.57,4.86 -28.27,-4.07 z" /></g><path
           id="path182"
           style="fill:#ffffff;fill-opacity:1;fill-rule:evenodd;stroke:none"
           d="m 230.2239,645.0549 c 17.8993,1.3106 33.4839,-12.1452 34.7957,-30.0439 1.3106,-17.9063 -12.1359,-33.4813 -30.0415,-34.7945 -17.9068,-1.3207 -33.4813,12.1339 -34.7932,30.0338 -1.3131,17.9062 12.1321,33.4813 30.039,34.8046 z" /><g
           transform="matrix(0.12614,0,0,-0.1261447,72.01022,720)"
           id="g184"><path
             id="path186"
             style="fill:none;stroke:#000000;stroke-width:11.89103031;stroke-linecap:butt;stroke-linejoin:miter;stroke-miterlimit:4;stroke-dasharray:none;stroke-opacity:1"
             d="m 1254.27,594.12 c 141.9,-10.39 265.45,96.28 275.85,238.17 10.39,141.95 -96.21,265.42 -238.16,275.83 -141.96,10.47 -265.43,-96.19 -275.83,-238.09 -10.41,-141.95 96.18,-265.42 238.14,-275.91 z" /></g><path
           id="path188"
           style="fill:#ffffff;fill-opacity:1;fill-rule:evenodd;stroke:none"
           d="m 230.4724,641.5745 c 15.9908,1.1795 29.8977,-10.8295 31.0758,-26.8221 1.1719,-15.9813 -10.8354,-29.8988 -26.8287,-31.0695 -15.9807,-1.1794 -29.8977,10.8296 -31.0695,26.8222 -1.1668,15.9914 10.8417,29.8988 26.8224,31.0694 z" /><g
           transform="matrix(0.12614,0,0,-0.1261447,72.01022,720)"
           id="g190"><path
             id="path192"
             style="fill:none;stroke:#000000;stroke-width:11.89103031;stroke-linecap:butt;stroke-linejoin:miter;stroke-miterlimit:4;stroke-dasharray:none;stroke-opacity:1"
             d="m 1256.24,621.71 c 126.77,-9.35 237.02,85.85 246.36,212.63 9.29,126.69 -85.9,237.02 -212.69,246.3 -126.69,9.35 -237.02,-85.85 -246.31,-212.63 -9.25,-126.77 85.95,-237.02 212.64,-246.3 z" /></g><path
           id="path194"
           style="fill:#ffffff;fill-opacity:1;fill-rule:evenodd;stroke:none"
           d="m 224.6889,608.6331 3.9835,0.2939 c -4.0983,1.3473 -7.185,5.0546 -7.5155,9.6236 -0.4415,6.0474 4.0996,11.3089 10.148,11.7529 6.0408,0.4428 11.3085,-4.0984 11.7525,-10.1471 0.3292,-4.5677 -2.1709,-8.6838 -6.0283,-10.6176 l 3.976,0.2927 c 5.5892,0.41 10.4885,-3.8222 10.9035,-9.4016 l 0.6433,-8.8793 c -4.6873,-4.4428 -10.8808,-7.3593 -17.8336,-7.8664 -6.9441,-0.5134 -13.4958,1.4734 -18.7836,5.1808 l -0.6597,8.878 c -0.4036,5.5782 3.8271,10.4839 9.4139,10.8901 z" /><g
           transform="matrix(0.12614,0,0,-0.1261447,72.01022,720)"
           id="g196"><path
             id="path198"
             style="fill:none;stroke:#000000;stroke-width:11.89103031;stroke-linecap:butt;stroke-linejoin:miter;stroke-miterlimit:4;stroke-dasharray:none;stroke-opacity:1"
             d="m 1210.39,882.85 31.58,-2.33 c -32.49,-10.68 -56.96,-40.07 -59.58,-76.29 -3.5,-47.94 32.5,-89.65 80.45,-93.17 47.89,-3.51 89.65,32.49 93.17,80.44 2.61,36.21 -17.21,68.84 -47.79,84.17 l 31.52,-2.32 c 44.31,-3.25 83.15,30.3 86.44,74.53 l 5.1,70.39 c -37.16,35.22 -86.26,58.34 -141.38,62.36 -55.05,4.07 -106.99,-11.68 -148.91,-41.07 l -5.23,-70.38 c -3.2,-44.22 30.34,-83.11 74.63,-86.33 z" /></g><path
           id="path200"
           style="fill:#ffffff;fill-opacity:1;fill-rule:evenodd;stroke:none"
           d="m 396.7023,323.2811 c -76.7474,0 -138.9547,-8.159 -138.9547,-18.2355 0,-10.0752 62.2073,-18.2456 138.9547,-18.2456 76.7435,0 138.952,8.1704 138.952,18.2456 0,10.0765 -62.2097,18.2355 -138.952,18.2355 z" /><g
           transform="matrix(0.12614,0,0,-0.1261447,72.01022,720)"
           id="g202"><path
             id="path204"
             style="fill:none;stroke:#000000;stroke-width:11.89103031;stroke-linecap:butt;stroke-linejoin:miter;stroke-miterlimit:4;stroke-dasharray:none;stroke-opacity:1"
             d="m 2574.06,3144.95 c -608.43,0 -1101.59,64.68 -1101.59,144.56 0,79.87 493.16,144.64 1101.59,144.64 608.4,0 1101.57,-64.77 1101.57,-144.64 0,-79.88 -493.18,-144.56 -1101.57,-144.56 z" /></g><path
           id="path206"
           style="fill:#ffffff;fill-opacity:1;fill-rule:evenodd;stroke:none"
           d="m 333.5591,310.075 c 13.7757,0.222 24.0738,0.3809 28.8318,1.8884 5.1288,1.6159 4.0705,4.7455 1.1214,9.7573 -12.9861,-5.9692 -9.5299,1.2248 -15.596,0.3103 -4.2711,-3.4324 -10.5907,-5.7383 -18.9601,-6.9089 -3.5382,-2.6075 -2.1027,-4.9323 4.6029,-5.0471 z" /><g
           transform="matrix(0.12614,0,0,-0.1261447,72.01022,720)"
           id="g208"><path
             id="path210"
             style="fill:none;stroke:#000000;stroke-width:11.89103031;stroke-linecap:butt;stroke-linejoin:miter;stroke-miterlimit:4;stroke-dasharray:none;stroke-opacity:1"
             d="m 2073.48,3249.64 c 109.21,-1.76 190.85,-3.02 228.57,-14.97 40.66,-12.81 32.27,-37.62 8.89,-77.35 -102.95,47.32 -75.55,-9.71 -123.64,-2.46 -33.86,27.21 -83.96,45.49 -150.31,54.77 -28.05,20.67 -16.67,39.1 36.49,40.01 z" /></g><path
           id="path212"
           style="fill:#ffffff;fill-opacity:1;fill-rule:evenodd;stroke:none"
           d="m 351.2527,519.9925 h 85.1193 c 1.684,0 3.4146,-1.375 3.8599,-3.0527 l 15.1393,-57.6772 c 0.4403,-1.6777 -0.5676,-3.0426 -2.249,-3.0426 h -85.1244 c -1.6764,0 -3.4058,1.3649 -3.8498,3.0426 l -15.1393,57.6772 c -0.439,1.6764 0.5689,3.0527 2.244,3.0527 z" /><g
           transform="matrix(0.12614,0,0,-0.1261447,72.01022,720)"
           id="g214"><path
             id="path216"
             style="fill:none;stroke:#000000;stroke-width:11.89103031;stroke-linecap:butt;stroke-linejoin:miter;stroke-miterlimit:4;stroke-dasharray:none;stroke-opacity:1"
             d="m 2213.75,1585.54 h 674.8 c 13.35,0 27.07,10.9 30.6,24.2 l 120.02,457.23 c 3.49,13.3 -4.5,24.12 -17.83,24.12 H 2346.5 c -13.29,0 -27,-10.82 -30.52,-24.12 l -120.02,-457.23 c -3.48,-13.29 4.51,-24.2 17.79,-24.2 z" /></g><path
           id="path218"
           style="fill:#ffffff;fill-opacity:1;fill-rule:evenodd;stroke:none"
           d="m 442.0483,518.3236 10.2804,-39.1491 c 12.3428,6.0222 27.2261,15.6899 42.8195,28.0988 0.4276,5.5794 0.9385,10.031 1.5629,13.3587 -1.2538,2.4825 -2.6187,5.1341 -4.1172,7.956 14.3939,0.0895 23.1757,3.1839 26.3444,9.2855 -3.8524,11.2735 -9.236,22.7779 -16.1535,34.5233 -4.835,7.1549 -14.3131,11.3606 -28.4169,12.6195 -1.6512,-18.9293 -30.6709,-17.9529 -23.8505,-1.6689 -10.5277,-2.8193 -19.4521,-8.043 -26.7556,-15.6621 -6.2906,-15.4957 -10.1316,-26.3063 -11.5077,-32.4457 6.8317,-4.7797 13.2964,-7.8765 19.4079,-9.2868 0.2749,-1.3384 0.4969,-2.8635 0.6546,-4.5753 h 5.8819 c 1.6739,-0.001 3.4071,-1.3775 3.8498,-3.0539 z" /><g
           transform="matrix(0.12614,0,0,-0.1261447,72.01022,720)"
           id="g220"><path
             id="path222"
             style="fill:none;stroke:#000000;stroke-width:11.89103031;stroke-linecap:butt;stroke-linejoin:miter;stroke-miterlimit:4;stroke-dasharray:none;stroke-opacity:1"
             d="m 2933.55,1598.77 81.5,310.35 c 97.85,-47.74 215.84,-124.38 339.46,-222.75 3.39,-44.23 7.44,-79.52 12.39,-105.9 -9.94,-19.68 -20.76,-40.7 -32.64,-63.07 114.11,-0.71 183.73,-25.24 208.85,-73.61 -30.54,-89.37 -73.22,-180.57 -128.06,-273.68 -38.33,-56.72 -113.47,-90.06 -225.28,-100.04 -13.09,150.06 -243.15,142.32 -189.08,13.23 -83.46,22.35 -154.21,63.76 -212.11,124.16 -49.87,122.84 -80.32,208.54 -91.23,257.21 54.16,37.89 105.41,62.44 153.86,73.62 2.18,10.61 3.94,22.7 5.19,36.27 h 46.63 c 13.27,0.01 27.01,10.92 30.52,24.21 z" /></g><path
           id="path224"
           style="fill:#ffffff;fill-opacity:1;fill-rule:evenodd;stroke:none"
           d="m 452.33,479.1733 -10.2804,39.149 c -0.4428,1.6777 -2.1759,3.0527 -3.8485,3.0527 h -85.1282 c -1.6764,0 -4.6646,-2.1659 -4.1677,-3.8234 -0.0807,1.3838 0.8793,2.4396 2.3501,2.4396 h 85.1193 c 1.6839,0 3.4145,-1.375 3.8598,-3.0527 l 15.1394,-57.6772 c 0.2623,-1.0028 0,-1.8972 -0.6055,-2.4573 1.4001,0.9032 2.741,2.6604 2.4219,3.8487 z" /><g
           transform="matrix(0.12614,0,0,-0.1261447,72.01022,720)"
           id="g226"><path
             id="path228"
             style="fill:none;stroke:#000000;stroke-width:11.89103031;stroke-linecap:butt;stroke-linejoin:miter;stroke-miterlimit:4;stroke-dasharray:none;stroke-opacity:1"
             d="m 3015.06,1909.13 -81.5,-310.35 c -3.51,-13.3 -17.25,-24.2 -30.51,-24.2 h -674.87 c -13.29,0 -36.98,17.17 -33.04,30.31 -0.64,-10.97 6.97,-19.34 18.63,-19.34 h 674.8 c 13.35,0 27.07,10.9 30.6,24.2 l 120.02,457.23 c 2.08,7.95 0,15.04 -4.8,19.48 11.1,-7.16 21.73,-21.09 19.2,-30.51 z" /></g><path
           id="path230"
           style="fill:#ffffff;fill-opacity:1;fill-rule:evenodd;stroke:none"
           d="m 453.1234,456.2187 h -85.1243 c -0.3116,0 -0.6181,0.0442 -0.931,0.1337 1.6929,-4.3911 6.2957,-3.7452 8.0957,-3.7263 h 100.9171 c 5.472,0.2296 5.3282,4.0631 5.4013,7.7617 h -24.2479 c 0.0808,-1.1719 -1.1617,-2.7424 -2.466,-3.5838 -0.41,-0.3721 -0.9801,-0.5853 -1.6449,-0.5853 z" /><g
           transform="matrix(0.12614,0,0,-0.1261447,72.01022,720)"
           id="g232"><path
             id="path234"
             style="fill:none;stroke:#000000;stroke-width:11.89103031;stroke-linecap:butt;stroke-linejoin:miter;stroke-miterlimit:4;stroke-dasharray:none;stroke-opacity:1"
             d="m 3021.35,2091.1 h -674.84 c -2.47,0 -4.9,-0.35 -7.38,-1.06 13.42,34.81 49.91,29.69 64.18,29.54 h 800.04 c 43.38,-1.82 42.24,-32.21 42.82,-61.53 h -192.23 c 0.64,9.29 -9.21,21.74 -19.55,28.41 -3.25,2.95 -7.77,4.64 -13.04,4.64 z" /></g><path
           id="path236"
           style="fill:#ffffff;fill-opacity:1;fill-rule:evenodd;stroke:none"
           d="m 441.2032,496.2747 c -9.125,-4.6219 -19.91,-6.0322 -31.0141,-6.5999 0.1249,-0.3986 0.222,-0.8161 0.2838,-1.2248 0.743,-4.6838 -2.5543,-8.6662 -7.3135,-8.6662 -4.4906,0 -8.5612,3.5573 -9.2638,7.9749 -0.0693,0.4768 -0.1059,0.9486 -0.0946,1.409 -11.5216,-0.3103 -22.661,-0.9397 -31.868,-4.5412 l 6.3335,-24.1163 h 82.3329 z" /><g
           transform="matrix(0.12614,0,0,-0.1261447,72.01022,720)"
           id="g238"><path
             id="path240"
             style="fill:none;stroke:#000000;stroke-width:11.89103031;stroke-linecap:butt;stroke-linejoin:miter;stroke-miterlimit:4;stroke-dasharray:none;stroke-opacity:1"
             d="m 2926.85,1773.56 c -72.34,36.64 -157.84,47.82 -245.87,52.32 0.99,3.16 1.76,6.47 2.25,9.71 5.89,37.13 -20.25,68.7 -57.98,68.7 -35.6,0 -67.87,-28.2 -73.44,-63.22 -0.55,-3.78 -0.84,-7.52 -0.75,-11.17 -91.34,2.46 -179.65,7.45 -252.64,36 l 50.21,191.18 h 652.71 z" /></g><path
           id="path242"
           style="fill:#ffffff;fill-opacity:1;fill-rule:evenodd;stroke:none"
           d="m 401.3127,493.6219 c 3.0526,0 5.9134,-2.4661 6.4028,-5.5176 0.4794,-3.0501 -1.6082,-5.5251 -4.6545,-5.5251 -3.0539,0 -5.9173,2.475 -6.3979,5.5251 -0.4869,3.0515 1.5944,5.5176 4.6496,5.5176 z" /><g
           transform="matrix(0.12614,0,0,-0.1261447,72.01022,720)"
           id="g244"><path
             id="path246"
             style="fill:none;stroke:#000000;stroke-width:11.89103031;stroke-linecap:butt;stroke-linejoin:miter;stroke-miterlimit:4;stroke-dasharray:none;stroke-opacity:1"
             d="m 2610.61,1794.59 c 24.2,0 46.88,19.55 50.76,43.74 3.8,24.18 -12.75,43.8 -36.9,43.8 -24.21,0 -46.91,-19.62 -50.72,-43.8 -3.86,-24.19 12.64,-43.74 36.86,-43.74 z" /></g><path
           id="path248"
           style="fill:#ffffff;fill-opacity:1;fill-rule:evenodd;stroke:none"
           d="m 499.2554,470.2675 c -1.7029,5.1706 -2.9164,10.5469 -3.6657,16.1086 -11.4623,-4.4352 -24.5746,-8.7191 -41.1418,-15.2647 l 2.2352,-8.5249 c 25.0463,-0.8149 39.2371,1.7383 42.5723,7.681 z" /><g
           transform="matrix(0.12614,0,0,-0.1261447,72.01022,720)"
           id="g250"><path
             id="path252"
             style="fill:none;stroke:#000000;stroke-width:11.89103031;stroke-linecap:butt;stroke-linejoin:miter;stroke-miterlimit:4;stroke-dasharray:none;stroke-opacity:1"
             d="m 3387.07,1979.73 c -13.5,-40.99 -23.12,-83.61 -29.06,-127.7 -90.87,35.16 -194.82,69.12 -326.16,121.01 l 17.72,67.58 c 198.56,6.46 311.06,-13.78 337.5,-60.89 z" /></g><path
           id="path254"
           style="fill:#ffffff;fill-opacity:1;fill-rule:evenodd;stroke:none"
           d="m 454.4479,471.1114 c 16.5672,6.5444 29.6795,10.8295 41.1418,15.2647 10.1039,3.9206 18.9299,7.9472 27.7193,13.765 -0.3658,11.2294 -2.0409,22.0841 -6.6791,34.6809 -4.2661,-4.0807 -12.2848,-6.1647 -24.0347,-6.2353 3.4057,-6.4283 6.172,-11.9736 8.3176,-16.6397 -17.6835,-14.6606 -34.7225,-26.0136 -48.5828,-32.7725 z" /><g
           transform="matrix(0.12614,0,0,-0.1261447,72.01022,720)"
           id="g256"><path
             id="path258"
             style="fill:none;stroke:#000000;stroke-width:11.89103031;stroke-linecap:butt;stroke-linejoin:miter;stroke-miterlimit:4;stroke-dasharray:none;stroke-opacity:1"
             d="m 3031.85,1973.04 c 131.34,-51.88 235.29,-85.85 326.16,-121.01 80.1,-31.08 150.07,-63 219.75,-109.12 -2.9,-89.02 -16.18,-175.07 -52.95,-274.93 -33.82,32.35 -97.39,48.87 -190.54,49.43 27,50.96 48.93,94.92 65.94,131.91 -140.19,116.22 -275.27,206.22 -385.15,259.8 z" /></g><path
           id="path260"
           style="fill:#ffffff;fill-opacity:1;fill-rule:evenodd;stroke:none"
           d="m 414.4565,533.7485 c -1.2703,-4.4617 -2.4572,-8.5854 -3.5458,-12.3722 h 21.4059 c -0.1577,1.7118 -0.3797,3.2368 -0.6546,4.5752 -5.4442,1.259 -11.1861,3.8588 -17.2055,7.797 z" /><g
           transform="matrix(0.12614,0,0,-0.1261447,72.01022,720)"
           id="g262"><path
             id="path264"
             style="fill:none;stroke:#000000;stroke-width:11.89103031;stroke-linecap:butt;stroke-linejoin:miter;stroke-miterlimit:4;stroke-dasharray:none;stroke-opacity:1"
             d="m 2714.81,1476.49 c -10.07,35.37 -19.48,68.06 -28.11,98.08 h 169.7 c -1.25,-13.57 -3.01,-25.66 -5.19,-36.27 -43.16,-9.98 -88.68,-30.59 -136.4,-61.81 z" /></g><path
           id="path266"
           style="fill:#ffffff;fill-opacity:1;fill-rule:evenodd;stroke:none"
           d="m 362.4817,326.2531 c 12.6683,45.9255 17.1916,78.1744 13.5878,96.7744 7.1925,-1.0281 14.4191,-1.3447 21.6772,-0.9662 -1.0999,4.9675 -2.2087,9.9427 -3.344,14.9885 0.1337,6.8471 3.6354,11.9307 16.0349,15.5751 h -35.275 c -1.2047,-0.0177 -3.6518,-0.3003 -5.6486,0.8073 -11.3703,-3.2457 -16.9128,-8.6119 -18.8213,-15.1588 -1.3813,-18.0135 2.36,-38.5297 -0.8212,-112.1566 3.9709,-0.4137 8.1764,-0.3608 12.6102,0.1363 z" /><g
           transform="matrix(0.12614,0,0,-0.1261447,72.01022,720)"
           id="g268"><path
             id="path270"
             style="fill:none;stroke:#000000;stroke-width:11.89103031;stroke-linecap:butt;stroke-linejoin:miter;stroke-miterlimit:4;stroke-dasharray:none;stroke-opacity:1"
             d="m 2302.77,3121.39 c 100.43,-364.07 136.29,-619.72 107.72,-767.17 57.02,8.15 114.31,10.66 171.85,7.66 -8.72,-39.38 -17.51,-78.82 -26.51,-118.82 1.06,-54.28 28.82,-94.58 127.12,-123.47 H 2403.3 c -9.55,0.14 -28.95,2.38 -44.78,-6.4 -90.14,25.73 -134.08,68.27 -149.21,120.17 -10.95,142.8 18.71,305.44 -6.51,889.11 31.48,3.28 64.82,2.86 99.97,-1.08 z" /></g><path
           id="path272"
           style="fill:#ffffff;fill-opacity:1;fill-rule:evenodd;stroke:none"
           d="m 375.7151,452.6261 h -0.5525 c -1.2047,-0.0176 -3.6518,-0.3002 -5.6486,0.8074 -11.3703,-3.2457 -16.9128,-8.6119 -18.8213,-15.1589 -1.3813,-18.0134 2.36,-38.5296 -0.8212,-112.1565 2.3676,-0.2473 4.8223,-0.328 7.359,-0.2473 6.5366,25.5885 22.1023,88.367 4.5675,115.4275 4.116,4.3646 8.7554,8.1351 13.9171,11.3278 z" /><g
           transform="matrix(0.12614,0,0,-0.1261447,72.01022,720)"
           id="g274"><path
             id="path276"
             style="fill:none;stroke:#000000;stroke-width:11.89103031;stroke-linecap:butt;stroke-linejoin:miter;stroke-miterlimit:4;stroke-dasharray:none;stroke-opacity:1"
             d="m 2407.68,2119.58 h -4.38 c -9.55,0.14 -28.95,2.38 -44.78,-6.4 -90.14,25.73 -134.08,68.27 -149.21,120.17 -10.95,142.8 18.71,305.44 -6.51,889.11 18.77,1.96 38.23,2.6 58.34,1.96 51.82,-202.85 175.22,-700.52 36.21,-915.04 32.63,-34.6 69.41,-64.49 110.33,-89.8 z" /></g><path
           id="path278"
           style="fill:#ffffff;fill-opacity:1;fill-rule:evenodd;stroke:none"
           d="m 474.3414,584.8182 c -2.2541,2.8648 -4.2408,5.5353 -4.8248,7.4237 0.4503,1.3043 0.9309,2.9366 1.4279,4.9146 8.4551,5.7383 9.6056,9.9881 3.4651,12.7368 -1.2387,-0.6925 -2.7726,-2.8294 -4.6092,-6.4018 -1.4645,0.0517 -2.5745,0.806 -3.3263,2.2428 1.7496,6.0411 2.8734,10.9468 3.4058,14.7249 -4.1715,6.1823 -13.8969,7.0691 -26.7947,5.3914 -0.5916,-3.4311 -1.0899,-7.0603 -1.4708,-10.9014 -2.2793,-2.1016 -1.9867,-9.8784 0.1161,-18.8574 -1.0483,-5.0988 2.1014,-7.8853 9.4529,-8.3533 0.1085,-1.8102 -0.6143,-4.1148 -0.6648,-4.3911 0,-0.0164 -0.0164,-0.0341 -0.0164,-0.0517 -6.7068,-16.1718 22.0127,-17.1658 23.8392,1.5225 z" /><g
           transform="matrix(0.12614,0,0,-0.1261447,72.01022,720)"
           id="g280"><path
             id="path282"
             style="fill:none;stroke:#000000;stroke-width:11.89103031;stroke-linecap:butt;stroke-linejoin:miter;stroke-miterlimit:4;stroke-dasharray:none;stroke-opacity:1"
             d="m 3189.56,1071.64 c -17.87,-22.71 -33.62,-43.88 -38.25,-58.85 3.57,-10.34 7.38,-23.28 11.32,-38.96 67.03,-45.49 76.15,-79.18 27.47,-100.97 -9.82,5.49 -21.98,22.43 -36.54,50.75 -11.61,-0.41 -20.41,-6.39 -26.37,-17.78 13.87,-47.89 22.78,-86.78 27,-116.73 -33.07,-49.01 -110.17,-56.04 -212.42,-42.74 -4.69,27.2 -8.64,55.97 -11.66,86.42 -18.07,16.66 -15.75,78.31 0.92,149.49 -8.31,40.42 16.66,62.51 74.94,66.22 0.86,14.35 -4.87,32.62 -5.27,34.81 0,0.13 -0.13,0.27 -0.13,0.41 -53.17,128.2 174.51,136.08 188.99,-12.07 z" /></g><path
           id="path284"
           style="fill:#ffffff;fill-opacity:1;fill-rule:evenodd;stroke:none"
           d="m 443.0852,625.8493 c 12.8978,1.6778 22.6232,0.791 26.7947,-5.3914 -0.5324,-3.7793 -1.6562,-8.6838 -3.4058,-14.7249 0.753,-1.4355 1.8618,-2.1898 3.3263,-2.2428 1.8353,3.5724 3.3705,5.7106 4.6092,6.4018 6.1405,-2.7499 4.99,-6.9985 -3.4651,-12.7368 -0.497,-1.9767 -0.9776,-3.609 -1.4279,-4.9146 7.6012,1.7131 13.9586,8.5059 14.8555,11.4514 8.8689,17.4723 -1.0192,24.8531 -6.3146,27.5488 -2.3323,17.3032 -27.4695,2.0032 -40.0545,10.3501 -5.0014,-6.9165 1.182,-15.5813 5.0822,-15.7416 z" /><g
           transform="matrix(0.12614,0,0,-0.1261447,72.01022,720)"
           id="g286"><path
             id="path288"
             style="fill:none;stroke:#000000;stroke-width:11.89103031;stroke-linecap:butt;stroke-linejoin:miter;stroke-miterlimit:4;stroke-dasharray:none;stroke-opacity:1"
             d="m 2941.77,746.37 c 102.25,-13.3 179.35,-6.27 212.42,42.74 -4.22,29.96 -13.13,68.84 -27,116.73 5.97,11.38 14.76,17.36 26.37,17.78 14.55,-28.32 26.72,-45.27 36.54,-50.75 48.68,21.8 39.56,55.48 -27.47,100.97 -3.94,15.67 -7.75,28.61 -11.32,38.96 60.26,-13.58 110.66,-67.43 117.77,-90.78 70.31,-138.51 -8.08,-197.02 -50.06,-218.39 -18.49,-137.17 -217.77,-15.88 -317.54,-82.05 -39.65,54.83 9.37,123.52 40.29,124.79 z" /></g><path
           id="path290"
           style="fill:#ffffff;fill-opacity:1;fill-rule:evenodd;stroke:none"
           d="m 460.7271,587.9593 c -3.5546,-0.2839 -6.7409,-0.3545 -9.5437,-0.2221 0.0719,-1.2425 -0.2485,-2.7222 -0.4705,-3.619 4.5599,0.1147 7.8913,1.4027 10.0142,3.8411 z" /><g
           transform="matrix(0.12614,0,0,-0.1261447,72.01022,720)"
           id="g292"><path
             id="path294"
             style="fill:none;stroke:#000000;stroke-width:11.89103031;stroke-linecap:butt;stroke-linejoin:miter;stroke-miterlimit:4;stroke-dasharray:none;stroke-opacity:1"
             d="m 3081.63,1046.74 c -28.18,2.25 -53.44,2.81 -75.66,1.76 0.57,9.85 -1.97,21.58 -3.73,28.69 36.15,-0.91 62.56,-11.12 79.39,-30.45 z" /></g><path
           id="path296"
           style="fill:#ffffff;fill-opacity:1;fill-rule:evenodd;stroke:none"
           d="m 421.7839,425.317 h 76.8067 c 2.741,0 4.9926,-2.2441 4.9926,-4.9927 0,-2.7412 -2.2516,-4.9941 -4.9926,-4.9941 h -76.8067 c -2.7397,0 -4.9863,2.2542 -4.9863,4.9941 0,2.7486 2.2466,4.9927 4.9863,4.9927 z" /><g
           transform="matrix(0.12614,0,0,-0.1261447,72.01022,720)"
           id="g298"><path
             id="path300"
             style="fill:none;stroke:#000000;stroke-width:11.89103031;stroke-linecap:butt;stroke-linejoin:miter;stroke-miterlimit:4;stroke-dasharray:none;stroke-opacity:1"
             d="m 2772.9,2336.07 h 608.9 c 21.73,0 39.58,17.79 39.58,39.58 0,21.73 -17.85,39.59 -39.58,39.59 h -608.9 c -21.72,0 -39.53,-17.87 -39.53,-39.59 0,-21.79 17.81,-39.58 39.53,-39.58 z" /></g><path
           id="path302"
           style="fill:#ffffff;fill-opacity:1;fill-rule:evenodd;stroke:none"
           d="m 494.0041,330.7943 c -3.6706,3.6708 -8.7326,5.9502 -14.3206,5.9502 h -38.9912 c -5.5779,0 -10.6525,-2.2794 -14.3244,-5.9502 -3.6707,-3.6734 -5.9501,-8.7469 -5.9501,-14.325 v -4.0884 h -1.5591 v -5.0571 h 11.5015 v 5.0571 h -1.5616 v 4.0884 c 0,3.2646 1.3371,6.2353 3.4978,8.3999 2.1545,2.1546 5.1314,3.4955 8.3972,3.4955 h 38.9911 c 3.2709,0 6.2414,-1.3396 8.3959,-3.4955 2.1558,-2.1646 3.4953,-5.1353 3.4953,-8.3999 v -4.0884 h -1.5603 v -5.0571 h 11.504 v 5.0571 h -1.5642 v 4.0884 c -0.002,5.5794 -2.2793,10.6529 -5.9513,14.325 z" /><g
           transform="matrix(0.12614,0,0,-0.1261447,72.01022,720)"
           id="g304"><path
             id="path306"
             style="fill:none;stroke:#000000;stroke-width:11.89103031;stroke-linecap:butt;stroke-linejoin:miter;stroke-miterlimit:4;stroke-dasharray:none;stroke-opacity:1"
             d="m 3345.44,3085.39 c -29.1,-29.1 -69.23,-47.17 -113.53,-47.17 H 2922.8 c -44.22,0 -84.45,18.07 -113.56,47.17 -29.1,29.12 -47.17,69.34 -47.17,113.56 v 32.41 h -12.36 v 40.09 h 91.18 v -40.09 h -12.38 v -32.41 c 0,-25.88 10.6,-49.43 27.73,-66.59 17.08,-17.08 40.68,-27.71 66.57,-27.71 h 309.11 c 25.93,0 49.48,10.62 66.56,27.71 17.09,17.16 27.71,40.71 27.71,66.59 v 32.41 h -12.37 v 40.09 h 91.2 v -40.09 h -12.4 v -32.41 c -0.02,-44.23 -18.07,-84.45 -47.18,-113.56 z" /></g><path
           id="path308"
           style="fill:#ffffff;fill-opacity:1;fill-rule:evenodd;stroke:none"
           d="m 455.9906,336.7483 h 8.38957 v 78.58944 h -8.38957 z" /><g
           transform="matrix(0.12614,0,0,-0.1261447,72.01022,720)"
           id="g310"><path
             id="path312"
             style="fill:none;stroke:#000000;stroke-width:11.89103031;stroke-linecap:butt;stroke-linejoin:miter;stroke-miterlimit:4;stroke-dasharray:none;stroke-opacity:1"
             d="m 3044.08,2415.18 h 66.51 v 623.01 h -66.51 z" /></g><path
           id="path314"
           style="fill:#ffffff;fill-opacity:1;fill-rule:evenodd;stroke:none"
           d="m 487.0526,425.6273 c 14.8454,5.3309 16.8649,20.1252 10.3334,42.4856 -5.3686,-4.3987 -18.9374,-6.2353 -40.7029,-5.5251 l 0.5058,-1.9338 c 0.0265,-0.0896 0.0353,-0.1779 0.0442,-0.2649 h 24.2479 c -0.0732,-3.6999 0.0706,-7.5321 -5.4013,-7.7617 h -65.6421 c -12.3983,-3.6443 -15.9012,-8.728 -16.0349,-15.5751 7.8573,-35.1048 14.8454,-67.2932 24.3627,-111.7655 3.214,-1.8001 7.6012,-1.6676 13.1804,0.4087 4.4616,43.1415 3.238,74.5049 -3.6808,94.1065 18.3685,-0.0719 37.9606,2.4283 58.7876,5.8253 z" /><g
           transform="matrix(0.12614,0,0,-0.1261447,72.01022,720)"
           id="g316"><path
             id="path318"
             style="fill:none;stroke:#000000;stroke-width:11.89103031;stroke-linecap:butt;stroke-linejoin:miter;stroke-miterlimit:4;stroke-dasharray:none;stroke-opacity:1"
             d="m 3290.33,2333.61 c 117.69,-42.26 133.7,-159.54 81.92,-336.8 -42.56,34.87 -150.13,49.43 -322.68,43.8 l 4.01,15.33 c 0.21,0.71 0.28,1.41 0.35,2.1 h 192.23 c -0.58,29.33 0.56,59.71 -42.82,61.53 h -520.39 c -98.29,28.89 -126.06,69.19 -127.12,123.47 62.29,278.29 117.69,533.46 193.14,886.01 25.48,14.27 60.26,13.22 104.49,-3.24 35.37,-342 25.67,-590.63 -29.18,-746.02 145.62,0.57 300.94,-19.25 466.05,-46.18 z" /></g><path
           id="path320"
           style="fill:#ffffff;fill-opacity:1;fill-rule:evenodd;stroke:none"
           d="m 487.0526,425.6273 c 14.8454,5.3309 16.8649,20.1252 10.3334,42.4856 -1.1378,-0.941 -2.654,-1.7572 -4.5373,-2.4573 5.4127,-22.9709 -0.468,-35.5589 -17.9232,-36.7649 -20.3641,-3.0249 -37.2416,-4.4705 -50.6427,-4.3545 5.9096,-38.2975 6.9188,-71.683 3.0324,-100.1715 1.4367,0.2737 2.9819,0.7177 4.6306,1.3295 4.4616,43.1415 3.238,74.5049 -3.6808,94.1065 18.3685,-0.0706 37.9606,2.4296 58.7876,5.8266 z" /><g
           transform="matrix(0.12614,0,0,-0.1261447,72.01022,720)"
           id="g322"><path
             id="path324"
             style="fill:none;stroke:#000000;stroke-width:11.89103031;stroke-linecap:butt;stroke-linejoin:miter;stroke-miterlimit:4;stroke-dasharray:none;stroke-opacity:1"
             d="m 3290.33,2333.61 c 117.69,-42.26 133.7,-159.54 81.92,-336.8 -9.02,7.46 -21.04,13.93 -35.97,19.48 42.91,182.1 -3.71,281.89 -142.09,291.45 -161.44,23.98 -295.24,35.44 -401.48,34.52 46.85,303.6 54.85,568.26 24.04,794.1 11.39,-2.17 23.64,-5.69 36.71,-10.54 35.37,-342 25.67,-590.63 -29.18,-746.02 145.62,0.56 300.94,-19.26 466.05,-46.19 z" /></g><path
           id="path326"
           style="fill:#ffffff;fill-opacity:1;fill-rule:evenodd;stroke:none"
           d="m 351.2023,325.9957 c -0.3734,-1.3812 -0.9776,-2.678 -1.8026,-3.9016 3.976,-0.3734 2.4396,-5.4898 13.1716,-0.7998 -0.4516,1.3573 -0.7089,2.9896 -0.7707,4.8869 -3.6896,-0.381 -7.2304,-0.4428 -10.5983,-0.1855 z" /><g
           transform="matrix(0.12614,0,0,-0.1261447,72.01022,720)"
           id="g328"><path
             id="path330"
             style="fill:none;stroke:#000000;stroke-width:11.89103031;stroke-linecap:butt;stroke-linejoin:miter;stroke-miterlimit:4;stroke-dasharray:none;stroke-opacity:1"
             d="m 2213.35,3123.43 c -2.96,10.95 -7.75,21.23 -14.29,30.93 31.52,2.96 19.34,43.52 104.42,6.34 -3.58,-10.76 -5.62,-23.7 -6.11,-38.74 -29.25,3.02 -57.32,3.51 -84.02,1.47 z" /></g><path
           id="path332"
           style="fill:#ffffff;fill-opacity:1;fill-rule:evenodd;stroke:none"
           d="m 418.8007,302.0131 c 7.3174,3.0174 8.4173,7.9282 12.4374,9.809 4.0516,1.8896 4.5133,5.2602 0.5563,8.9146 -2.9239,-2.3324 -6.553,-5.2059 -8.4779,-3.6809 -1.2866,1.0117 -5.6409,0.9486 -6.5025,-0.5323 -3.7867,-8.8175 -9.0632,-6.0221 -10.1013,-10.031 -0.1236,-5.3397 7.4852,-6.3779 12.088,-4.4794 z" /><g
           transform="matrix(0.12614,0,0,-0.1261447,72.01022,720)"
           id="g334"><path
             id="path336"
             style="fill:none;stroke:#000000;stroke-width:11.89103031;stroke-linecap:butt;stroke-linejoin:miter;stroke-miterlimit:4;stroke-dasharray:none;stroke-opacity:1"
             d="m 2749.25,3313.55 c 58.01,-23.92 66.73,-62.85 98.6,-77.76 32.12,-14.98 35.78,-41.7 4.41,-70.67 -23.18,18.49 -51.95,41.27 -67.21,29.18 -10.2,-8.02 -44.72,-7.52 -51.55,4.22 -30.02,69.9 -71.85,47.74 -80.08,79.52 -0.98,42.33 59.34,50.56 95.83,35.51 z" /></g><path
           id="path338"
           style="fill:#ffffff;fill-opacity:1;fill-rule:evenodd;stroke:none"
           d="m 420.052,324.6914 c 0.0618,-2.3413 -0.2548,-4.6926 -0.9675,-7.0515 1.5705,0.2397 3.46,0.0265 4.232,-0.5853 1.7824,-1.4103 5.028,0.9486 7.8232,3.1662 -0.4528,1.2602 -0.7644,2.8925 -0.9246,4.8869 -4.0781,-1.2754 -7.4662,-1.4192 -10.1631,-0.4163 z" /><g
           transform="matrix(0.12614,0,0,-0.1261447,72.01022,720)"
           id="g340"><path
             id="path342"
             style="fill:none;stroke:#000000;stroke-width:11.89103031;stroke-linecap:butt;stroke-linejoin:miter;stroke-miterlimit:4;stroke-dasharray:none;stroke-opacity:1"
             d="m 2759.17,3133.77 c 0.49,18.56 -2.02,37.2 -7.67,55.9 12.45,-1.9 27.43,-0.21 33.55,4.64 14.13,11.18 39.86,-7.52 62.02,-25.1 -3.59,-9.99 -6.06,-22.93 -7.33,-38.74 -32.33,10.11 -59.19,11.25 -80.57,3.3 z" /></g><path
           id="path344"
           style="fill:#ffffff;fill-opacity:1;fill-rule:evenodd;stroke:none"
           d="m 492.5952,528.5854 c -1.8896,3.4223 -3.8864,8.0178 -5.9942,13.8015 1.1264,-6.7323 1.0709,-11.5763 2.8974,-17.1102 -1.4708,-7.8324 -2.0838,-15.8135 -1.9325,-23.8679 2.5002,1.8808 5.0381,3.8323 7.5836,5.8632 0.4276,5.5794 0.9385,10.0311 1.5629,13.3588 -1.2539,2.4812 -2.62,5.134 -4.1172,7.9546 z m -65.3305,-1.3484 c 1.4796,-0.5235 2.9492,-0.9487 4.3973,-1.2867 -0.5487,8.5677 -0.9019,15.6457 -1.0811,21.2427 -1.6499,-8.2561 -2.7599,-14.9178 -3.3162,-19.956 z m 71.9907,-56.9695 c -1.7029,5.1706 -2.9164,10.5469 -3.6657,16.1086 -2.1179,-0.8161 -4.3001,-1.6323 -6.5517,-2.4673 0.9032,-6.0853 2.1923,-12.1856 3.8309,-18.2532 3.1989,1.206 5.3294,2.7411 6.3865,4.6119 z" /><g
           transform="matrix(0.12614,0,0,-0.1261447,72.01022,720)"
           id="g346"><path
             id="path348"
             style="fill:none;stroke:#000000;stroke-width:11.89103031;stroke-linecap:butt;stroke-linejoin:miter;stroke-miterlimit:4;stroke-dasharray:none;stroke-opacity:1"
             d="m 3334.27,1517.42 c -14.98,-27.13 -30.81,-63.56 -47.52,-109.41 8.93,53.37 8.49,91.77 22.97,135.64 -11.66,62.09 -16.52,125.36 -15.32,189.21 19.82,-14.91 39.94,-30.38 60.12,-46.48 3.39,-44.23 7.44,-79.52 12.39,-105.9 -9.94,-19.67 -20.77,-40.7 -32.64,-63.06 z m -517.92,10.69 c 11.73,4.15 23.38,7.52 34.86,10.2 -4.35,-67.92 -7.15,-124.03 -8.57,-168.4 -13.08,65.45 -21.88,118.26 -26.29,158.2 z m 570.72,451.62 c -13.5,-40.99 -23.12,-83.61 -29.06,-127.7 -16.79,6.47 -34.09,12.94 -51.94,19.56 7.16,48.24 17.38,96.6 30.37,144.7 25.36,-9.56 42.25,-21.73 50.63,-36.56 z" /></g></g></g></g></svg>