<svg xmlns="http://www.w3.org/2000/svg" xmlns:xlink="http://www.w3.org/1999/xlink" width="1920" zoomAndPan="magnify" viewBox="0 0 1440 809.999993" height="1080" preserveAspectRatio="xMidYMid meet" version="1.0"><defs><filter x="0%" y="0%" width="100%" height="100%" id="622f686b56"><feColorMatrix values="0 0 0 0 1 0 0 0 0 1 0 0 0 0 1 0 0 0 1 0" color-interpolation-filters="sRGB"/></filter><g/><mask id="5729840ed6"><g filter="url(#622f686b56)"><rect x="-144" width="1728" fill="#000000" y="-80.999999" height="971.999992" fill-opacity="0.6"/></g></mask><clipPath id="571be789b1"><rect x="0" width="526" y="0" height="177"/></clipPath><mask id="fcb69a5f9f"><g filter="url(#622f686b56)"><rect x="-144" width="1728" fill="#000000" y="-80.999999" height="971.999992" fill-opacity="0.49"/></g></mask><clipPath id="065e56f1e8"><rect x="0" width="526" y="0" height="177"/></clipPath><mask id="3bc5494544"><g filter="url(#622f686b56)"><rect x="-144" width="1728" fill="#000000" y="-80.999999" height="971.999992" fill-opacity="0.58"/></g></mask><clipPath id="08fb49ed6e"><rect x="0" width="525" y="0" height="177"/></clipPath><mask id="4773b4a790"><g filter="url(#622f686b56)"><rect x="-144" width="1728" fill="#000000" y="-80.999999" height="971.999992" fill-opacity="0.96"/></g></mask><clipPath id="3e29ff5413"><rect x="0" width="1179" y="0" height="395"/></clipPath></defs><g mask="url(#5729840ed6)"><g transform="matrix(1, 0, 0, 1, 0, 395)"><g clip-path="url(#571be789b1)"><path fill="#1a4b93" d="M 472.167969 170.363281 C 469.832031 175.214844 461.675781 176.128906 457.113281 174.929688 C 442.96875 171.21875 429.167969 166.480469 415.824219 160.429688 C 411.832031 158.601562 407.667969 154.433594 411.832031 150.324219 C 415.765625 146.441406 423.691406 146.15625 428.484375 148.324219 C 440.003906 153.519531 452.039062 157.972656 464.070312 161.171875 C 467.835938 162.199219 474.679688 165.167969 472.167969 170.363281 Z M 295.945312 33.113281 C 291.269531 30.03125 283.855469 29.859375 278.890625 32.542969 C 267.65625 38.652344 256.078125 43.789062 244.046875 47.957031 C 239.882812 49.386719 235.605469 53.4375 239.371094 57.722656 C 243.019531 61.886719 250.890625 62.628906 255.792969 60.917969 C 269.539062 56.179688 282.828125 50.355469 295.601562 43.390625 C 300.164062 40.9375 300.164062 35.96875 295.945312 33.113281 Z M 295.945312 33.113281 " fill-opacity="1" fill-rule="nonzero"/><path fill="#ffbfb6" d="M 259.84375 133.082031 C 250.660156 143.128906 240.625 152.378906 229.902344 160.773438 C 225.28125 164.367188 218.667969 164.9375 213.25 162.769531 C 209.601562 161.285156 204.695312 156.203125 209.257812 152.664062 C 219.980469 144.273438 229.960938 135.023438 239.199219 124.976562 C 242.960938 120.808594 251.175781 121.09375 255.851562 122.976562 C 260.1875 124.691406 263.609375 128.972656 259.84375 133.082031 Z M 384.683594 12.503906 C 380.578125 11.761719 371.511719 11.875 369.628906 17.070312 C 365.007812 29.917969 359.417969 42.363281 352.804688 54.296875 C 347.726562 63.488281 371.394531 67.253906 375.957031 58.976562 C 382.574219 47.042969 388.21875 34.65625 392.78125 21.753906 C 394.605469 16.613281 389.074219 13.304688 384.683594 12.503906 Z M 37.195312 106.589844 C 33.089844 105.90625 24.023438 105.964844 22.140625 111.160156 C 17.578125 124.003906 11.929688 136.449219 5.316406 148.382812 C 0.238281 157.574219 23.90625 161.34375 28.46875 153.0625 C 35.085938 141.132812 40.730469 128.742188 45.292969 115.839844 C 47.121094 110.703125 41.585938 107.390625 37.195312 106.589844 Z M 37.195312 106.589844 " fill-opacity="1" fill-rule="nonzero"/><path fill="#f19d42" d="M 159.46875 131.941406 C 166.769531 142.160156 143.613281 145.925781 138.253906 138.5625 C 129.929688 126.859375 122.570312 114.585938 116.242188 101.679688 C 113.730469 96.542969 121.429688 93.515625 125.023438 93.0625 C 130.097656 92.375 137.285156 93.574219 139.738281 98.65625 C 145.441406 110.246094 151.941406 121.378906 159.46875 131.941406 Z M 513.972656 57.949219 C 503.648438 50.183594 494.011719 41.5625 485.113281 32.199219 C 481.238281 28.148438 474.050781 29.175781 469.433594 31.289062 C 466.125 32.828125 459.738281 38.023438 463.671875 42.191406 C 473.59375 52.582031 484.375 62.058594 495.835938 70.625 C 503.078125 76.105469 524.011719 65.542969 513.972656 57.949219 Z M 513.972656 57.949219 " fill-opacity="1" fill-rule="nonzero"/><path fill="#4aa6b8" d="M 127.078125 33.570312 C 123.199219 37.394531 115.15625 37.851562 110.421875 35.570312 C 97.304688 29.230469 84.703125 22.039062 72.839844 13.644531 C 68.5625 10.621094 68.5625 5.996094 73.183594 3.371094 C 78.03125 0.628906 85.730469 0.742188 90.292969 3.996094 C 100.671875 11.304688 111.5625 17.929688 123.027344 23.464844 C 126.960938 25.351562 131.238281 29.402344 127.078125 33.570312 Z M 389.246094 103.335938 C 376.699219 105.335938 363.925781 106.078125 351.207031 105.964844 C 345.617188 105.90625 339.230469 110.1875 336.777344 115.210938 C 334.441406 120.007812 337.121094 123.832031 342.308594 123.890625 C 356.851562 124.003906 371.28125 122.804688 385.652344 120.523438 C 390.84375 119.722656 397.171875 114.699219 398.199219 109.390625 C 399.339844 103.507812 393.582031 102.652344 389.246094 103.335938 Z M 389.246094 103.335938 " fill-opacity="1" fill-rule="nonzero"/></g></g></g><g mask="url(#fcb69a5f9f)"><g transform="matrix(1, 0, 0, 1, 431, 404)"><g clip-path="url(#065e56f1e8)"><path fill="#1a4b93" d="M 473 170.59375 C 470.664062 175.445312 462.507812 176.359375 457.945312 175.160156 C 443.800781 171.449219 430 166.710938 416.652344 160.660156 C 412.660156 158.832031 408.5 154.664062 412.660156 150.554688 C 416.597656 146.671875 424.523438 146.386719 429.316406 148.554688 C 440.835938 153.75 452.867188 158.203125 464.902344 161.402344 C 468.667969 162.429688 475.511719 165.398438 473 170.59375 Z M 296.777344 33.34375 C 292.097656 30.261719 284.683594 30.089844 279.722656 32.773438 C 268.488281 38.882812 256.910156 44.019531 244.878906 48.1875 C 240.714844 49.617188 236.4375 53.667969 240.199219 57.949219 C 243.851562 62.117188 251.722656 62.859375 256.625 61.148438 C 270.371094 56.410156 283.660156 50.585938 296.433594 43.621094 C 300.996094 41.167969 300.996094 36.199219 296.777344 33.34375 Z M 296.777344 33.34375 " fill-opacity="1" fill-rule="nonzero"/><path fill="#ffbfb6" d="M 260.675781 133.3125 C 251.492188 143.359375 241.457031 152.609375 230.734375 161 C 226.113281 164.597656 219.5 165.167969 214.082031 163 C 210.429688 161.515625 205.527344 156.433594 210.089844 152.894531 C 220.8125 144.503906 230.792969 135.253906 240.03125 125.207031 C 243.792969 121.039062 252.007812 121.324219 256.683594 123.207031 C 261.015625 124.917969 264.4375 129.203125 260.675781 133.3125 Z M 385.515625 12.734375 C 381.410156 11.992188 372.339844 12.105469 370.460938 17.300781 C 365.839844 30.148438 360.25 42.59375 353.636719 54.527344 C 348.558594 63.71875 372.226562 67.484375 376.789062 59.207031 C 383.40625 47.273438 389.050781 34.886719 393.613281 21.984375 C 395.4375 16.84375 389.90625 13.535156 385.515625 12.734375 Z M 38.027344 106.820312 C 33.921875 106.136719 24.851562 106.195312 22.972656 111.390625 C 18.410156 124.234375 12.761719 136.679688 6.148438 148.613281 C 1.070312 157.804688 24.738281 161.574219 29.300781 153.292969 C 35.917969 141.363281 41.5625 128.972656 46.125 116.070312 C 47.949219 110.933594 42.417969 107.621094 38.027344 106.820312 Z M 38.027344 106.820312 " fill-opacity="1" fill-rule="nonzero"/><path fill="#f19d42" d="M 160.300781 132.171875 C 167.601562 142.390625 144.445312 146.15625 139.085938 138.792969 C 130.757812 127.089844 123.402344 114.816406 117.070312 101.910156 C 114.5625 96.773438 122.261719 93.746094 125.855469 93.289062 C 130.929688 92.605469 138.117188 93.804688 140.570312 98.886719 C 146.273438 110.476562 152.773438 121.609375 160.300781 132.171875 Z M 514.804688 58.179688 C 504.480469 50.414062 494.84375 41.792969 485.945312 32.429688 C 482.070312 28.378906 474.882812 29.40625 470.261719 31.519531 C 466.957031 33.058594 460.566406 38.253906 464.503906 42.421875 C 474.425781 52.8125 485.207031 62.289062 496.667969 70.855469 C 503.910156 76.335938 524.839844 65.773438 514.804688 58.179688 Z M 514.804688 58.179688 " fill-opacity="1" fill-rule="nonzero"/><path fill="#4aa6b8" d="M 127.90625 33.800781 C 124.03125 37.625 115.988281 38.082031 111.253906 35.800781 C 98.136719 29.460938 85.535156 22.269531 73.671875 13.875 C 69.394531 10.851562 69.394531 6.226562 74.011719 3.601562 C 78.859375 0.859375 86.558594 0.972656 91.121094 4.226562 C 101.503906 11.535156 112.394531 18.15625 123.859375 23.695312 C 127.792969 25.582031 132.070312 29.632812 127.90625 33.800781 Z M 390.078125 103.566406 C 377.53125 105.566406 364.757812 106.308594 352.039062 106.195312 C 346.449219 106.136719 340.0625 110.417969 337.609375 115.441406 C 335.269531 120.238281 337.953125 124.0625 343.140625 124.121094 C 357.683594 124.234375 372.113281 123.035156 386.484375 120.753906 C 391.675781 119.953125 398.003906 114.929688 399.03125 109.621094 C 400.171875 103.738281 394.414062 102.882812 390.078125 103.566406 Z M 390.078125 103.566406 " fill-opacity="1" fill-rule="nonzero"/></g></g></g><g mask="url(#3bc5494544)"><g transform="matrix(1, 0, 0, 1, 915, 404)"><g clip-path="url(#08fb49ed6e)"><path fill="#1a4b93" d="M 472.847656 170.59375 C 470.507812 175.445312 462.351562 176.359375 457.789062 175.160156 C 443.648438 171.449219 429.84375 166.710938 416.5 160.660156 C 412.507812 158.832031 408.34375 154.664062 412.507812 150.554688 C 416.441406 146.671875 424.371094 146.386719 429.160156 148.554688 C 440.679688 153.75 452.714844 158.203125 464.75 161.402344 C 468.511719 162.429688 475.355469 165.398438 472.847656 170.59375 Z M 296.621094 33.34375 C 291.945312 30.261719 284.53125 30.089844 279.570312 32.773438 C 268.335938 38.882812 256.757812 44.019531 244.722656 48.1875 C 240.558594 49.617188 236.28125 53.667969 240.046875 57.949219 C 243.695312 62.117188 251.566406 62.859375 256.472656 61.148438 C 270.214844 56.410156 283.503906 50.585938 296.28125 43.621094 C 300.84375 41.167969 300.84375 36.199219 296.621094 33.34375 Z M 296.621094 33.34375 " fill-opacity="1" fill-rule="nonzero"/><path fill="#ffbfb6" d="M 260.519531 133.3125 C 251.339844 143.359375 241.300781 152.609375 230.578125 161 C 225.960938 164.597656 219.34375 165.167969 213.925781 163 C 210.277344 161.515625 205.371094 156.433594 209.933594 152.894531 C 220.65625 144.503906 230.636719 135.253906 239.875 125.207031 C 243.640625 121.039062 251.851562 121.324219 256.527344 123.207031 C 260.863281 124.917969 264.285156 129.203125 260.519531 133.3125 Z M 385.363281 12.734375 C 381.253906 11.992188 372.1875 12.105469 370.304688 17.300781 C 365.6875 30.148438 360.097656 42.59375 353.480469 54.527344 C 348.40625 63.71875 372.074219 67.484375 376.636719 59.207031 C 383.25 47.273438 388.898438 34.886719 393.460938 21.984375 C 395.285156 16.84375 389.753906 13.535156 385.363281 12.734375 Z M 37.875 106.820312 C 33.765625 106.136719 24.699219 106.195312 22.816406 111.390625 C 18.253906 124.234375 12.609375 136.679688 5.992188 148.613281 C 0.917969 157.804688 24.585938 161.574219 29.148438 153.292969 C 35.761719 141.363281 41.410156 128.972656 45.972656 116.070312 C 47.796875 110.933594 42.265625 107.621094 37.875 106.820312 Z M 37.875 106.820312 " fill-opacity="1" fill-rule="nonzero"/><path fill="#f19d42" d="M 160.148438 132.171875 C 167.445312 142.390625 144.292969 146.15625 138.929688 138.792969 C 130.605469 127.089844 123.25 114.816406 116.917969 101.910156 C 114.410156 96.773438 122.109375 93.746094 125.699219 93.289062 C 130.777344 92.605469 137.960938 93.804688 140.414062 98.886719 C 146.117188 110.476562 152.617188 121.609375 160.148438 132.171875 Z M 514.648438 58.179688 C 504.328125 50.414062 494.6875 41.792969 485.792969 32.429688 C 481.914062 28.378906 474.726562 29.40625 470.109375 31.519531 C 466.800781 33.058594 460.414062 38.253906 464.347656 42.421875 C 474.273438 52.8125 485.050781 62.289062 496.515625 70.855469 C 503.757812 76.335938 524.6875 65.773438 514.648438 58.179688 Z M 514.648438 58.179688 " fill-opacity="1" fill-rule="nonzero"/><path fill="#4aa6b8" d="M 127.753906 33.800781 C 123.875 37.625 115.835938 38.082031 111.101562 35.800781 C 97.984375 29.460938 85.378906 22.269531 73.515625 13.875 C 69.238281 10.851562 69.238281 6.226562 73.859375 3.601562 C 78.707031 0.859375 86.40625 0.972656 90.96875 4.226562 C 101.347656 11.535156 112.242188 18.15625 123.703125 23.695312 C 127.640625 25.582031 131.917969 29.632812 127.753906 33.800781 Z M 389.925781 103.566406 C 377.378906 105.566406 364.601562 106.308594 351.882812 106.195312 C 346.296875 106.136719 339.90625 110.417969 337.457031 115.441406 C 335.117188 120.238281 337.796875 124.0625 342.988281 124.121094 C 357.53125 124.234375 371.960938 123.035156 386.332031 120.753906 C 391.519531 119.953125 397.851562 114.929688 398.878906 109.621094 C 400.019531 103.738281 394.257812 102.882812 389.925781 103.566406 Z M 389.925781 103.566406 " fill-opacity="1" fill-rule="nonzero"/></g></g></g><g mask="url(#4773b4a790)"><g transform="matrix(1, 0, 0, 1, 120, 151)"><g clip-path="url(#3e29ff5413)"><g fill="#e8b562" fill-opacity="1"><g transform="translate(0.962117, 316.970052)"><g><path d="M 14.949219 -84.492188 C 15.273438 -84.492188 15.273438 -84.492188 15.273438 -84.492188 C 15.273438 -76.042969 15.273438 -67.59375 15.273438 -59.46875 C 15.273438 -46.796875 14.949219 -34.121094 14.625 -21.449219 C 14.625 -15.273438 14.296875 -9.097656 13.972656 -2.925781 C 13.648438 2.273438 16.25 3.25 20.472656 3.25 C 20.796875 3.25 21.449219 2.925781 22.097656 2.925781 C 23.722656 2.925781 25.671875 2.601562 27.621094 2.601562 C 29.574219 2.601562 31.847656 3.25 33.796875 3.574219 C 41.273438 3.574219 48.421875 3.898438 55.894531 3.898438 C 58.820312 3.898438 60.769531 1.949219 60.769531 -1.300781 C 61.417969 -13.324219 61.746094 -25.347656 62.070312 -37.695312 C 62.394531 -45.171875 62.070312 -52.96875 62.394531 -60.769531 C 62.394531 -63.042969 62.394531 -63.042969 64.667969 -63.042969 C 66.945312 -63.371094 69.21875 -63.371094 71.167969 -63.695312 C 74.417969 -64.019531 77.34375 -64.34375 80.59375 -64.667969 C 83.519531 -64.667969 86.441406 -64.996094 89.367188 -65.320312 C 91.96875 -65.644531 94.890625 -66.292969 97.492188 -66.945312 C 102.691406 -67.917969 107.566406 -69.21875 112.117188 -71.820312 C 115.691406 -74.09375 119.265625 -75.71875 123.164062 -77.34375 C 129.015625 -79.617188 133.890625 -83.191406 137.789062 -88.066406 C 141.6875 -93.265625 145.261719 -98.792969 147.863281 -104.640625 C 152.414062 -115.039062 155.011719 -125.441406 155.335938 -136.488281 C 155.988281 -151.761719 155.011719 -167.359375 151.4375 -182.308594 C 149.8125 -190.109375 146.5625 -196.933594 143.636719 -204.082031 C 142.664062 -205.707031 141.363281 -207.007812 140.386719 -208.632812 C 139.738281 -209.609375 138.761719 -210.582031 137.789062 -211.882812 C 132.589844 -218.707031 125.765625 -223.257812 117.316406 -225.53125 C 116.015625 -225.855469 114.390625 -226.179688 113.089844 -226.832031 C 109.515625 -228.132812 105.941406 -228.457031 102.042969 -228.457031 C 99.765625 -228.457031 97.816406 -228.457031 95.867188 -228.457031 C 84.492188 -228.78125 73.117188 -229.105469 61.417969 -229.429688 C 56.871094 -229.429688 52.644531 -229.429688 48.097656 -229.429688 C 39.320312 -229.757812 30.546875 -229.757812 21.773438 -229.757812 C 16.574219 -229.757812 14.296875 -227.480469 13.972656 -222.605469 C 13 -214.480469 13 -206.359375 13 -198.558594 C 13 -195.632812 13 -193.035156 13.324219 -190.109375 C 13.648438 -180.035156 14.949219 -169.960938 14.949219 -159.886719 C 15.273438 -134.863281 14.949219 -109.515625 14.949219 -84.492188 Z M 62.71875 -146.238281 C 62.71875 -158.585938 62.394531 -170.9375 62.394531 -183.285156 C 62.394531 -185.558594 62.394531 -185.558594 64.667969 -185.558594 C 71.492188 -185.558594 78.320312 -185.882812 85.46875 -185.882812 C 90.667969 -185.882812 95.542969 -184.257812 100.089844 -182.308594 C 102.367188 -181.335938 103.992188 -179.710938 104.964844 -177.109375 C 107.242188 -172.5625 108.539062 -168.011719 108.539062 -162.8125 C 108.867188 -154.363281 109.191406 -145.914062 107.890625 -137.464844 C 107.242188 -131.289062 104.964844 -125.765625 102.691406 -120.566406 C 102.042969 -119.265625 101.066406 -117.964844 100.742188 -116.339844 C 99.441406 -113.089844 96.84375 -110.816406 93.59375 -109.839844 C 90.015625 -108.539062 86.117188 -107.566406 82.542969 -106.917969 C 77.019531 -105.941406 71.167969 -105.941406 65.644531 -105.941406 C 63.695312 -105.941406 63.371094 -105.941406 63.371094 -107.890625 C 63.042969 -109.839844 63.371094 -111.789062 63.371094 -113.742188 C 63.371094 -124.464844 63.042969 -135.515625 63.042969 -146.238281 C 63.042969 -146.238281 63.042969 -146.238281 62.71875 -146.238281 Z M 62.71875 -146.238281 "/></g></g></g><g fill="#f67e7e" fill-opacity="1"><g transform="translate(163.131027, 316.970052)"><g><path d="M 15.921875 -109.515625 C 15.597656 -102.042969 15.273438 -89.691406 14.949219 -77.34375 C 14.625 -63.695312 14.296875 -50.371094 13.972656 -36.722656 C 13.648438 -27.296875 13.648438 -17.546875 13.324219 -7.800781 C 13 -4.226562 14.949219 -1.625 16.574219 0.976562 C 16.898438 1.625 17.875 2.273438 18.847656 2.601562 C 22.097656 3.25 25.347656 4.550781 28.273438 4.550781 C 34.773438 4.875 41.273438 4.875 47.445312 4.550781 C 53.621094 4.226562 59.796875 3.574219 65.96875 3.25 C 74.417969 3.25 83.519531 3.25 91.96875 2.925781 C 97.816406 2.601562 103.339844 1.949219 108.867188 1.949219 C 119.914062 1.625 130.640625 1.625 141.6875 1.300781 C 143.3125 1.300781 144.9375 1.300781 145.914062 0 C 148.1875 -2.601562 149.8125 -5.199219 149.8125 -8.773438 C 150.136719 -16.25 148.835938 -23.722656 148.511719 -31.199219 C 148.511719 -33.796875 148.511719 -37.046875 145.589844 -38.996094 C 145.589844 -38.996094 145.589844 -39.320312 145.261719 -39.648438 C 143.636719 -42.570312 140.386719 -44.195312 137.136719 -43.546875 C 135.839844 -43.546875 134.539062 -43.222656 133.238281 -43.546875 C 129.339844 -43.546875 125.113281 -43.871094 121.214844 -43.871094 C 115.039062 -43.546875 108.867188 -42.894531 102.691406 -42.894531 C 91.640625 -42.570312 80.59375 -42.570312 69.871094 -42.570312 C 66.945312 -42.246094 66.945312 -42.570312 66.945312 -45.171875 C 66.945312 -51.996094 66.945312 -58.820312 66.945312 -65.320312 C 66.621094 -77.34375 66.621094 -89.042969 66.621094 -100.742188 C 66.621094 -104.964844 66.945312 -104.964844 71.167969 -104.964844 C 78.644531 -105.617188 86.117188 -105.941406 93.59375 -106.589844 C 100.417969 -106.917969 106.917969 -107.890625 113.742188 -108.539062 C 116.664062 -108.539062 119.914062 -108.539062 123.164062 -108.539062 C 125.765625 -108.867188 127.390625 -110.164062 127.390625 -113.089844 C 127.390625 -120.566406 127.390625 -127.714844 127.0625 -134.863281 C 127.0625 -138.113281 126.738281 -141.363281 126.414062 -144.613281 C 126.089844 -146.886719 126.089844 -146.886719 123.816406 -146.886719 C 121.539062 -146.886719 119.589844 -146.886719 117.316406 -146.886719 C 108.539062 -146.886719 99.441406 -147.210938 90.34375 -146.886719 C 83.191406 -146.886719 76.042969 -146.5625 68.570312 -146.5625 C 66.292969 -146.5625 65.96875 -146.5625 65.96875 -149.164062 C 66.292969 -158.261719 66.621094 -167.359375 66.621094 -176.785156 C 66.945312 -178.734375 66.945312 -178.734375 68.894531 -179.058594 C 76.367188 -180.035156 84.167969 -180.359375 91.640625 -180.683594 C 100.742188 -180.683594 109.515625 -180.683594 118.613281 -181.011719 C 125.113281 -181.335938 131.9375 -181.660156 138.4375 -181.984375 C 141.039062 -182.308594 143.636719 -182.636719 145.261719 -184.910156 C 146.5625 -186.859375 147.539062 -189.132812 147.210938 -191.410156 C 146.886719 -201.484375 146.5625 -211.558594 146.238281 -221.632812 C 145.914062 -227.15625 142.988281 -231.054688 137.136719 -231.378906 C 136.164062 -231.378906 134.863281 -231.378906 134.214844 -231.054688 C 130.964844 -230.40625 128.039062 -230.730469 125.113281 -230.730469 C 118.941406 -230.730469 112.765625 -231.054688 106.917969 -231.054688 C 103.015625 -231.054688 99.441406 -231.378906 95.867188 -231.378906 C 82.21875 -231.378906 68.246094 -231.054688 54.59375 -231.054688 C 53.621094 -231.054688 52.644531 -230.730469 51.347656 -230.730469 C 45.496094 -230.730469 39.320312 -230.730469 33.148438 -230.730469 C 30.222656 -230.730469 26.972656 -230.730469 24.046875 -230.730469 C 19.5 -230.082031 17.222656 -227.804688 17.222656 -223.257812 C 16.898438 -221.957031 17.222656 -220.980469 17.222656 -220.007812 C 17.222656 -215.457031 17.546875 -210.90625 17.546875 -206.359375 C 16.898438 -175.808594 16.574219 -145.261719 15.921875 -109.515625 Z M 15.921875 -109.515625 "/></g></g></g><g fill="#f797d3" fill-opacity="1"><g transform="translate(326.266461, 316.970052)"><g><path d="M 62.394531 -31.199219 C 62.394531 -33.148438 62.394531 -34.773438 62.394531 -36.722656 C 62.394531 -44.847656 62.394531 -52.96875 62.71875 -60.769531 C 62.71875 -63.042969 62.71875 -63.042969 64.667969 -63.042969 C 67.59375 -63.371094 70.195312 -63.695312 73.117188 -64.019531 C 75.394531 -64.019531 77.667969 -64.34375 79.617188 -64.667969 C 81.242188 -64.667969 82.21875 -64.019531 82.542969 -62.71875 C 84.492188 -58.820312 86.769531 -54.921875 88.71875 -50.695312 C 92.617188 -41.921875 96.515625 -32.824219 101.066406 -23.722656 C 105.292969 -15.597656 110.164062 -7.472656 114.714844 0.648438 C 115.039062 0.976562 115.039062 1.300781 115.367188 1.300781 C 116.015625 2.925781 117.316406 3.574219 118.941406 3.25 C 121.214844 3.25 123.164062 3.25 125.113281 3.25 C 134.539062 3.25 143.964844 3.25 153.386719 3.25 C 155.335938 2.925781 156.960938 2.925781 158.910156 2.601562 C 162.488281 1.949219 165.085938 -1.949219 164.113281 -5.523438 C 163.136719 -8.125 161.835938 -11.050781 160.535156 -13.648438 C 159.886719 -15.597656 158.585938 -17.222656 157.9375 -18.847656 C 155.335938 -25.671875 152.738281 -32.171875 150.136719 -38.996094 C 148.1875 -42.894531 146.238281 -47.121094 144.613281 -51.019531 C 143.3125 -53.945312 142.339844 -56.871094 140.714844 -59.46875 C 137.464844 -65.96875 134.214844 -72.46875 130.640625 -78.96875 C 129.988281 -79.941406 129.988281 -80.917969 131.289062 -81.566406 C 133.5625 -83.84375 136.164062 -85.46875 137.789062 -88.066406 C 141.6875 -93.265625 145.589844 -98.46875 147.863281 -104.316406 C 152.738281 -115.691406 155.988281 -127.390625 155.660156 -140.0625 C 155.660156 -147.863281 155.335938 -155.660156 154.6875 -163.460938 C 153.710938 -177.761719 149.8125 -191.085938 143.964844 -203.757812 C 142.988281 -205.382812 142.011719 -207.007812 140.714844 -208.632812 C 140.0625 -209.609375 139.089844 -210.582031 138.113281 -211.882812 C 132.914062 -218.707031 125.765625 -223.257812 117.640625 -225.53125 C 116.339844 -225.855469 115.039062 -226.179688 113.742188 -226.507812 C 109.839844 -228.132812 105.941406 -228.457031 102.042969 -228.457031 C 100.089844 -228.457031 98.140625 -228.457031 96.191406 -228.457031 C 85.46875 -228.78125 75.070312 -229.105469 64.667969 -229.429688 C 56.871094 -229.757812 49.070312 -229.757812 40.945312 -229.757812 C 34.773438 -229.757812 28.273438 -230.082031 21.773438 -229.757812 C 16.574219 -229.429688 14.625 -227.480469 14.296875 -222.929688 C 13.972656 -215.457031 13.648438 -208.308594 13.324219 -201.160156 C 13 -197.582031 13.324219 -194.007812 13.324219 -190.433594 C 13.648438 -185.234375 14.625 -180.035156 14.625 -174.835938 C 15.273438 -166.386719 15.273438 -158.261719 15.597656 -150.136719 C 15.597656 -124.789062 15.597656 -99.441406 15.597656 -74.09375 C 15.921875 -50.046875 15.273438 -26.324219 14.296875 -2.601562 C 13.972656 1.625 15.597656 3.25 19.824219 3.25 C 21.773438 3.25 23.722656 3.25 25.671875 3.574219 C 30.546875 3.574219 35.097656 4.226562 39.972656 4.550781 C 44.847656 4.550781 49.394531 4.550781 54.269531 4.550781 C 58.820312 4.550781 60.769531 2.273438 61.09375 -2.273438 C 61.417969 -11.699219 62.070312 -21.449219 62.394531 -31.199219 Z M 63.042969 -145.914062 C 63.042969 -158.585938 62.71875 -170.9375 62.71875 -183.285156 C 62.71875 -185.558594 62.71875 -185.558594 64.996094 -185.558594 C 71.820312 -185.558594 78.644531 -185.882812 85.46875 -185.882812 C 90.667969 -185.882812 95.867188 -184.257812 100.417969 -182.308594 C 102.691406 -181.335938 104.316406 -179.710938 105.292969 -177.109375 C 107.566406 -172.5625 108.867188 -168.011719 108.867188 -162.8125 C 109.191406 -154.363281 109.515625 -145.914062 108.214844 -137.464844 C 107.566406 -131.289062 105.292969 -125.765625 103.015625 -120.566406 C 102.042969 -119.265625 101.390625 -117.964844 101.066406 -116.339844 C 99.441406 -113.089844 97.167969 -110.816406 93.917969 -109.839844 C 90.34375 -108.539062 86.441406 -107.566406 82.542969 -106.917969 C 77.34375 -105.941406 71.492188 -105.941406 65.96875 -105.941406 C 64.019531 -105.941406 63.695312 -105.941406 63.695312 -107.890625 C 63.371094 -109.839844 63.695312 -111.464844 63.695312 -113.414062 C 63.695312 -124.140625 63.371094 -135.1875 63.371094 -145.914062 C 63.371094 -145.914062 63.371094 -145.914062 63.042969 -145.914062 Z M 63.042969 -145.914062 "/></g></g></g><g fill="#83c467" fill-opacity="1"><g transform="translate(503.727172, 316.970052)"><g><path d="M 13.648438 -112.117188 C 13.648438 -97.816406 13.648438 -83.191406 13.324219 -68.894531 C 13.324219 -62.394531 13.324219 -55.894531 13.324219 -49.070312 C 13.324219 -34.121094 13.324219 -18.847656 13.648438 -3.574219 C 13.648438 0.324219 13.648438 0.648438 17.875 1.300781 C 18.523438 1.300781 19.171875 1.300781 19.824219 1.300781 C 23.398438 1.300781 26.972656 0.976562 30.222656 1.300781 C 37.695312 1.949219 45.171875 1.949219 52.644531 1.949219 C 53.945312 1.949219 54.921875 1.625 55.894531 1.625 C 58.820312 0.976562 60.121094 -0.648438 60.445312 -3.574219 C 60.445312 -10.398438 60.769531 -17.546875 60.769531 -24.371094 C 60.445312 -39.972656 60.121094 -55.570312 60.121094 -71.167969 C 60.121094 -80.269531 60.445312 -89.367188 60.769531 -98.46875 C 60.769531 -99.765625 61.09375 -100.417969 62.394531 -100.417969 C 65.320312 -100.417969 68.246094 -100.742188 71.167969 -100.742188 C 80.59375 -101.066406 89.691406 -101.066406 98.792969 -100.417969 C 104.964844 -100.089844 111.464844 -100.417969 117.640625 -100.742188 C 119.589844 -101.066406 120.238281 -101.714844 120.238281 -103.992188 C 120.238281 -106.589844 120.566406 -109.191406 120.566406 -111.789062 C 120.566406 -118.941406 120.566406 -125.765625 120.238281 -132.589844 C 120.238281 -134.214844 119.589844 -135.839844 118.941406 -137.136719 C 117.640625 -139.738281 115.367188 -140.386719 112.765625 -140.714844 C 103.667969 -140.714844 94.566406 -141.039062 85.792969 -141.039062 C 85.144531 -141.039062 84.492188 -141.039062 83.84375 -141.039062 C 77.667969 -140.714844 71.167969 -140.386719 64.667969 -140.0625 C 63.042969 -140.0625 62.71875 -140.386719 62.71875 -142.339844 C 62.71875 -144.9375 63.042969 -147.539062 62.71875 -150.136719 C 62.71875 -160.535156 62.394531 -170.609375 62.394531 -181.011719 C 62.394531 -183.285156 62.394531 -183.285156 64.667969 -183.609375 C 69.21875 -183.933594 73.769531 -184.257812 78.320312 -184.585938 C 83.519531 -184.585938 89.042969 -185.234375 94.242188 -185.234375 C 101.066406 -185.558594 107.566406 -185.558594 114.390625 -185.558594 C 117.640625 -185.558594 121.214844 -185.558594 124.464844 -185.882812 C 129.664062 -186.535156 131.9375 -187.835938 132.589844 -193.359375 C 133.890625 -203.109375 133.890625 -212.855469 133.5625 -222.605469 C 133.5625 -223.582031 133.5625 -224.230469 133.238281 -224.882812 C 132.265625 -228.132812 130.964844 -230.730469 127.0625 -231.054688 C 123.488281 -231.707031 119.914062 -232.355469 116.339844 -232.355469 C 111.140625 -232.679688 105.941406 -232.355469 100.742188 -232.355469 C 83.84375 -232.355469 67.269531 -232.355469 50.371094 -232.355469 C 40.945312 -232.03125 31.199219 -231.054688 21.773438 -229.757812 C 19.171875 -229.429688 16.898438 -228.457031 15.273438 -226.507812 C 14.296875 -225.855469 13.648438 -224.230469 13.648438 -223.257812 C 13.324219 -220.007812 13 -216.757812 13.324219 -213.507812 C 13.324219 -193.359375 13.648438 -172.886719 13.648438 -152.414062 C 13.648438 -139.089844 13.648438 -125.765625 13.648438 -112.117188 Z M 13.648438 -112.117188 "/></g></g></g><g fill="#38b6ff" fill-opacity="1"><g transform="translate(644.114764, 316.970052)"><g><path d="M 53.945312 -202.78125 C 53.621094 -202.78125 53.621094 -202.78125 53.621094 -202.78125 C 53.621094 -210.582031 53.621094 -218.707031 53.621094 -226.507812 C 53.621094 -230.40625 51.996094 -231.707031 48.097656 -231.378906 C 45.496094 -231.054688 42.894531 -231.054688 40.621094 -231.054688 C 36.070312 -231.054688 31.199219 -231.054688 26.648438 -231.054688 C 23.722656 -231.054688 21.125 -230.730469 18.199219 -230.40625 C 15.597656 -230.082031 14.296875 -228.78125 13.972656 -226.179688 C 13.648438 -222.28125 13.324219 -218.382812 13.324219 -214.480469 C 13.324219 -208.308594 13.648438 -202.132812 13.648438 -195.957031 C 13.648438 -187.507812 13.648438 -178.734375 13.648438 -169.960938 C 13.648438 -166.386719 13.972656 -162.8125 13.972656 -159.238281 C 13.972656 -141.363281 14.296875 -123.488281 13.972656 -105.617188 C 13.972656 -92.617188 13.972656 -79.292969 13.324219 -65.96875 C 13 -52.644531 13 -38.996094 13.324219 -25.347656 C 13.648438 -18.847656 13.324219 -12.023438 13.324219 -5.523438 C 13.324219 -3.574219 13 -1.949219 13 0 C 13 2.601562 13.972656 3.25 16.574219 3.574219 C 17.222656 3.574219 17.875 3.574219 18.523438 3.574219 C 28.273438 3.574219 38.023438 3.574219 47.769531 3.25 C 49.394531 3.25 51.347656 2.273438 51.996094 0 C 51.996094 -0.648438 52.320312 -1.625 52.320312 -2.601562 C 52.644531 -13.324219 52.96875 -24.371094 53.296875 -35.421875 C 53.296875 -38.023438 53.621094 -40.945312 53.621094 -43.546875 C 53.945312 -48.421875 54.269531 -53.296875 54.269531 -58.171875 C 54.59375 -70.195312 54.59375 -82.21875 54.59375 -93.917969 C 54.59375 -98.140625 54.269531 -102.367188 54.269531 -106.589844 C 53.945312 -112.441406 53.621094 -118.613281 53.621094 -124.464844 C 53.621094 -130.3125 53.945312 -136.164062 53.945312 -141.6875 C 53.945312 -152.085938 53.621094 -162.160156 53.621094 -172.234375 C 53.621094 -174.511719 53.945312 -176.785156 53.945312 -179.386719 C 53.945312 -187.183594 53.945312 -194.984375 53.945312 -202.78125 Z M 53.945312 -202.78125 "/></g></g></g><g fill="#ef811b" fill-opacity="1"><g transform="translate(711.736932, 316.970052)"><g><path d="M 13.648438 -89.042969 C 13.648438 -73.117188 13.324219 -56.871094 13.648438 -40.945312 C 13.648438 -28.597656 13.972656 -16.25 14.296875 -4.226562 C 14.625 1.625 16.25 2.925781 21.773438 2.925781 C 29.246094 2.601562 36.722656 1.300781 44.195312 1.625 C 48.421875 1.625 52.320312 1.300781 56.546875 1.300781 C 64.019531 1.625 71.492188 1.949219 78.96875 2.273438 C 89.691406 2.601562 100.417969 2.273438 110.816406 1.625 C 112.765625 1.300781 115.039062 0.976562 116.664062 0.324219 C 119.589844 -0.324219 120.238281 -1.300781 120.566406 -4.226562 C 120.566406 -4.875 120.566406 -5.199219 120.566406 -6.175781 C 120.890625 -11.699219 120.890625 -17.222656 121.214844 -23.074219 C 121.539062 -26.972656 121.539062 -30.546875 121.539062 -34.445312 C 121.539062 -37.371094 119.914062 -39.972656 117.964844 -40.621094 C 116.015625 -40.945312 114.390625 -41.273438 112.441406 -41.273438 C 108.214844 -41.597656 103.667969 -41.597656 99.117188 -41.921875 C 87.09375 -42.246094 75.070312 -43.871094 63.042969 -43.871094 C 61.746094 -43.871094 60.769531 -43.871094 59.46875 -43.871094 C 58.171875 -43.871094 57.84375 -44.195312 57.84375 -45.496094 C 57.84375 -51.019531 58.171875 -56.871094 58.171875 -62.71875 C 57.84375 -80.59375 57.84375 -98.792969 57.519531 -116.664062 C 57.195312 -125.441406 56.546875 -134.539062 56.871094 -143.3125 C 57.195312 -167.6875 56.21875 -191.734375 55.246094 -216.105469 C 55.246094 -219.683594 55.246094 -223.257812 55.246094 -226.832031 C 55.246094 -228.78125 53.945312 -230.40625 51.671875 -230.40625 C 50.371094 -230.730469 49.070312 -230.730469 47.445312 -230.730469 C 38.671875 -230.40625 29.898438 -230.40625 20.796875 -230.082031 C 16.574219 -230.082031 14.625 -229.757812 14.296875 -223.582031 C 13.972656 -218.058594 13.972656 -212.855469 13.972656 -207.007812 C 13.648438 -203.757812 13.648438 -200.507812 13.324219 -197.257812 C 13.324219 -191.734375 13 -186.210938 13 -181.011719 C 13 -173.210938 13.324219 -165.410156 13.648438 -157.613281 C 13.648438 -134.863281 13.648438 -111.789062 13.648438 -89.042969 Z M 13.648438 -89.042969 "/></g></g></g><g fill="#f4cf5d" fill-opacity="1"><g transform="translate(846.290873, 316.970052)"><g><path d="M 15.921875 -109.515625 C 15.597656 -102.042969 15.273438 -89.691406 14.949219 -77.34375 C 14.625 -63.695312 14.296875 -50.371094 13.972656 -36.722656 C 13.648438 -27.296875 13.648438 -17.546875 13.324219 -7.800781 C 13 -4.226562 14.949219 -1.625 16.574219 0.976562 C 16.898438 1.625 17.875 2.273438 18.847656 2.601562 C 22.097656 3.25 25.347656 4.550781 28.273438 4.550781 C 34.773438 4.875 41.273438 4.875 47.445312 4.550781 C 53.621094 4.226562 59.796875 3.574219 65.96875 3.25 C 74.417969 3.25 83.519531 3.25 91.96875 2.925781 C 97.816406 2.601562 103.339844 1.949219 108.867188 1.949219 C 119.914062 1.625 130.640625 1.625 141.6875 1.300781 C 143.3125 1.300781 144.9375 1.300781 145.914062 0 C 148.1875 -2.601562 149.8125 -5.199219 149.8125 -8.773438 C 150.136719 -16.25 148.835938 -23.722656 148.511719 -31.199219 C 148.511719 -33.796875 148.511719 -37.046875 145.589844 -38.996094 C 145.589844 -38.996094 145.589844 -39.320312 145.261719 -39.648438 C 143.636719 -42.570312 140.386719 -44.195312 137.136719 -43.546875 C 135.839844 -43.546875 134.539062 -43.222656 133.238281 -43.546875 C 129.339844 -43.546875 125.113281 -43.871094 121.214844 -43.871094 C 115.039062 -43.546875 108.867188 -42.894531 102.691406 -42.894531 C 91.640625 -42.570312 80.59375 -42.570312 69.871094 -42.570312 C 66.945312 -42.246094 66.945312 -42.570312 66.945312 -45.171875 C 66.945312 -51.996094 66.945312 -58.820312 66.945312 -65.320312 C 66.621094 -77.34375 66.621094 -89.042969 66.621094 -100.742188 C 66.621094 -104.964844 66.945312 -104.964844 71.167969 -104.964844 C 78.644531 -105.617188 86.117188 -105.941406 93.59375 -106.589844 C 100.417969 -106.917969 106.917969 -107.890625 113.742188 -108.539062 C 116.664062 -108.539062 119.914062 -108.539062 123.164062 -108.539062 C 125.765625 -108.867188 127.390625 -110.164062 127.390625 -113.089844 C 127.390625 -120.566406 127.390625 -127.714844 127.0625 -134.863281 C 127.0625 -138.113281 126.738281 -141.363281 126.414062 -144.613281 C 126.089844 -146.886719 126.089844 -146.886719 123.816406 -146.886719 C 121.539062 -146.886719 119.589844 -146.886719 117.316406 -146.886719 C 108.539062 -146.886719 99.441406 -147.210938 90.34375 -146.886719 C 83.191406 -146.886719 76.042969 -146.5625 68.570312 -146.5625 C 66.292969 -146.5625 65.96875 -146.5625 65.96875 -149.164062 C 66.292969 -158.261719 66.621094 -167.359375 66.621094 -176.785156 C 66.945312 -178.734375 66.945312 -178.734375 68.894531 -179.058594 C 76.367188 -180.035156 84.167969 -180.359375 91.640625 -180.683594 C 100.742188 -180.683594 109.515625 -180.683594 118.613281 -181.011719 C 125.113281 -181.335938 131.9375 -181.660156 138.4375 -181.984375 C 141.039062 -182.308594 143.636719 -182.636719 145.261719 -184.910156 C 146.5625 -186.859375 147.539062 -189.132812 147.210938 -191.410156 C 146.886719 -201.484375 146.5625 -211.558594 146.238281 -221.632812 C 145.914062 -227.15625 142.988281 -231.054688 137.136719 -231.378906 C 136.164062 -231.378906 134.863281 -231.378906 134.214844 -231.054688 C 130.964844 -230.40625 128.039062 -230.730469 125.113281 -230.730469 C 118.941406 -230.730469 112.765625 -231.054688 106.917969 -231.054688 C 103.015625 -231.054688 99.441406 -231.378906 95.867188 -231.378906 C 82.21875 -231.378906 68.246094 -231.054688 54.59375 -231.054688 C 53.621094 -231.054688 52.644531 -230.730469 51.347656 -230.730469 C 45.496094 -230.730469 39.320312 -230.730469 33.148438 -230.730469 C 30.222656 -230.730469 26.972656 -230.730469 24.046875 -230.730469 C 19.5 -230.082031 17.222656 -227.804688 17.222656 -223.257812 C 16.898438 -221.957031 17.222656 -220.980469 17.222656 -220.007812 C 17.222656 -215.457031 17.546875 -210.90625 17.546875 -206.359375 C 16.898438 -175.808594 16.574219 -145.261719 15.921875 -109.515625 Z M 15.921875 -109.515625 "/></g></g></g><g fill="#d8854d" fill-opacity="1"><g transform="translate(1009.426307, 316.970052)"><g><path d="M 83.84375 3.898438 C 93.59375 3.898438 103.015625 2.925781 112.117188 -1.625 C 114.066406 -2.925781 116.015625 -3.898438 117.964844 -4.875 C 124.464844 -9.425781 131.289062 -13.648438 136.164062 -20.148438 C 140.714844 -26.324219 145.261719 -32.171875 148.1875 -39.320312 C 154.363281 -53.296875 155.988281 -68.246094 153.0625 -83.519531 C 152.414062 -87.417969 150.789062 -91.640625 149.488281 -95.542969 C 148.511719 -97.816406 147.210938 -99.765625 146.238281 -102.042969 C 143.964844 -106.589844 140.386719 -110.164062 136.488281 -113.089844 C 134.863281 -114.066406 133.890625 -115.691406 132.265625 -116.992188 C 130.3125 -118.613281 128.039062 -120.238281 126.089844 -122.191406 C 122.191406 -125.441406 117.964844 -127.390625 113.414062 -129.664062 C 108.867188 -132.265625 103.992188 -134.214844 99.441406 -136.488281 C 98.140625 -137.136719 96.515625 -137.464844 95.21875 -138.4375 C 90.34375 -141.363281 84.816406 -144.289062 79.941406 -147.539062 C 76.695312 -149.488281 73.769531 -151.761719 71.492188 -154.6875 C 69.21875 -157.285156 67.917969 -160.210938 67.59375 -163.460938 C 67.269531 -166.0625 67.59375 -168.984375 68.246094 -171.585938 C 69.21875 -174.511719 71.492188 -177.109375 74.09375 -179.058594 C 76.695312 -181.335938 79.617188 -182.960938 82.867188 -182.960938 C 89.691406 -183.609375 96.84375 -183.609375 103.667969 -181.660156 C 107.566406 -180.683594 110.816406 -179.058594 113.414062 -176.136719 C 115.367188 -174.183594 117.964844 -172.5625 120.238281 -170.609375 C 120.890625 -170.285156 121.539062 -169.636719 122.191406 -169.636719 C 125.441406 -169.636719 128.363281 -169.960938 130.640625 -172.234375 C 132.914062 -174.511719 135.1875 -176.785156 137.136719 -179.058594 C 140.386719 -183.285156 143.636719 -187.183594 146.886719 -191.410156 C 149.164062 -194.332031 149.488281 -197.257812 147.863281 -200.507812 C 145.914062 -203.757812 143.3125 -206.683594 140.714844 -209.609375 C 137.136719 -214.480469 132.589844 -217.730469 127.714844 -220.980469 C 121.863281 -225.53125 115.367188 -228.132812 108.539062 -230.082031 C 103.015625 -231.707031 97.492188 -232.355469 91.96875 -232.355469 C 82.21875 -232.03125 72.792969 -231.054688 64.019531 -226.507812 C 62.070312 -225.53125 60.121094 -224.554688 58.171875 -223.257812 C 51.347656 -219.03125 44.847656 -214.480469 39.648438 -207.984375 C 35.097656 -201.808594 30.546875 -195.957031 27.621094 -188.808594 C 21.449219 -174.835938 19.824219 -159.886719 22.75 -144.9375 C 23.722656 -139.738281 25.671875 -134.214844 27.949219 -129.339844 C 29.898438 -125.113281 32.171875 -121.214844 35.746094 -117.964844 C 38.996094 -115.367188 41.921875 -112.441406 45.171875 -109.839844 C 49.070312 -106.917969 52.96875 -104.316406 56.871094 -101.390625 C 58.820312 -100.089844 60.769531 -99.117188 63.042969 -98.140625 C 66.292969 -96.515625 69.871094 -94.242188 73.445312 -92.941406 C 79.292969 -90.992188 84.167969 -87.742188 89.367188 -84.816406 C 92.941406 -82.867188 96.191406 -80.59375 99.441406 -78.320312 C 103.339844 -75.71875 105.941406 -72.46875 107.566406 -68.246094 C 109.839844 -61.417969 108.214844 -55.246094 103.339844 -50.695312 C 99.765625 -47.121094 95.21875 -45.496094 90.34375 -43.871094 C 86.441406 -42.894531 82.867188 -42.894531 78.96875 -44.195312 C 74.742188 -45.496094 70.84375 -47.121094 66.621094 -48.746094 C 64.996094 -49.394531 63.695312 -50.371094 62.070312 -51.347656 C 57.195312 -53.945312 53.945312 -58.496094 50.046875 -62.394531 C 48.746094 -64.34375 47.445312 -66.292969 45.820312 -68.246094 C 44.847656 -69.21875 43.871094 -70.84375 41.921875 -70.195312 C 39.972656 -69.871094 38.347656 -69.21875 36.722656 -67.59375 C 34.445312 -65.320312 32.171875 -63.042969 29.574219 -61.09375 C 24.371094 -57.519531 19.824219 -52.644531 14.949219 -48.746094 C 13.324219 -47.445312 12.675781 -45.496094 13.324219 -43.546875 C 14.296875 -41.273438 14.949219 -38.671875 16.25 -36.722656 C 20.472656 -29.574219 25.023438 -22.75 31.199219 -17.222656 C 33.148438 -15.273438 35.097656 -13.648438 37.371094 -12.023438 C 38.996094 -10.722656 41.273438 -9.425781 43.222656 -8.125 C 49.070312 -3.898438 55.570312 -0.976562 62.71875 0.976562 C 69.542969 2.601562 76.367188 4.226562 83.84375 3.898438 Z M 83.84375 3.898438 "/></g></g></g></g></g></g></svg>