<svg xmlns="http://www.w3.org/2000/svg" xmlns:xlink="http://www.w3.org/1999/xlink" width="1000" zoomAndPan="magnify" viewBox="0 0 750 749.999995" height="1000" preserveAspectRatio="xMidYMid meet" version="1.0"><defs><clipPath id="5f2ac54b5a"><path d="M 375 0 C 167.894531 0 0 167.894531 0 375 C 0 582.105469 167.894531 750 375 750 C 582.105469 750 750 582.105469 750 375 C 750 167.894531 582.105469 0 375 0 Z M 375 0 " clip-rule="nonzero"/></clipPath><linearGradient x1="0" gradientTransform="matrix(2.929687, 0, 0, 2.929687, 0.00000265, 0.00002)" y1="0" x2="255.999989" gradientUnits="userSpaceOnUse" y2="0" id="52b4d69580"><stop stop-opacity="1" stop-color="rgb(80.39856%, 100%, 84.698486%)" offset="0"/><stop stop-opacity="1" stop-color="rgb(80.311584%, 99.891663%, 84.757996%)" offset="0.0078125"/><stop stop-opacity="1" stop-color="rgb(80.136108%, 99.676514%, 84.87854%)" offset="0.015625"/><stop stop-opacity="1" stop-color="rgb(79.960632%, 99.461365%, 84.997559%)" offset="0.0234375"/><stop stop-opacity="1" stop-color="rgb(79.786682%, 99.246216%, 85.116577%)" offset="0.03125"/><stop stop-opacity="1" stop-color="rgb(79.611206%, 99.032593%, 85.237122%)" offset="0.0390625"/><stop stop-opacity="1" stop-color="rgb(79.43573%, 98.817444%, 85.35614%)" offset="0.046875"/><stop stop-opacity="1" stop-color="rgb(79.26178%, 98.602295%, 85.476685%)" offset="0.0546875"/><stop stop-opacity="1" stop-color="rgb(79.086304%, 98.387146%, 85.595703%)" offset="0.0625"/><stop stop-opacity="1" stop-color="rgb(78.910828%, 98.171997%, 85.714722%)" offset="0.0703125"/><stop stop-opacity="1" stop-color="rgb(78.736877%, 97.958374%, 85.835266%)" offset="0.078125"/><stop stop-opacity="1" stop-color="rgb(78.561401%, 97.743225%, 85.954285%)" offset="0.0859375"/><stop stop-opacity="1" stop-color="rgb(78.385925%, 97.528076%, 86.073303%)" offset="0.09375"/><stop stop-opacity="1" stop-color="rgb(78.211975%, 97.312927%, 86.193848%)" offset="0.101562"/><stop stop-opacity="1" stop-color="rgb(78.036499%, 97.097778%, 86.312866%)" offset="0.109375"/><stop stop-opacity="1" stop-color="rgb(77.861023%, 96.884155%, 86.431885%)" offset="0.117188"/><stop stop-opacity="1" stop-color="rgb(77.685547%, 96.669006%, 86.552429%)" offset="0.125"/><stop stop-opacity="1" stop-color="rgb(77.511597%, 96.453857%, 86.671448%)" offset="0.132812"/><stop stop-opacity="1" stop-color="rgb(77.336121%, 96.238708%, 86.790466%)" offset="0.140625"/><stop stop-opacity="1" stop-color="rgb(77.160645%, 96.02356%, 86.911011%)" offset="0.148438"/><stop stop-opacity="1" stop-color="rgb(76.986694%, 95.809937%, 87.030029%)" offset="0.15625"/><stop stop-opacity="1" stop-color="rgb(76.811218%, 95.594788%, 87.149048%)" offset="0.164062"/><stop stop-opacity="1" stop-color="rgb(76.635742%, 95.379639%, 87.269592%)" offset="0.171875"/><stop stop-opacity="1" stop-color="rgb(76.461792%, 95.16449%, 87.388611%)" offset="0.179688"/><stop stop-opacity="1" stop-color="rgb(76.286316%, 94.949341%, 87.507629%)" offset="0.1875"/><stop stop-opacity="1" stop-color="rgb(76.11084%, 94.735718%, 87.628174%)" offset="0.195312"/><stop stop-opacity="1" stop-color="rgb(75.93689%, 94.520569%, 87.747192%)" offset="0.203125"/><stop stop-opacity="1" stop-color="rgb(75.761414%, 94.30542%, 87.866211%)" offset="0.210938"/><stop stop-opacity="1" stop-color="rgb(75.585938%, 94.090271%, 87.986755%)" offset="0.21875"/><stop stop-opacity="1" stop-color="rgb(75.410461%, 93.875122%, 88.105774%)" offset="0.226562"/><stop stop-opacity="1" stop-color="rgb(75.236511%, 93.661499%, 88.224792%)" offset="0.234375"/><stop stop-opacity="1" stop-color="rgb(75.061035%, 93.44635%, 88.345337%)" offset="0.242188"/><stop stop-opacity="1" stop-color="rgb(74.885559%, 93.231201%, 88.464355%)" offset="0.25"/><stop stop-opacity="1" stop-color="rgb(74.711609%, 93.016052%, 88.583374%)" offset="0.257812"/><stop stop-opacity="1" stop-color="rgb(74.536133%, 92.800903%, 88.703918%)" offset="0.265625"/><stop stop-opacity="1" stop-color="rgb(74.360657%, 92.58728%, 88.822937%)" offset="0.273438"/><stop stop-opacity="1" stop-color="rgb(74.186707%, 92.372131%, 88.941956%)" offset="0.28125"/><stop stop-opacity="1" stop-color="rgb(74.01123%, 92.156982%, 89.0625%)" offset="0.289062"/><stop stop-opacity="1" stop-color="rgb(73.835754%, 91.941833%, 89.181519%)" offset="0.296875"/><stop stop-opacity="1" stop-color="rgb(73.661804%, 91.726685%, 89.300537%)" offset="0.304688"/><stop stop-opacity="1" stop-color="rgb(73.486328%, 91.513062%, 89.421082%)" offset="0.3125"/><stop stop-opacity="1" stop-color="rgb(73.310852%, 91.297913%, 89.5401%)" offset="0.320312"/><stop stop-opacity="1" stop-color="rgb(73.136902%, 91.082764%, 89.659119%)" offset="0.328125"/><stop stop-opacity="1" stop-color="rgb(72.961426%, 90.867615%, 89.779663%)" offset="0.335938"/><stop stop-opacity="1" stop-color="rgb(72.78595%, 90.652466%, 89.898682%)" offset="0.34375"/><stop stop-opacity="1" stop-color="rgb(72.610474%, 90.438843%, 90.0177%)" offset="0.351562"/><stop stop-opacity="1" stop-color="rgb(72.436523%, 90.223694%, 90.138245%)" offset="0.359375"/><stop stop-opacity="1" stop-color="rgb(72.261047%, 90.008545%, 90.257263%)" offset="0.367188"/><stop stop-opacity="1" stop-color="rgb(72.085571%, 89.793396%, 90.376282%)" offset="0.375"/><stop stop-opacity="1" stop-color="rgb(71.911621%, 89.578247%, 90.496826%)" offset="0.382812"/><stop stop-opacity="1" stop-color="rgb(71.736145%, 89.364624%, 90.615845%)" offset="0.390625"/><stop stop-opacity="1" stop-color="rgb(71.560669%, 89.149475%, 90.734863%)" offset="0.398438"/><stop stop-opacity="1" stop-color="rgb(71.386719%, 88.934326%, 90.855408%)" offset="0.40625"/><stop stop-opacity="1" stop-color="rgb(71.211243%, 88.719177%, 90.974426%)" offset="0.414062"/><stop stop-opacity="1" stop-color="rgb(71.035767%, 88.504028%, 91.093445%)" offset="0.421875"/><stop stop-opacity="1" stop-color="rgb(70.861816%, 88.290405%, 91.213989%)" offset="0.429688"/><stop stop-opacity="1" stop-color="rgb(70.68634%, 88.075256%, 91.333008%)" offset="0.4375"/><stop stop-opacity="1" stop-color="rgb(70.510864%, 87.860107%, 91.452026%)" offset="0.445312"/><stop stop-opacity="1" stop-color="rgb(70.336914%, 87.644958%, 91.572571%)" offset="0.453125"/><stop stop-opacity="1" stop-color="rgb(70.161438%, 87.42981%, 91.691589%)" offset="0.460938"/><stop stop-opacity="1" stop-color="rgb(69.985962%, 87.216187%, 91.810608%)" offset="0.46875"/><stop stop-opacity="1" stop-color="rgb(69.810486%, 87.001038%, 91.931152%)" offset="0.476562"/><stop stop-opacity="1" stop-color="rgb(69.636536%, 86.785889%, 92.050171%)" offset="0.484375"/><stop stop-opacity="1" stop-color="rgb(69.46106%, 86.57074%, 92.169189%)" offset="0.492188"/><stop stop-opacity="1" stop-color="rgb(69.285583%, 86.355591%, 92.289734%)" offset="0.5"/><stop stop-opacity="1" stop-color="rgb(69.111633%, 86.141968%, 92.408752%)" offset="0.507812"/><stop stop-opacity="1" stop-color="rgb(68.936157%, 85.926819%, 92.527771%)" offset="0.515625"/><stop stop-opacity="1" stop-color="rgb(68.760681%, 85.71167%, 92.648315%)" offset="0.523438"/><stop stop-opacity="1" stop-color="rgb(68.586731%, 85.496521%, 92.767334%)" offset="0.53125"/><stop stop-opacity="1" stop-color="rgb(68.411255%, 85.281372%, 92.886353%)" offset="0.539062"/><stop stop-opacity="1" stop-color="rgb(68.235779%, 85.067749%, 93.006897%)" offset="0.546875"/><stop stop-opacity="1" stop-color="rgb(68.061829%, 84.8526%, 93.125916%)" offset="0.554688"/><stop stop-opacity="1" stop-color="rgb(67.886353%, 84.637451%, 93.244934%)" offset="0.5625"/><stop stop-opacity="1" stop-color="rgb(67.710876%, 84.422302%, 93.365479%)" offset="0.570312"/><stop stop-opacity="1" stop-color="rgb(67.536926%, 84.207153%, 93.484497%)" offset="0.578125"/><stop stop-opacity="1" stop-color="rgb(67.36145%, 83.99353%, 93.603516%)" offset="0.585938"/><stop stop-opacity="1" stop-color="rgb(67.185974%, 83.778381%, 93.72406%)" offset="0.59375"/><stop stop-opacity="1" stop-color="rgb(67.010498%, 83.563232%, 93.843079%)" offset="0.601562"/><stop stop-opacity="1" stop-color="rgb(66.836548%, 83.348083%, 93.962097%)" offset="0.609375"/><stop stop-opacity="1" stop-color="rgb(66.661072%, 83.132935%, 94.082642%)" offset="0.617188"/><stop stop-opacity="1" stop-color="rgb(66.485596%, 82.919312%, 94.20166%)" offset="0.625"/><stop stop-opacity="1" stop-color="rgb(66.311646%, 82.704163%, 94.320679%)" offset="0.632812"/><stop stop-opacity="1" stop-color="rgb(66.136169%, 82.489014%, 94.441223%)" offset="0.640625"/><stop stop-opacity="1" stop-color="rgb(65.960693%, 82.273865%, 94.560242%)" offset="0.648438"/><stop stop-opacity="1" stop-color="rgb(65.786743%, 82.058716%, 94.67926%)" offset="0.65625"/><stop stop-opacity="1" stop-color="rgb(65.611267%, 81.845093%, 94.799805%)" offset="0.664062"/><stop stop-opacity="1" stop-color="rgb(65.435791%, 81.629944%, 94.918823%)" offset="0.671875"/><stop stop-opacity="1" stop-color="rgb(65.261841%, 81.414795%, 95.037842%)" offset="0.679688"/><stop stop-opacity="1" stop-color="rgb(65.086365%, 81.199646%, 95.158386%)" offset="0.6875"/><stop stop-opacity="1" stop-color="rgb(64.910889%, 80.984497%, 95.277405%)" offset="0.695312"/><stop stop-opacity="1" stop-color="rgb(64.736938%, 80.770874%, 95.396423%)" offset="0.703125"/><stop stop-opacity="1" stop-color="rgb(64.561462%, 80.555725%, 95.516968%)" offset="0.710938"/><stop stop-opacity="1" stop-color="rgb(64.385986%, 80.340576%, 95.635986%)" offset="0.71875"/><stop stop-opacity="1" stop-color="rgb(64.21051%, 80.125427%, 95.755005%)" offset="0.726562"/><stop stop-opacity="1" stop-color="rgb(64.03656%, 79.910278%, 95.875549%)" offset="0.734375"/><stop stop-opacity="1" stop-color="rgb(63.861084%, 79.696655%, 95.994568%)" offset="0.742188"/><stop stop-opacity="1" stop-color="rgb(63.685608%, 79.481506%, 96.113586%)" offset="0.75"/><stop stop-opacity="1" stop-color="rgb(63.511658%, 79.266357%, 96.234131%)" offset="0.757812"/><stop stop-opacity="1" stop-color="rgb(63.336182%, 79.051208%, 96.353149%)" offset="0.765625"/><stop stop-opacity="1" stop-color="rgb(63.160706%, 78.83606%, 96.472168%)" offset="0.773438"/><stop stop-opacity="1" stop-color="rgb(62.986755%, 78.622437%, 96.592712%)" offset="0.78125"/><stop stop-opacity="1" stop-color="rgb(62.811279%, 78.407288%, 96.711731%)" offset="0.789062"/><stop stop-opacity="1" stop-color="rgb(62.635803%, 78.192139%, 96.83075%)" offset="0.796875"/><stop stop-opacity="1" stop-color="rgb(62.461853%, 77.97699%, 96.951294%)" offset="0.804688"/><stop stop-opacity="1" stop-color="rgb(62.286377%, 77.761841%, 97.070312%)" offset="0.8125"/><stop stop-opacity="1" stop-color="rgb(62.110901%, 77.548218%, 97.189331%)" offset="0.820312"/><stop stop-opacity="1" stop-color="rgb(61.936951%, 77.333069%, 97.309875%)" offset="0.828125"/><stop stop-opacity="1" stop-color="rgb(61.761475%, 77.11792%, 97.428894%)" offset="0.835938"/><stop stop-opacity="1" stop-color="rgb(61.585999%, 76.902771%, 97.547913%)" offset="0.84375"/><stop stop-opacity="1" stop-color="rgb(61.410522%, 76.687622%, 97.668457%)" offset="0.851562"/><stop stop-opacity="1" stop-color="rgb(61.236572%, 76.473999%, 97.787476%)" offset="0.859375"/><stop stop-opacity="1" stop-color="rgb(61.061096%, 76.25885%, 97.906494%)" offset="0.867188"/><stop stop-opacity="1" stop-color="rgb(60.88562%, 76.043701%, 98.027039%)" offset="0.875"/><stop stop-opacity="1" stop-color="rgb(60.71167%, 75.828552%, 98.146057%)" offset="0.882812"/><stop stop-opacity="1" stop-color="rgb(60.536194%, 75.613403%, 98.265076%)" offset="0.890625"/><stop stop-opacity="1" stop-color="rgb(60.360718%, 75.39978%, 98.38562%)" offset="0.898438"/><stop stop-opacity="1" stop-color="rgb(60.186768%, 75.184631%, 98.504639%)" offset="0.90625"/><stop stop-opacity="1" stop-color="rgb(60.011292%, 74.969482%, 98.623657%)" offset="0.914062"/><stop stop-opacity="1" stop-color="rgb(59.835815%, 74.754333%, 98.744202%)" offset="0.921875"/><stop stop-opacity="1" stop-color="rgb(59.661865%, 74.539185%, 98.86322%)" offset="0.929688"/><stop stop-opacity="1" stop-color="rgb(59.486389%, 74.325562%, 98.982239%)" offset="0.9375"/><stop stop-opacity="1" stop-color="rgb(59.310913%, 74.110413%, 99.102783%)" offset="0.945312"/><stop stop-opacity="1" stop-color="rgb(59.136963%, 73.895264%, 99.221802%)" offset="0.953125"/><stop stop-opacity="1" stop-color="rgb(58.961487%, 73.680115%, 99.34082%)" offset="0.960938"/><stop stop-opacity="1" stop-color="rgb(58.786011%, 73.464966%, 99.461365%)" offset="0.96875"/><stop stop-opacity="1" stop-color="rgb(58.610535%, 73.251343%, 99.580383%)" offset="0.976562"/><stop stop-opacity="1" stop-color="rgb(58.436584%, 73.036194%, 99.699402%)" offset="0.984375"/><stop stop-opacity="1" stop-color="rgb(58.261108%, 72.821045%, 99.819946%)" offset="0.992188"/><stop stop-opacity="1" stop-color="rgb(58.085632%, 72.605896%, 99.938965%)" offset="1"/></linearGradient><clipPath id="1dddde3e41"><path d="M 87 368 L 658 368 L 658 694.566406 L 87 694.566406 Z M 87 368 " clip-rule="nonzero"/></clipPath></defs><g clip-path="url(#5f2ac54b5a)"><rect x="-75" fill="url(#52b4d69580)" width="900" y="-74.999999" height="899.999994"/></g><path fill="#ffc0b8" d="M 204.375 639.171875 L 196.5 656.078125 C 195.539062 655.648438 194.582031 655.191406 193.648438 654.761719 C 178.789062 647.871094 164.378906 640.144531 150.417969 631.578125 C 144.816406 628.179688 139.3125 624.609375 133.875 620.949219 L 152.59375 625.785156 L 194.007812 636.488281 Z M 204.375 639.171875 " fill-opacity="1" fill-rule="nonzero"/><g clip-path="url(#1dddde3e41)"><path fill="#28c7c5" d="M 652.632812 589.082031 C 652.511719 589.753906 652.394531 590.421875 652.273438 591.097656 C 641.800781 600.105469 630.914062 608.582031 619.621094 616.535156 C 608.324219 624.484375 596.671875 631.871094 584.660156 638.691406 C 572.648438 645.511719 560.335938 651.734375 547.722656 657.359375 C 535.105469 662.984375 522.25 667.988281 509.148438 672.367188 L 509.125 672.367188 C 508.574219 672.558594 508.023438 672.75 507.476562 672.917969 C 506.753906 673.15625 506.015625 673.398438 505.296875 673.636719 C 496.847656 676.367188 488.285156 678.839844 479.609375 681.058594 C 444.808594 689.910156 409.453125 694.324219 373.542969 694.300781 C 358.320312 694.320312 343.136719 693.53125 328 691.925781 C 312.859375 690.320312 297.851562 687.910156 282.96875 684.699219 C 268.089844 681.488281 253.421875 677.492188 238.96875 672.707031 C 224.515625 667.925781 210.359375 662.382812 196.5 656.085938 C 195.542969 655.652344 194.582031 655.199219 193.648438 654.765625 C 178.789062 647.878906 164.378906 640.148438 150.417969 631.585938 C 144.816406 628.183594 139.3125 624.617188 133.875 620.953125 C 117.410156 609.796875 101.785156 597.558594 87.007812 584.246094 C 103.378906 543.5625 139.859375 459.183594 170.597656 432.894531 C 204.78125 403.609375 286.429688 392.089844 330.789062 377.457031 C 338.292969 375.238281 345.425781 372.15625 352.1875 368.214844 L 417.945312 368.214844 C 421.851562 370.597656 425.945312 372.59375 430.226562 374.203125 C 470.488281 389.691406 548.433594 391.105469 602.527344 438.203125 C 662.878906 490.71875 662.253906 533.554688 652.632812 589.082031 Z M 652.632812 589.082031 " fill-opacity="1" fill-rule="nonzero"/></g><path fill="#28a6ad" d="M 505.824219 671.355469 L 507.476562 672.910156 C 506.753906 673.152344 506.015625 673.390625 505.296875 673.628906 C 496.847656 676.359375 488.285156 678.832031 479.609375 681.050781 C 509.460938 615.230469 537.898438 548.710938 539.550781 544.808594 Z M 505.824219 671.355469 " fill-opacity="1" fill-rule="nonzero"/><path fill="#2c2f4f" d="M 499.695312 195.003906 C 499.859375 200.269531 499.226562 205.4375 497.796875 210.507812 C 496.367188 215.578125 494.207031 220.316406 491.316406 224.71875 C 481.332031 240.832031 465.535156 252.394531 462.136719 269.300781 C 461.921875 270.40625 461.75 271.550781 461.632812 272.703125 C 459.261719 297.222656 454.019531 311.925781 426.015625 319.441406 C 421.808594 320.554688 417.554688 321.449219 413.253906 322.125 L 412.082031 320.734375 L 398.125 304.023438 L 342.757812 237.8125 L 271.949219 200.914062 C 265.367188 197.777344 259.414062 193.714844 254.09375 188.726562 C 250.960938 185.867188 248.035156 182.808594 245.320312 179.554688 C 242.601562 176.296875 240.117188 172.871094 237.863281 169.277344 C 235.609375 165.683594 233.609375 161.957031 231.863281 158.089844 C 230.113281 154.226562 228.636719 150.261719 227.425781 146.195312 C 214.644531 104.84375 228.40625 96.75 242.867188 102.976562 C 231.878906 71.378906 255.144531 55.476562 265.246094 63.453125 C 275.347656 71.425781 310.683594 76.882812 354.519531 70.992188 C 398.359375 65.101562 426.539062 61.222656 460.019531 93.382812 C 493.5 125.539062 470.554688 153.507812 470.554688 153.507812 C 470.554688 153.507812 498.570312 158.128906 499.695312 195.003906 Z M 499.695312 195.003906 " fill-opacity="1" fill-rule="nonzero"/><path fill="#ffc0b8" d="M 373.542969 429.96875 C 339.8125 429.609375 335.242188 411.152344 333.589844 399.007812 C 332.796875 393.335938 331.839844 385.433594 330.789062 377.460938 C 330.09375 372.046875 329.351562 366.589844 328.609375 361.777344 C 328.5625 361.535156 328.539062 361.296875 328.488281 361.082031 C 328.0625 358.089844 327.582031 355.382812 327.148438 353.035156 L 398.125 304.023438 L 423.667969 286.375 C 423.691406 287.988281 424.003906 292.824219 424.472656 299.546875 C 424.902344 305.097656 425.433594 311.996094 426.007812 319.441406 C 426.988281 332.109375 428.136719 346.429688 429.09375 358.75 C 429.546875 364.445312 429.898438 369.714844 430.21875 374.195312 C 430.554688 378.863281 430.792969 382.667969 430.960938 385.28125 C 431.855469 402.839844 407.246094 430.351562 373.542969 429.96875 Z M 373.542969 429.96875 " fill-opacity="1" fill-rule="nonzero"/><path fill="#ef716f" d="M 429.101562 358.757812 C 405.5 363.140625 362.027344 369.242188 331.648438 361.898438 C 330.574219 361.65625 329.519531 361.367188 328.488281 361.082031 C 328.0625 358.089844 327.582031 355.382812 327.148438 353.035156 L 398.125 304.023438 L 423.667969 286.375 C 423.691406 287.988281 424.003906 292.824219 424.472656 299.546875 C 424.902344 305.097656 425.433594 311.996094 426.007812 319.441406 C 426.996094 332.109375 428.144531 346.429688 429.101562 358.757812 Z M 429.101562 358.757812 " fill-opacity="1" fill-rule="nonzero"/><path fill="#ffc0b8" d="M 468.144531 267.578125 C 466.171875 268.265625 464.171875 268.839844 462.136719 269.300781 C 446.074219 273.039062 435.492188 268.105469 435.492188 268.105469 C 433.011719 279.003906 429.339844 289.484375 424.484375 299.550781 C 420.976562 306.984375 416.84375 314.046875 412.082031 320.742188 C 397.121094 341.691406 373.398438 361.085938 336.820312 361.925781 C 335.050781 361.972656 333.351562 361.972656 331.648438 361.902344 C 330.621094 361.902344 329.617188 361.855469 328.609375 361.78125 C 256.148438 357.777344 256.148438 276.558594 255.144531 259.363281 C 254.425781 247.34375 254.1875 211.164062 254.09375 188.726562 C 254.066406 177.785156 254.066406 170.125 254.066406 170.125 L 294.28125 178.457031 C 313.417969 182.523438 332.765625 184.910156 352.316406 185.613281 C 371.867188 186.320312 391.335938 185.328125 410.714844 182.648438 C 415.789062 181.90625 419.238281 181.878906 419.402344 183.101562 C 420.242188 188.679688 409.085938 194.378906 410.429688 206.636719 L 410.429688 206.757812 C 413.972656 224.742188 418.949219 244.832031 423.808594 245.140625 C 432.546875 245.765625 445.015625 200.03125 476.664062 212.125 C 484.46875 215.113281 489.089844 219.570312 491.3125 224.71875 C 498.234375 240.472656 482.792969 262.5 468.144531 267.578125 Z M 468.144531 267.578125 " fill-opacity="1" fill-rule="nonzero"/><path fill="#ffc0b8" d="M 509.125 672.359375 C 508.574219 672.550781 508.023438 672.742188 507.476562 672.910156 C 506.753906 673.152344 506.015625 673.390625 505.296875 673.628906 L 505.824219 671.355469 Z M 509.125 672.359375 " fill-opacity="1" fill-rule="nonzero"/><path fill="#28a6ad" d="M 196.523438 508.84375 L 194.011719 636.492188 L 193.65625 654.761719 C 178.796875 647.871094 164.386719 640.144531 150.425781 631.578125 L 152.601562 625.785156 Z M 196.523438 508.84375 " fill-opacity="1" fill-rule="nonzero"/></svg>