<svg xmlns="http://www.w3.org/2000/svg" xmlns:xlink="http://www.w3.org/1999/xlink" width="1000" zoomAndPan="magnify" viewBox="0 0 750 749.999995" height="1000" preserveAspectRatio="xMidYMid meet" version="1.0"><defs><clipPath id="d3e6c36abf"><path d="M 375 0 C 167.894531 0 0 167.894531 0 375 C 0 582.105469 167.894531 750 375 750 C 582.105469 750 750 582.105469 750 375 C 750 167.894531 582.105469 0 375 0 Z M 375 0 " clip-rule="nonzero"/></clipPath><linearGradient x1="0" gradientTransform="matrix(2.929687, 0, 0, 2.929687, 0.00000265, 0.00002)" y1="0" x2="255.999989" gradientUnits="userSpaceOnUse" y2="0" id="2afbd56ee1"><stop stop-opacity="1" stop-color="rgb(100%, 96.899414%, 67.799377%)" offset="0"/><stop stop-opacity="1" stop-color="rgb(100%, 96.77887%, 67.915344%)" offset="0.0078125"/><stop stop-opacity="1" stop-color="rgb(100%, 96.540833%, 68.147278%)" offset="0.015625"/><stop stop-opacity="1" stop-color="rgb(100%, 96.30127%, 68.380737%)" offset="0.0234375"/><stop stop-opacity="1" stop-color="rgb(100%, 96.061707%, 68.614197%)" offset="0.03125"/><stop stop-opacity="1" stop-color="rgb(100%, 95.823669%, 68.84613%)" offset="0.0390625"/><stop stop-opacity="1" stop-color="rgb(100%, 95.584106%, 69.07959%)" offset="0.046875"/><stop stop-opacity="1" stop-color="rgb(100%, 95.344543%, 69.311523%)" offset="0.0546875"/><stop stop-opacity="1" stop-color="rgb(100%, 95.106506%, 69.544983%)" offset="0.0625"/><stop stop-opacity="1" stop-color="rgb(100%, 94.866943%, 69.778442%)" offset="0.0703125"/><stop stop-opacity="1" stop-color="rgb(100%, 94.62738%, 70.010376%)" offset="0.078125"/><stop stop-opacity="1" stop-color="rgb(100%, 94.387817%, 70.243835%)" offset="0.0859375"/><stop stop-opacity="1" stop-color="rgb(100%, 94.14978%, 70.475769%)" offset="0.09375"/><stop stop-opacity="1" stop-color="rgb(100%, 93.910217%, 70.709229%)" offset="0.101562"/><stop stop-opacity="1" stop-color="rgb(100%, 93.670654%, 70.941162%)" offset="0.109375"/><stop stop-opacity="1" stop-color="rgb(100%, 93.432617%, 71.174622%)" offset="0.117188"/><stop stop-opacity="1" stop-color="rgb(100%, 93.193054%, 71.408081%)" offset="0.125"/><stop stop-opacity="1" stop-color="rgb(100%, 92.953491%, 71.640015%)" offset="0.132812"/><stop stop-opacity="1" stop-color="rgb(100%, 92.715454%, 71.873474%)" offset="0.140625"/><stop stop-opacity="1" stop-color="rgb(100%, 92.475891%, 72.105408%)" offset="0.148438"/><stop stop-opacity="1" stop-color="rgb(100%, 92.236328%, 72.338867%)" offset="0.15625"/><stop stop-opacity="1" stop-color="rgb(100%, 91.998291%, 72.570801%)" offset="0.164062"/><stop stop-opacity="1" stop-color="rgb(100%, 91.758728%, 72.80426%)" offset="0.171875"/><stop stop-opacity="1" stop-color="rgb(100%, 91.519165%, 73.03772%)" offset="0.179688"/><stop stop-opacity="1" stop-color="rgb(100%, 91.281128%, 73.269653%)" offset="0.1875"/><stop stop-opacity="1" stop-color="rgb(100%, 91.041565%, 73.503113%)" offset="0.195312"/><stop stop-opacity="1" stop-color="rgb(100%, 90.802002%, 73.735046%)" offset="0.203125"/><stop stop-opacity="1" stop-color="rgb(100%, 90.563965%, 73.968506%)" offset="0.210938"/><stop stop-opacity="1" stop-color="rgb(100%, 90.324402%, 74.200439%)" offset="0.21875"/><stop stop-opacity="1" stop-color="rgb(100%, 90.084839%, 74.433899%)" offset="0.226562"/><stop stop-opacity="1" stop-color="rgb(100%, 89.846802%, 74.667358%)" offset="0.234375"/><stop stop-opacity="1" stop-color="rgb(100%, 89.607239%, 74.899292%)" offset="0.242188"/><stop stop-opacity="1" stop-color="rgb(100%, 89.367676%, 75.132751%)" offset="0.25"/><stop stop-opacity="1" stop-color="rgb(100%, 89.129639%, 75.364685%)" offset="0.257812"/><stop stop-opacity="1" stop-color="rgb(100%, 88.890076%, 75.598145%)" offset="0.265625"/><stop stop-opacity="1" stop-color="rgb(100%, 88.650513%, 75.830078%)" offset="0.273438"/><stop stop-opacity="1" stop-color="rgb(100%, 88.412476%, 76.063538%)" offset="0.28125"/><stop stop-opacity="1" stop-color="rgb(100%, 88.172913%, 76.296997%)" offset="0.289062"/><stop stop-opacity="1" stop-color="rgb(100%, 87.93335%, 76.528931%)" offset="0.296875"/><stop stop-opacity="1" stop-color="rgb(100%, 87.695312%, 76.76239%)" offset="0.304688"/><stop stop-opacity="1" stop-color="rgb(100%, 87.45575%, 76.994324%)" offset="0.3125"/><stop stop-opacity="1" stop-color="rgb(100%, 87.216187%, 77.227783%)" offset="0.320312"/><stop stop-opacity="1" stop-color="rgb(100%, 86.978149%, 77.461243%)" offset="0.328125"/><stop stop-opacity="1" stop-color="rgb(100%, 86.738586%, 77.693176%)" offset="0.335938"/><stop stop-opacity="1" stop-color="rgb(100%, 86.499023%, 77.926636%)" offset="0.34375"/><stop stop-opacity="1" stop-color="rgb(100%, 86.260986%, 78.158569%)" offset="0.351562"/><stop stop-opacity="1" stop-color="rgb(100%, 86.021423%, 78.392029%)" offset="0.359375"/><stop stop-opacity="1" stop-color="rgb(100%, 85.78186%, 78.623962%)" offset="0.367188"/><stop stop-opacity="1" stop-color="rgb(100%, 85.543823%, 78.857422%)" offset="0.375"/><stop stop-opacity="1" stop-color="rgb(100%, 85.30426%, 79.090881%)" offset="0.382812"/><stop stop-opacity="1" stop-color="rgb(100%, 85.064697%, 79.322815%)" offset="0.390625"/><stop stop-opacity="1" stop-color="rgb(100%, 84.82666%, 79.556274%)" offset="0.398438"/><stop stop-opacity="1" stop-color="rgb(100%, 84.587097%, 79.788208%)" offset="0.40625"/><stop stop-opacity="1" stop-color="rgb(100%, 84.347534%, 80.021667%)" offset="0.414062"/><stop stop-opacity="1" stop-color="rgb(100%, 84.109497%, 80.253601%)" offset="0.421875"/><stop stop-opacity="1" stop-color="rgb(100%, 83.869934%, 80.487061%)" offset="0.429688"/><stop stop-opacity="1" stop-color="rgb(100%, 83.630371%, 80.72052%)" offset="0.4375"/><stop stop-opacity="1" stop-color="rgb(100%, 83.392334%, 80.952454%)" offset="0.445312"/><stop stop-opacity="1" stop-color="rgb(100%, 83.152771%, 81.185913%)" offset="0.453125"/><stop stop-opacity="1" stop-color="rgb(100%, 82.913208%, 81.417847%)" offset="0.460938"/><stop stop-opacity="1" stop-color="rgb(100%, 82.675171%, 81.651306%)" offset="0.46875"/><stop stop-opacity="1" stop-color="rgb(100%, 82.435608%, 81.88324%)" offset="0.476562"/><stop stop-opacity="1" stop-color="rgb(100%, 82.196045%, 82.116699%)" offset="0.484375"/><stop stop-opacity="1" stop-color="rgb(100%, 81.958008%, 82.350159%)" offset="0.492188"/><stop stop-opacity="1" stop-color="rgb(100%, 81.718445%, 82.582092%)" offset="0.5"/><stop stop-opacity="1" stop-color="rgb(100%, 81.478882%, 82.815552%)" offset="0.507812"/><stop stop-opacity="1" stop-color="rgb(100%, 81.240845%, 83.047485%)" offset="0.515625"/><stop stop-opacity="1" stop-color="rgb(100%, 81.001282%, 83.280945%)" offset="0.523438"/><stop stop-opacity="1" stop-color="rgb(100%, 80.761719%, 83.512878%)" offset="0.53125"/><stop stop-opacity="1" stop-color="rgb(100%, 80.523682%, 83.746338%)" offset="0.539062"/><stop stop-opacity="1" stop-color="rgb(100%, 80.284119%, 83.979797%)" offset="0.546875"/><stop stop-opacity="1" stop-color="rgb(100%, 80.044556%, 84.211731%)" offset="0.554688"/><stop stop-opacity="1" stop-color="rgb(100%, 79.806519%, 84.44519%)" offset="0.5625"/><stop stop-opacity="1" stop-color="rgb(100%, 79.566956%, 84.677124%)" offset="0.570312"/><stop stop-opacity="1" stop-color="rgb(100%, 79.327393%, 84.910583%)" offset="0.578125"/><stop stop-opacity="1" stop-color="rgb(100%, 79.08783%, 85.144043%)" offset="0.585938"/><stop stop-opacity="1" stop-color="rgb(100%, 78.849792%, 85.375977%)" offset="0.59375"/><stop stop-opacity="1" stop-color="rgb(100%, 78.610229%, 85.609436%)" offset="0.601562"/><stop stop-opacity="1" stop-color="rgb(100%, 78.370667%, 85.84137%)" offset="0.609375"/><stop stop-opacity="1" stop-color="rgb(100%, 78.132629%, 86.074829%)" offset="0.617188"/><stop stop-opacity="1" stop-color="rgb(100%, 77.893066%, 86.306763%)" offset="0.625"/><stop stop-opacity="1" stop-color="rgb(100%, 77.653503%, 86.540222%)" offset="0.632812"/><stop stop-opacity="1" stop-color="rgb(100%, 77.415466%, 86.773682%)" offset="0.640625"/><stop stop-opacity="1" stop-color="rgb(100%, 77.175903%, 87.005615%)" offset="0.648438"/><stop stop-opacity="1" stop-color="rgb(100%, 76.93634%, 87.239075%)" offset="0.65625"/><stop stop-opacity="1" stop-color="rgb(100%, 76.698303%, 87.471008%)" offset="0.664062"/><stop stop-opacity="1" stop-color="rgb(100%, 76.45874%, 87.704468%)" offset="0.671875"/><stop stop-opacity="1" stop-color="rgb(100%, 76.219177%, 87.936401%)" offset="0.679688"/><stop stop-opacity="1" stop-color="rgb(100%, 75.98114%, 88.169861%)" offset="0.6875"/><stop stop-opacity="1" stop-color="rgb(100%, 75.741577%, 88.40332%)" offset="0.695312"/><stop stop-opacity="1" stop-color="rgb(100%, 75.502014%, 88.635254%)" offset="0.703125"/><stop stop-opacity="1" stop-color="rgb(100%, 75.263977%, 88.868713%)" offset="0.710938"/><stop stop-opacity="1" stop-color="rgb(100%, 75.024414%, 89.100647%)" offset="0.71875"/><stop stop-opacity="1" stop-color="rgb(100%, 74.784851%, 89.334106%)" offset="0.726562"/><stop stop-opacity="1" stop-color="rgb(100%, 74.546814%, 89.56604%)" offset="0.734375"/><stop stop-opacity="1" stop-color="rgb(100%, 74.307251%, 89.7995%)" offset="0.742188"/><stop stop-opacity="1" stop-color="rgb(100%, 74.067688%, 90.032959%)" offset="0.75"/><stop stop-opacity="1" stop-color="rgb(100%, 73.829651%, 90.264893%)" offset="0.757812"/><stop stop-opacity="1" stop-color="rgb(100%, 73.590088%, 90.498352%)" offset="0.765625"/><stop stop-opacity="1" stop-color="rgb(100%, 73.350525%, 90.730286%)" offset="0.773438"/><stop stop-opacity="1" stop-color="rgb(100%, 73.112488%, 90.963745%)" offset="0.78125"/><stop stop-opacity="1" stop-color="rgb(100%, 72.872925%, 91.197205%)" offset="0.789062"/><stop stop-opacity="1" stop-color="rgb(100%, 72.633362%, 91.429138%)" offset="0.796875"/><stop stop-opacity="1" stop-color="rgb(100%, 72.395325%, 91.662598%)" offset="0.804688"/><stop stop-opacity="1" stop-color="rgb(100%, 72.155762%, 91.894531%)" offset="0.8125"/><stop stop-opacity="1" stop-color="rgb(100%, 71.916199%, 92.127991%)" offset="0.820312"/><stop stop-opacity="1" stop-color="rgb(100%, 71.678162%, 92.359924%)" offset="0.828125"/><stop stop-opacity="1" stop-color="rgb(100%, 71.438599%, 92.593384%)" offset="0.835938"/><stop stop-opacity="1" stop-color="rgb(100%, 71.199036%, 92.826843%)" offset="0.84375"/><stop stop-opacity="1" stop-color="rgb(100%, 70.960999%, 93.058777%)" offset="0.851562"/><stop stop-opacity="1" stop-color="rgb(100%, 70.721436%, 93.292236%)" offset="0.859375"/><stop stop-opacity="1" stop-color="rgb(100%, 70.481873%, 93.52417%)" offset="0.867188"/><stop stop-opacity="1" stop-color="rgb(100%, 70.243835%, 93.757629%)" offset="0.875"/><stop stop-opacity="1" stop-color="rgb(100%, 70.004272%, 93.989563%)" offset="0.882812"/><stop stop-opacity="1" stop-color="rgb(100%, 69.764709%, 94.223022%)" offset="0.890625"/><stop stop-opacity="1" stop-color="rgb(100%, 69.526672%, 94.456482%)" offset="0.898438"/><stop stop-opacity="1" stop-color="rgb(100%, 69.287109%, 94.688416%)" offset="0.90625"/><stop stop-opacity="1" stop-color="rgb(100%, 69.047546%, 94.921875%)" offset="0.914062"/><stop stop-opacity="1" stop-color="rgb(100%, 68.809509%, 95.153809%)" offset="0.921875"/><stop stop-opacity="1" stop-color="rgb(100%, 68.569946%, 95.387268%)" offset="0.929688"/><stop stop-opacity="1" stop-color="rgb(100%, 68.330383%, 95.619202%)" offset="0.9375"/><stop stop-opacity="1" stop-color="rgb(100%, 68.092346%, 95.852661%)" offset="0.945312"/><stop stop-opacity="1" stop-color="rgb(100%, 67.852783%, 96.086121%)" offset="0.953125"/><stop stop-opacity="1" stop-color="rgb(100%, 67.61322%, 96.318054%)" offset="0.960938"/><stop stop-opacity="1" stop-color="rgb(100%, 67.375183%, 96.551514%)" offset="0.96875"/><stop stop-opacity="1" stop-color="rgb(100%, 67.13562%, 96.783447%)" offset="0.976562"/><stop stop-opacity="1" stop-color="rgb(100%, 66.896057%, 97.016907%)" offset="0.984375"/><stop stop-opacity="1" stop-color="rgb(100%, 66.65802%, 97.24884%)" offset="0.992188"/><stop stop-opacity="1" stop-color="rgb(100%, 66.418457%, 97.4823%)" offset="1"/></linearGradient><clipPath id="00862b1cb0"><path d="M 68.03125 387 L 682.28125 387 L 682.28125 601.5625 L 68.03125 601.5625 Z M 68.03125 387 " clip-rule="nonzero"/></clipPath><clipPath id="28d2e8ac15"><path d="M 573 523 L 607 523 L 607 601.5625 L 573 601.5625 Z M 573 523 " clip-rule="nonzero"/></clipPath></defs><g clip-path="url(#d3e6c36abf)"><rect x="-75" fill="url(#2afbd56ee1)" width="900" y="-74.999999" height="899.999994"/></g><g clip-path="url(#00862b1cb0)"><path fill="#a12151" d="M 682.273438 584.058594 L 682.273438 601.441406 L 68.042969 601.441406 L 68.042969 595.609375 C 89.664062 553.261719 112.527344 514.152344 129.179688 496.519531 C 165.710938 458.027344 243.625 441.015625 284.503906 417.667969 L 284.628906 417.667969 C 291.578125 414.015625 297.75 409.339844 303.144531 403.640625 L 314.328125 402.394531 L 329.738281 400.78125 L 329.863281 400.78125 L 356.949219 397.800781 L 386.402344 394.570312 L 397.585938 393.328125 C 397.585938 393.328125 406.90625 390.84375 421.070312 387.621094 C 426.910156 386.375 432.058594 403.648438 432.058594 403.648438 C 470.703125 396.445312 546.585938 432.070312 571.925781 446.722656 C 603.367188 464.730469 642.136719 511.171875 682.273438 584.058594 Z M 682.273438 584.058594 " fill-opacity="1" fill-rule="nonzero"/></g><g clip-path="url(#28d2e8ac15)"><path fill="#870b3d" d="M 606.597656 601.441406 L 586.09375 601.441406 C 581.125 567.421875 576.277344 536.5 573.542969 525.957031 C 573.355469 525.265625 573.234375 524.558594 573.167969 523.84375 C 574.414062 523.835938 588.828125 558.726562 606.597656 601.441406 Z M 606.597656 601.441406 " fill-opacity="1" fill-rule="nonzero"/></g><path fill="#ffbbbb" d="M 421.199219 396.246094 C 421.375 402.007812 420.917969 407.71875 419.835938 413.378906 C 416.851562 428.53125 407.777344 444.421875 383.300781 446.410156 C 348.628906 449.140625 317.441406 418.222656 314.085938 401.335938 C 311.351562 387.304688 315.574219 380.101562 312.222656 340.492188 C 312.242188 340.113281 312.199219 339.738281 312.097656 339.375 C 311.476562 331.921875 310.605469 323.226562 309.363281 313.296875 L 322.535156 314.414062 L 421.199219 323.234375 C 421.199219 323.234375 420.578125 379.480469 421.199219 396.246094 Z M 421.199219 396.246094 " fill-opacity="1" fill-rule="nonzero"/><path fill="#ff7d7d" d="M 421.199219 396.246094 C 421.375 402.007812 420.917969 407.71875 419.835938 413.378906 C 378.457031 425.175781 326.761719 382.585938 312.222656 340.492188 C 312.097656 340.242188 312.097656 339.996094 311.972656 339.746094 L 312.097656 339.375 L 322.539062 314.414062 L 421.203125 323.234375 C 421.203125 323.234375 420.578125 379.480469 421.199219 396.246094 Z M 421.199219 396.246094 " fill-opacity="1" fill-rule="nonzero"/><path fill="#542147" d="M 300.589844 323.25 C 257.011719 269.90625 249.488281 238.234375 248.273438 209.09375 C 247.0625 179.957031 268.722656 181.457031 268.722656 181.457031 C 268.722656 181.457031 251.585938 140 294.574219 109.355469 C 337.566406 78.714844 475.859375 89.230469 498.707031 151.113281 C 521.554688 213 489.085938 313.339844 447.605469 323.25 Z M 300.589844 323.25 " fill-opacity="1" fill-rule="nonzero"/><path fill="#ff7d7d" d="M 303.144531 262.957031 C 303.144531 263.855469 303.109375 264.753906 303.035156 265.652344 C 302.960938 266.546875 302.847656 267.4375 302.699219 268.320312 C 302.550781 269.203125 302.367188 270.074219 302.144531 270.9375 C 301.925781 271.796875 301.667969 272.644531 301.378906 273.476562 C 301.085938 274.308594 300.761719 275.121094 300.402344 275.914062 C 300.042969 276.707031 299.65625 277.480469 299.230469 278.226562 C 298.808594 278.976562 298.355469 279.699219 297.875 280.394531 C 297.390625 281.089844 296.882812 281.757812 296.34375 282.394531 C 295.804688 283.03125 295.242188 283.632812 294.65625 284.207031 C 294.066406 284.777344 293.457031 285.3125 292.824219 285.8125 C 292.191406 286.3125 291.539062 286.773438 290.871094 287.199219 C 290.199219 287.625 289.511719 288.007812 288.808594 288.351562 C 288.105469 288.695312 287.390625 289 286.664062 289.261719 C 285.933594 289.523438 285.199219 289.742188 284.453125 289.917969 C 283.707031 290.09375 282.953125 290.222656 282.199219 290.3125 C 281.441406 290.402344 280.683594 290.445312 279.921875 290.445312 C 279.160156 290.445312 278.402344 290.402344 277.644531 290.3125 C 276.886719 290.222656 276.136719 290.09375 275.390625 289.917969 C 274.644531 289.742188 273.90625 289.523438 273.179688 289.261719 C 272.453125 289 271.738281 288.695312 271.035156 288.351562 C 270.332031 288.007812 269.644531 287.625 268.972656 287.199219 C 268.304688 286.773438 267.652344 286.3125 267.019531 285.8125 C 266.386719 285.3125 265.777344 284.777344 265.1875 284.207031 C 264.601562 283.632812 264.039062 283.03125 263.5 282.394531 C 262.960938 281.757812 262.453125 281.089844 261.96875 280.394531 C 261.488281 279.699219 261.035156 278.976562 260.613281 278.226562 C 260.1875 277.480469 259.796875 276.707031 259.441406 275.914062 C 259.082031 275.121094 258.757812 274.308594 258.464844 273.476562 C 258.175781 272.644531 257.917969 271.796875 257.699219 270.9375 C 257.476562 270.074219 257.292969 269.203125 257.144531 268.320312 C 256.996094 267.4375 256.882812 266.546875 256.808594 265.652344 C 256.734375 264.753906 256.699219 263.855469 256.699219 262.957031 C 256.699219 262.058594 256.734375 261.160156 256.808594 260.261719 C 256.882812 259.367188 256.996094 258.476562 257.144531 257.59375 C 257.292969 256.710938 257.476562 255.839844 257.699219 254.976562 C 257.917969 254.117188 258.175781 253.269531 258.464844 252.4375 C 258.757812 251.605469 259.082031 250.792969 259.441406 250 C 259.796875 249.207031 260.1875 248.433594 260.613281 247.6875 C 261.035156 246.9375 261.488281 246.214844 261.96875 245.519531 C 262.453125 244.824219 262.960938 244.15625 263.5 243.519531 C 264.039062 242.882812 264.601562 242.28125 265.1875 241.707031 C 265.777344 241.136719 266.386719 240.601562 267.019531 240.101562 C 267.652344 239.601562 268.304688 239.140625 268.972656 238.714844 C 269.644531 238.289062 270.332031 237.90625 271.035156 237.5625 C 271.738281 237.21875 272.453125 236.914062 273.179688 236.652344 C 273.90625 236.390625 274.644531 236.171875 275.390625 235.996094 C 276.136719 235.820312 276.886719 235.691406 277.644531 235.601562 C 278.402344 235.511719 279.160156 235.46875 279.921875 235.46875 C 280.683594 235.46875 281.441406 235.511719 282.199219 235.601562 C 282.953125 235.691406 283.707031 235.820312 284.453125 235.996094 C 285.199219 236.171875 285.933594 236.390625 286.664062 236.652344 C 287.390625 236.914062 288.105469 237.21875 288.808594 237.5625 C 289.511719 237.90625 290.199219 238.289062 290.871094 238.714844 C 291.539062 239.140625 292.191406 239.601562 292.824219 240.101562 C 293.457031 240.601562 294.066406 241.136719 294.65625 241.707031 C 295.242188 242.28125 295.804688 242.882812 296.34375 243.519531 C 296.882812 244.15625 297.390625 244.824219 297.875 245.519531 C 298.355469 246.214844 298.808594 246.9375 299.230469 247.6875 C 299.65625 248.433594 300.042969 249.207031 300.402344 250 C 300.761719 250.792969 301.085938 251.605469 301.378906 252.4375 C 301.667969 253.269531 301.925781 254.117188 302.144531 254.976562 C 302.367188 255.839844 302.550781 256.710938 302.699219 257.59375 C 302.847656 258.476562 302.960938 259.367188 303.035156 260.261719 C 303.109375 261.160156 303.144531 262.058594 303.144531 262.957031 Z M 303.144531 262.957031 " fill-opacity="1" fill-rule="nonzero"/><path fill="#ff7d7d" d="M 496.695312 267.074219 C 496.695312 267.976562 496.65625 268.871094 496.582031 269.769531 C 496.507812 270.664062 496.394531 271.554688 496.246094 272.4375 C 496.097656 273.320312 495.914062 274.191406 495.695312 275.054688 C 495.472656 275.914062 495.21875 276.761719 494.925781 277.59375 C 494.636719 278.425781 494.308594 279.238281 493.953125 280.03125 C 493.59375 280.824219 493.203125 281.597656 492.78125 282.347656 C 492.359375 283.09375 491.90625 283.816406 491.421875 284.511719 C 490.941406 285.207031 490.429688 285.875 489.890625 286.511719 C 489.355469 287.148438 488.792969 287.75 488.203125 288.324219 C 487.617188 288.894531 487.003906 289.429688 486.371094 289.929688 C 485.742188 290.429688 485.089844 290.890625 484.417969 291.316406 C 483.746094 291.742188 483.058594 292.125 482.359375 292.46875 C 481.65625 292.8125 480.941406 293.117188 480.210938 293.378906 C 479.484375 293.640625 478.746094 293.859375 478 294.035156 C 477.253906 294.210938 476.503906 294.339844 475.746094 294.429688 C 474.988281 294.519531 474.230469 294.5625 473.46875 294.5625 C 472.710938 294.5625 471.949219 294.519531 471.195312 294.429688 C 470.4375 294.339844 469.683594 294.210938 468.9375 294.035156 C 468.191406 293.859375 467.457031 293.640625 466.726562 293.378906 C 466 293.117188 465.285156 292.8125 464.582031 292.46875 C 463.878906 292.125 463.191406 291.742188 462.523438 291.316406 C 461.851562 290.890625 461.199219 290.429688 460.566406 289.929688 C 459.933594 289.429688 459.324219 288.894531 458.738281 288.324219 C 458.148438 287.75 457.585938 287.148438 457.046875 286.511719 C 456.511719 285.875 456 285.207031 455.519531 284.511719 C 455.035156 283.816406 454.582031 283.09375 454.160156 282.347656 C 453.738281 281.597656 453.347656 280.824219 452.988281 280.03125 C 452.628906 279.238281 452.304688 278.425781 452.015625 277.59375 C 451.722656 276.761719 451.46875 275.914062 451.246094 275.054688 C 451.023438 274.191406 450.839844 273.320312 450.691406 272.4375 C 450.542969 271.554688 450.433594 270.664062 450.359375 269.769531 C 450.285156 268.871094 450.246094 267.976562 450.246094 267.074219 C 450.246094 266.175781 450.285156 265.277344 450.359375 264.378906 C 450.433594 263.484375 450.542969 262.59375 450.691406 261.710938 C 450.839844 260.828125 451.023438 259.957031 451.246094 259.09375 C 451.46875 258.234375 451.722656 257.386719 452.015625 256.554688 C 452.304688 255.722656 452.628906 254.910156 452.988281 254.117188 C 453.347656 253.324219 453.738281 252.550781 454.160156 251.804688 C 454.582031 251.054688 455.035156 250.332031 455.519531 249.636719 C 456 248.941406 456.511719 248.273438 457.046875 247.636719 C 457.585938 247 458.148438 246.398438 458.738281 245.824219 C 459.324219 245.253906 459.933594 244.71875 460.566406 244.21875 C 461.199219 243.71875 461.851562 243.257812 462.523438 242.832031 C 463.191406 242.40625 463.878906 242.023438 464.582031 241.679688 C 465.285156 241.335938 466 241.03125 466.730469 240.769531 C 467.457031 240.507812 468.191406 240.289062 468.9375 240.113281 C 469.683594 239.9375 470.4375 239.808594 471.195312 239.71875 C 471.949219 239.628906 472.710938 239.585938 473.46875 239.585938 C 474.230469 239.585938 474.988281 239.628906 475.746094 239.71875 C 476.503906 239.808594 477.253906 239.9375 478 240.113281 C 478.746094 240.289062 479.484375 240.507812 480.210938 240.769531 C 480.941406 241.03125 481.65625 241.335938 482.359375 241.679688 C 483.058594 242.023438 483.746094 242.40625 484.417969 242.832031 C 485.089844 243.257812 485.742188 243.71875 486.371094 244.21875 C 487.003906 244.71875 487.617188 245.253906 488.203125 245.824219 C 488.792969 246.398438 489.355469 247 489.890625 247.636719 C 490.429688 248.273438 490.941406 248.941406 491.421875 249.636719 C 491.90625 250.332031 492.359375 251.054688 492.78125 251.804688 C 493.203125 252.550781 493.59375 253.324219 493.953125 254.117188 C 494.308594 254.910156 494.636719 255.722656 494.925781 256.554688 C 495.21875 257.386719 495.472656 258.234375 495.695312 259.09375 C 495.914062 259.957031 496.097656 260.828125 496.246094 261.710938 C 496.394531 262.59375 496.507812 263.484375 496.582031 264.378906 C 496.65625 265.277344 496.695312 266.175781 496.695312 267.074219 Z M 496.695312 267.074219 " fill-opacity="1" fill-rule="nonzero"/><path fill="#ffbbbb" d="M 288.164062 188.367188 C 288.164062 188.367188 278.140625 279.691406 288.164062 311.335938 C 298.183594 342.976562 338.671875 370.617188 371.539062 374.222656 C 404.40625 377.828125 452.109375 345.785156 466.140625 315.339844 C 480.167969 284.898438 469.746094 231.625 469.746094 231.625 C 469.746094 231.625 392.988281 262.957031 288.164062 188.367188 Z M 288.164062 188.367188 " fill-opacity="1" fill-rule="nonzero"/><path fill="#ffffff" d="M 313.273438 388.492188 C 315.496094 412.9375 373.0625 432.414062 373.359375 434.988281 C 373.660156 437.566406 352.898438 479.363281 345.324219 476.789062 C 337.746094 474.210938 301.535156 445.746094 292.734375 429.992188 C 283.933594 414.238281 313.273438 388.492188 313.273438 388.492188 Z M 313.273438 388.492188 " fill-opacity="1" fill-rule="nonzero"/><path fill="#ffffff" d="M 421.308594 385.734375 C 419.089844 410.175781 361.523438 429.65625 361.222656 432.230469 C 360.925781 434.804688 381.683594 476.605469 389.261719 474.027344 C 396.839844 471.453125 433.0625 442.984375 441.855469 427.230469 C 450.644531 411.480469 421.308594 385.734375 421.308594 385.734375 Z M 421.308594 385.734375 " fill-opacity="1" fill-rule="nonzero"/></svg>